<svg width="508" height="21" viewBox="0 0 508 21" fill="none" xmlns="http://www.w3.org/2000/svg">
<path d="M441.2 10.736C441.2 9.56 441.488 8.474 442.064 7.478C442.652 6.482 443.444 5.696 444.44 5.12C445.436 4.532 446.522 4.238 447.698 4.238C448.898 4.238 450.002 4.544 451.01 5.156C452.018 5.756 452.804 6.56 453.368 7.568L451.928 8.342C451.496 7.598 450.902 7.004 450.146 6.56C449.402 6.104 448.586 5.876 447.698 5.876C446.822 5.876 446.012 6.098 445.268 6.542C444.524 6.974 443.93 7.562 443.486 8.306C443.054 9.05 442.838 9.86 442.838 10.736C442.838 11.612 443.054 12.422 443.486 13.166C443.93 13.91 444.524 14.498 445.268 14.93C446.012 15.362 446.822 15.578 447.698 15.578C448.598 15.578 449.42 15.35 450.164 14.894C450.92 14.438 451.508 13.832 451.928 13.076L453.386 13.868C452.822 14.888 452.03 15.704 451.01 16.316C450.002 16.928 448.898 17.234 447.698 17.234C446.522 17.234 445.436 16.946 444.44 16.37C443.444 15.782 442.652 14.99 442.064 13.994C441.488 12.998 441.2 11.912 441.2 10.736ZM458.975 17.216C458.123 17.216 457.337 17.006 456.617 16.586C455.897 16.166 455.321 15.596 454.889 14.876C454.469 14.144 454.259 13.352 454.259 12.5C454.259 11.648 454.469 10.862 454.889 10.142C455.321 9.422 455.897 8.852 456.617 8.432C457.337 8.012 458.123 7.802 458.975 7.802C459.827 7.802 460.613 8.012 461.333 8.432C462.053 8.852 462.623 9.422 463.043 10.142C463.475 10.862 463.691 11.648 463.691 12.5C463.691 13.352 463.475 14.144 463.043 14.876C462.623 15.596 462.053 16.166 461.333 16.586C460.613 17.006 459.827 17.216 458.975 17.216ZM458.975 15.668C459.551 15.668 460.079 15.53 460.559 15.254C461.039 14.966 461.417 14.582 461.693 14.102C461.981 13.61 462.125 13.076 462.125 12.5C462.125 11.924 461.981 11.396 461.693 10.916C461.417 10.436 461.039 10.058 460.559 9.782C460.079 9.494 459.551 9.35 458.975 9.35C458.399 9.35 457.865 9.494 457.373 9.782C456.893 10.058 456.509 10.436 456.221 10.916C455.945 11.396 455.807 11.924 455.807 12.5C455.807 13.076 455.945 13.61 456.221 14.102C456.509 14.582 456.893 14.966 457.373 15.254C457.865 15.53 458.399 15.668 458.975 15.668ZM469.523 7.784C470.051 7.784 470.591 7.898 471.143 8.126C471.695 8.342 472.169 8.738 472.565 9.314C472.961 9.878 473.159 10.646 473.159 11.618V17H471.611V11.618C471.611 10.742 471.371 10.118 470.891 9.746C470.411 9.362 469.847 9.17 469.199 9.17C468.575 9.17 468.029 9.392 467.561 9.836C467.093 10.268 466.859 10.982 466.859 11.978V17H465.311V8H466.859V9.062C467.183 8.678 467.573 8.372 468.029 8.144C468.485 7.904 468.983 7.784 469.523 7.784ZM477.555 14.192C477.555 14.744 477.657 15.128 477.861 15.344C478.077 15.548 478.419 15.65 478.887 15.65C479.031 15.65 479.331 15.626 479.787 15.578V17C479.271 17.06 478.839 17.09 478.491 17.09C477.639 17.09 477.009 16.886 476.601 16.478C476.205 16.07 476.007 15.338 476.007 14.282V9.422H474.009V8H476.007V5.552L477.555 4.994V8H479.751V9.422H477.555V14.192ZM488.793 8H490.359V17H488.793V15.65C488.373 16.142 487.869 16.532 487.281 16.82C486.705 17.096 486.087 17.234 485.427 17.234C484.551 17.234 483.765 17.03 483.069 16.622C482.373 16.202 481.833 15.632 481.449 14.912C481.065 14.192 480.873 13.394 480.873 12.518C480.873 11.63 481.065 10.832 481.449 10.124C481.833 9.404 482.367 8.84 483.051 8.432C483.747 8.012 484.539 7.802 485.427 7.802C486.087 7.802 486.705 7.946 487.281 8.234C487.869 8.51 488.373 8.894 488.793 9.386V8ZM485.589 15.74C486.177 15.74 486.717 15.602 487.209 15.326C487.701 15.038 488.085 14.648 488.361 14.156C488.649 13.664 488.793 13.112 488.793 12.5C488.793 11.9 488.649 11.36 488.361 10.88C488.085 10.388 487.701 10.004 487.209 9.728C486.717 9.452 486.177 9.314 485.589 9.314C485.001 9.314 484.467 9.452 483.987 9.728C483.507 10.004 483.129 10.388 482.853 10.88C482.577 11.372 482.439 11.918 482.439 12.518C482.439 13.13 482.577 13.682 482.853 14.174C483.129 14.654 483.507 15.038 483.987 15.326C484.467 15.602 485.001 15.74 485.589 15.74ZM500.373 15.254C499.941 15.854 499.389 16.334 498.717 16.694C498.057 17.042 497.337 17.216 496.557 17.216C495.705 17.216 494.919 17.006 494.199 16.586C493.479 16.166 492.903 15.596 492.471 14.876C492.051 14.144 491.841 13.352 491.841 12.5C491.841 11.648 492.051 10.862 492.471 10.142C492.903 9.422 493.479 8.852 494.199 8.432C494.919 8.012 495.705 7.802 496.557 7.802C497.325 7.802 498.039 7.976 498.699 8.324C499.359 8.672 499.911 9.14 500.355 9.728L499.077 10.592C498.765 10.196 498.393 9.89 497.961 9.674C497.529 9.458 497.061 9.35 496.557 9.35C495.981 9.35 495.453 9.494 494.973 9.782C494.493 10.058 494.109 10.436 493.821 10.916C493.545 11.396 493.407 11.924 493.407 12.5C493.407 13.076 493.545 13.61 493.821 14.102C494.109 14.582 494.493 14.966 494.973 15.254C495.453 15.53 495.981 15.668 496.557 15.668C497.061 15.668 497.529 15.56 497.961 15.344C498.405 15.116 498.777 14.804 499.077 14.408L500.373 15.254ZM504.537 14.192C504.537 14.744 504.639 15.128 504.843 15.344C505.059 15.548 505.401 15.65 505.869 15.65C506.013 15.65 506.313 15.626 506.769 15.578V17C506.253 17.06 505.821 17.09 505.473 17.09C504.621 17.09 503.991 16.886 503.583 16.478C503.187 16.07 502.989 15.338 502.989 14.282V9.422H500.991V8H502.989V5.552L504.537 4.994V8H506.733V9.422H504.537V14.192Z" fill="#757683"/>
<path d="M350.558 13.796V4.4H352.214V17H350.774L344.42 7.208V17H342.782V4.4H344.42V4.418L344.438 4.4L350.558 13.796ZM358.591 7.784C359.467 7.784 360.247 8 360.931 8.432C361.615 8.852 362.143 9.428 362.515 10.16C362.899 10.88 363.091 11.666 363.091 12.518C363.091 12.614 363.085 12.722 363.073 12.842C363.061 12.95 363.049 13.04 363.037 13.112H355.459C355.579 13.916 355.927 14.576 356.503 15.092C357.091 15.596 357.835 15.848 358.735 15.848C359.287 15.848 359.809 15.722 360.301 15.47C360.805 15.218 361.177 14.906 361.417 14.534L362.641 15.254C362.245 15.878 361.705 16.364 361.021 16.712C360.349 17.048 359.581 17.216 358.717 17.216C357.769 17.216 356.929 17.012 356.197 16.604C355.465 16.196 354.895 15.638 354.487 14.93C354.079 14.21 353.875 13.4 353.875 12.5C353.875 11.612 354.073 10.814 354.469 10.106C354.877 9.386 355.435 8.822 356.143 8.414C356.863 7.994 357.679 7.784 358.591 7.784ZM361.615 11.852C361.495 11.012 361.171 10.352 360.643 9.872C360.115 9.392 359.431 9.152 358.591 9.152C358.003 9.152 357.469 9.278 356.989 9.53C356.509 9.782 356.131 10.118 355.855 10.538C355.579 10.946 355.435 11.384 355.423 11.852H361.615ZM372.86 14.624L374.93 8H376.568L373.652 17H372.068L369.98 10.502L367.91 17H366.344L363.536 8H365.156L367.136 14.624L369.134 8H370.808L372.86 14.624ZM379.494 10.466C379.494 10.814 379.656 11.066 379.98 11.222C380.316 11.378 380.85 11.546 381.582 11.726C382.29 11.894 382.866 12.062 383.31 12.23C383.766 12.398 384.15 12.662 384.462 13.022C384.786 13.382 384.948 13.868 384.948 14.48C384.948 15.308 384.606 15.974 383.922 16.478C383.238 16.97 382.38 17.216 381.348 17.216C380.424 17.216 379.644 17.036 379.008 16.676C378.372 16.316 377.91 15.812 377.622 15.164L378.9 14.498C379.092 14.978 379.398 15.338 379.818 15.578C380.238 15.806 380.748 15.92 381.348 15.92C381.912 15.92 382.398 15.794 382.806 15.542C383.226 15.29 383.436 14.942 383.436 14.498C383.436 14.222 383.334 13.994 383.13 13.814C382.938 13.634 382.692 13.496 382.392 13.4C382.104 13.304 381.69 13.184 381.15 13.04C380.466 12.872 379.908 12.71 379.476 12.554C379.056 12.386 378.69 12.14 378.378 11.816C378.078 11.492 377.928 11.054 377.928 10.502C377.928 9.974 378.078 9.506 378.378 9.098C378.678 8.678 379.086 8.354 379.602 8.126C380.118 7.898 380.694 7.784 381.33 7.784C382.086 7.784 382.752 7.946 383.328 8.27C383.916 8.594 384.366 9.044 384.678 9.62L383.4 10.268C383.22 9.884 382.956 9.59 382.608 9.386C382.26 9.17 381.834 9.062 381.33 9.062C380.766 9.062 380.316 9.194 379.98 9.458C379.656 9.71 379.494 10.046 379.494 10.466Z" fill="#757683"/>
<path d="M223.798 4.4C224.518 4.4 225.184 4.58 225.796 4.94C226.408 5.288 226.888 5.768 227.236 6.38C227.596 6.98 227.776 7.64 227.776 8.36C227.776 9.08 227.596 9.746 227.236 10.358C226.888 10.97 226.408 11.456 225.796 11.816C225.184 12.164 224.518 12.338 223.798 12.338H221.116V17H219.478V4.4H223.798ZM223.798 10.772C224.23 10.772 224.632 10.664 225.004 10.448C225.376 10.232 225.67 9.938 225.886 9.566C226.102 9.194 226.21 8.792 226.21 8.36C226.21 7.928 226.102 7.532 225.886 7.172C225.67 6.8 225.376 6.506 225.004 6.29C224.632 6.074 224.23 5.966 223.798 5.966H221.116V10.772H223.798ZM233.071 17.216C232.219 17.216 231.433 17.006 230.713 16.586C229.993 16.166 229.417 15.596 228.985 14.876C228.565 14.144 228.355 13.352 228.355 12.5C228.355 11.648 228.565 10.862 228.985 10.142C229.417 9.422 229.993 8.852 230.713 8.432C231.433 8.012 232.219 7.802 233.071 7.802C233.923 7.802 234.709 8.012 235.429 8.432C236.149 8.852 236.719 9.422 237.139 10.142C237.571 10.862 237.787 11.648 237.787 12.5C237.787 13.352 237.571 14.144 237.139 14.876C236.719 15.596 236.149 16.166 235.429 16.586C234.709 17.006 233.923 17.216 233.071 17.216ZM233.071 15.668C233.647 15.668 234.175 15.53 234.655 15.254C235.135 14.966 235.513 14.582 235.789 14.102C236.077 13.61 236.221 13.076 236.221 12.5C236.221 11.924 236.077 11.396 235.789 10.916C235.513 10.436 235.135 10.058 234.655 9.782C234.175 9.494 233.647 9.35 233.071 9.35C232.495 9.35 231.961 9.494 231.469 9.782C230.989 10.058 230.605 10.436 230.317 10.916C230.041 11.396 229.903 11.924 229.903 12.5C229.903 13.076 230.041 13.61 230.317 14.102C230.605 14.582 230.989 14.966 231.469 15.254C231.961 15.53 232.495 15.668 233.071 15.668ZM243.818 7.802C243.962 7.802 244.07 7.808 244.142 7.82L244.016 9.296C243.872 9.272 243.758 9.26 243.674 9.26C242.906 9.26 242.258 9.494 241.73 9.962C241.214 10.43 240.956 11.108 240.956 11.996V17H239.408V8H240.956V9.548C241.16 9.056 241.508 8.642 242 8.306C242.504 7.97 243.11 7.802 243.818 7.802ZM248.892 14.192C248.892 14.744 248.994 15.128 249.198 15.344C249.414 15.548 249.756 15.65 250.224 15.65C250.368 15.65 250.668 15.626 251.124 15.578V17C250.608 17.06 250.176 17.09 249.828 17.09C248.976 17.09 248.346 16.886 247.938 16.478C247.542 16.07 247.344 15.338 247.344 14.282V9.422H245.346V8H247.344V5.552L248.892 4.994V8H251.088V9.422H248.892V14.192ZM257.851 5.696C257.395 5.648 257.095 5.624 256.951 5.624C256.471 5.624 256.123 5.732 255.907 5.948C255.703 6.152 255.601 6.53 255.601 7.082V8H257.833V9.422H255.601V17H254.053V9.422H252.397V8H254.053V6.992C254.053 5.936 254.257 5.204 254.665 4.796C255.073 4.388 255.703 4.184 256.555 4.184C256.903 4.184 257.335 4.214 257.851 4.274V5.696ZM262.937 17.216C262.085 17.216 261.299 17.006 260.579 16.586C259.859 16.166 259.283 15.596 258.851 14.876C258.431 14.144 258.221 13.352 258.221 12.5C258.221 11.648 258.431 10.862 258.851 10.142C259.283 9.422 259.859 8.852 260.579 8.432C261.299 8.012 262.085 7.802 262.937 7.802C263.789 7.802 264.575 8.012 265.295 8.432C266.015 8.852 266.585 9.422 267.005 10.142C267.437 10.862 267.653 11.648 267.653 12.5C267.653 13.352 267.437 14.144 267.005 14.876C266.585 15.596 266.015 16.166 265.295 16.586C264.575 17.006 263.789 17.216 262.937 17.216ZM262.937 15.668C263.513 15.668 264.041 15.53 264.521 15.254C265.001 14.966 265.379 14.582 265.655 14.102C265.943 13.61 266.087 13.076 266.087 12.5C266.087 11.924 265.943 11.396 265.655 10.916C265.379 10.436 265.001 10.058 264.521 9.782C264.041 9.494 263.513 9.35 262.937 9.35C262.361 9.35 261.827 9.494 261.335 9.782C260.855 10.058 260.471 10.436 260.183 10.916C259.907 11.396 259.769 11.924 259.769 12.5C259.769 13.076 259.907 13.61 260.183 14.102C260.471 14.582 260.855 14.966 261.335 15.254C261.827 15.53 262.361 15.668 262.937 15.668ZM270.821 15.092C270.821 15.296 270.863 15.44 270.947 15.524C271.043 15.596 271.187 15.632 271.379 15.632C271.487 15.632 271.589 15.626 271.685 15.614C271.781 15.602 271.871 15.59 271.955 15.578V17C271.571 17.06 271.247 17.09 270.983 17.09C270.443 17.09 270.023 16.952 269.723 16.676C269.423 16.388 269.273 15.89 269.273 15.182V4.4H270.821V15.092ZM274.529 5.948C274.229 5.948 273.989 5.864 273.809 5.696C273.629 5.528 273.539 5.294 273.539 4.994C273.539 4.706 273.629 4.478 273.809 4.31C273.989 4.13 274.229 4.04 274.529 4.04C274.829 4.04 275.069 4.13 275.249 4.31C275.429 4.478 275.519 4.706 275.519 4.994C275.519 5.294 275.429 5.528 275.249 5.696C275.081 5.864 274.841 5.948 274.529 5.948ZM273.755 17V8H275.303V17H273.755ZM281.534 17.216C280.682 17.216 279.896 17.006 279.176 16.586C278.456 16.166 277.88 15.596 277.448 14.876C277.028 14.144 276.818 13.352 276.818 12.5C276.818 11.648 277.028 10.862 277.448 10.142C277.88 9.422 278.456 8.852 279.176 8.432C279.896 8.012 280.682 7.802 281.534 7.802C282.386 7.802 283.172 8.012 283.892 8.432C284.612 8.852 285.182 9.422 285.602 10.142C286.034 10.862 286.25 11.648 286.25 12.5C286.25 13.352 286.034 14.144 285.602 14.876C285.182 15.596 284.612 16.166 283.892 16.586C283.172 17.006 282.386 17.216 281.534 17.216ZM281.534 15.668C282.11 15.668 282.638 15.53 283.118 15.254C283.598 14.966 283.976 14.582 284.252 14.102C284.54 13.61 284.684 13.076 284.684 12.5C284.684 11.924 284.54 11.396 284.252 10.916C283.976 10.436 283.598 10.058 283.118 9.782C282.638 9.494 282.11 9.35 281.534 9.35C280.958 9.35 280.424 9.494 279.932 9.782C279.452 10.058 279.068 10.436 278.78 10.916C278.504 11.396 278.366 11.924 278.366 12.5C278.366 13.076 278.504 13.61 278.78 14.102C279.068 14.582 279.452 14.966 279.932 15.254C280.424 15.53 280.958 15.668 281.534 15.668Z" fill="#757683"/>
<path d="M101.475 17.216C100.263 17.216 99.2435 16.946 98.4155 16.406C97.5875 15.866 97.0175 15.128 96.7055 14.192L98.1095 13.382C98.3495 14.078 98.7515 14.624 99.3155 15.02C99.8915 15.416 100.617 15.614 101.493 15.614C102.081 15.614 102.573 15.518 102.969 15.326C103.377 15.122 103.677 14.864 103.869 14.552C104.073 14.228 104.175 13.886 104.175 13.526C104.175 13.01 103.929 12.59 103.437 12.266C102.945 11.942 102.171 11.618 101.115 11.294C100.275 11.042 99.5855 10.79 99.0455 10.538C98.5175 10.286 98.0795 9.938 97.7315 9.494C97.3955 9.038 97.2275 8.45 97.2275 7.73C97.2275 7.022 97.4015 6.398 97.7495 5.858C98.1095 5.318 98.5895 4.904 99.1895 4.616C99.8015 4.328 100.467 4.184 101.187 4.184C102.183 4.184 103.047 4.43 103.779 4.922C104.511 5.402 105.069 6.062 105.453 6.902L104.031 7.694C103.779 7.094 103.413 6.632 102.933 6.308C102.453 5.972 101.871 5.804 101.187 5.804C100.479 5.804 99.9155 5.996 99.4955 6.38C99.0755 6.752 98.8655 7.202 98.8655 7.73C98.8655 8.114 98.9675 8.426 99.1715 8.666C99.3875 8.906 99.6755 9.11 100.035 9.278C100.407 9.434 100.953 9.626 101.673 9.854C102.585 10.142 103.317 10.424 103.869 10.7C104.421 10.964 104.883 11.33 105.255 11.798C105.627 12.266 105.813 12.866 105.813 13.598C105.813 14.33 105.627 14.972 105.255 15.524C104.883 16.064 104.367 16.484 103.707 16.784C103.059 17.072 102.315 17.216 101.475 17.216ZM111.512 7.784C112.388 7.784 113.168 8 113.852 8.432C114.536 8.852 115.064 9.428 115.436 10.16C115.82 10.88 116.012 11.666 116.012 12.518C116.012 12.614 116.006 12.722 115.994 12.842C115.982 12.95 115.97 13.04 115.958 13.112H108.38C108.5 13.916 108.848 14.576 109.424 15.092C110.012 15.596 110.756 15.848 111.656 15.848C112.208 15.848 112.73 15.722 113.222 15.47C113.726 15.218 114.098 14.906 114.338 14.534L115.562 15.254C115.166 15.878 114.626 16.364 113.942 16.712C113.27 17.048 112.502 17.216 111.638 17.216C110.69 17.216 109.85 17.012 109.118 16.604C108.386 16.196 107.816 15.638 107.408 14.93C107 14.21 106.796 13.4 106.796 12.5C106.796 11.612 106.994 10.814 107.39 10.106C107.798 9.386 108.356 8.822 109.064 8.414C109.784 7.994 110.6 7.784 111.512 7.784ZM114.536 11.852C114.416 11.012 114.092 10.352 113.564 9.872C113.036 9.392 112.352 9.152 111.512 9.152C110.924 9.152 110.39 9.278 109.91 9.53C109.43 9.782 109.052 10.118 108.776 10.538C108.5 10.946 108.356 11.384 108.344 11.852H114.536ZM121.995 7.802C122.139 7.802 122.247 7.808 122.319 7.82L122.193 9.296C122.049 9.272 121.935 9.26 121.851 9.26C121.083 9.26 120.435 9.494 119.907 9.962C119.391 10.43 119.133 11.108 119.133 11.996V17H117.585V8H119.133V9.548C119.337 9.056 119.685 8.642 120.177 8.306C120.681 7.97 121.287 7.802 121.995 7.802ZM127.367 15.218L130.211 8H131.867L128.339 17H126.413L122.867 8H124.523L127.367 15.218ZM134.055 5.948C133.755 5.948 133.515 5.864 133.335 5.696C133.155 5.528 133.065 5.294 133.065 4.994C133.065 4.706 133.155 4.478 133.335 4.31C133.515 4.13 133.755 4.04 134.055 4.04C134.355 4.04 134.595 4.13 134.775 4.31C134.955 4.478 135.045 4.706 135.045 4.994C135.045 5.294 134.955 5.528 134.775 5.696C134.607 5.864 134.367 5.948 134.055 5.948ZM133.281 17V8H134.829V17H133.281ZM144.877 15.254C144.445 15.854 143.893 16.334 143.221 16.694C142.561 17.042 141.841 17.216 141.061 17.216C140.209 17.216 139.423 17.006 138.703 16.586C137.983 16.166 137.407 15.596 136.975 14.876C136.555 14.144 136.345 13.352 136.345 12.5C136.345 11.648 136.555 10.862 136.975 10.142C137.407 9.422 137.983 8.852 138.703 8.432C139.423 8.012 140.209 7.802 141.061 7.802C141.829 7.802 142.543 7.976 143.203 8.324C143.863 8.672 144.415 9.14 144.859 9.728L143.581 10.592C143.269 10.196 142.897 9.89 142.465 9.674C142.033 9.458 141.565 9.35 141.061 9.35C140.485 9.35 139.957 9.494 139.477 9.782C138.997 10.058 138.613 10.436 138.325 10.916C138.049 11.396 137.911 11.924 137.911 12.5C137.911 13.076 138.049 13.61 138.325 14.102C138.613 14.582 138.997 14.966 139.477 15.254C139.957 15.53 140.485 15.668 141.061 15.668C141.565 15.668 142.033 15.56 142.465 15.344C142.909 15.116 143.281 14.804 143.581 14.408L144.877 15.254ZM150.518 7.784C151.394 7.784 152.174 8 152.858 8.432C153.542 8.852 154.07 9.428 154.442 10.16C154.826 10.88 155.018 11.666 155.018 12.518C155.018 12.614 155.012 12.722 155 12.842C154.988 12.95 154.976 13.04 154.964 13.112H147.386C147.506 13.916 147.854 14.576 148.43 15.092C149.018 15.596 149.762 15.848 150.662 15.848C151.214 15.848 151.736 15.722 152.228 15.47C152.732 15.218 153.104 14.906 153.344 14.534L154.568 15.254C154.172 15.878 153.632 16.364 152.948 16.712C152.276 17.048 151.508 17.216 150.644 17.216C149.696 17.216 148.856 17.012 148.124 16.604C147.392 16.196 146.822 15.638 146.414 14.93C146.006 14.21 145.802 13.4 145.802 12.5C145.802 11.612 146 10.814 146.396 10.106C146.804 9.386 147.362 8.822 148.07 8.414C148.79 7.994 149.606 7.784 150.518 7.784ZM153.542 11.852C153.422 11.012 153.098 10.352 152.57 9.872C152.042 9.392 151.358 9.152 150.518 9.152C149.93 9.152 149.396 9.278 148.916 9.53C148.436 9.782 148.058 10.118 147.782 10.538C147.506 10.946 147.362 11.384 147.35 11.852H153.542ZM157.833 10.466C157.833 10.814 157.995 11.066 158.319 11.222C158.655 11.378 159.189 11.546 159.921 11.726C160.629 11.894 161.205 12.062 161.649 12.23C162.105 12.398 162.489 12.662 162.801 13.022C163.125 13.382 163.287 13.868 163.287 14.48C163.287 15.308 162.945 15.974 162.261 16.478C161.577 16.97 160.719 17.216 159.687 17.216C158.763 17.216 157.983 17.036 157.347 16.676C156.711 16.316 156.249 15.812 155.961 15.164L157.239 14.498C157.431 14.978 157.737 15.338 158.157 15.578C158.577 15.806 159.087 15.92 159.687 15.92C160.251 15.92 160.737 15.794 161.145 15.542C161.565 15.29 161.775 14.942 161.775 14.498C161.775 14.222 161.673 13.994 161.469 13.814C161.277 13.634 161.031 13.496 160.731 13.4C160.443 13.304 160.029 13.184 159.489 13.04C158.805 12.872 158.247 12.71 157.815 12.554C157.395 12.386 157.029 12.14 156.717 11.816C156.417 11.492 156.267 11.054 156.267 10.502C156.267 9.974 156.417 9.506 156.717 9.098C157.017 8.678 157.425 8.354 157.941 8.126C158.457 7.898 159.033 7.784 159.669 7.784C160.425 7.784 161.091 7.946 161.667 8.27C162.255 8.594 162.705 9.044 163.017 9.62L161.739 10.268C161.559 9.884 161.295 9.59 160.947 9.386C160.599 9.17 160.173 9.062 159.669 9.062C159.105 9.062 158.655 9.194 158.319 9.458C157.995 9.71 157.833 10.046 157.833 10.466Z" fill="#757683"/>
<path d="M5.58877 17.216C4.37677 17.216 3.35677 16.946 2.52877 16.406C1.70077 15.866 1.13077 15.128 0.818766 14.192L2.22277 13.382C2.46277 14.078 2.86477 14.624 3.42877 15.02C4.00477 15.416 4.73077 15.614 5.60677 15.614C6.19477 15.614 6.68677 15.518 7.08277 15.326C7.49077 15.122 7.79077 14.864 7.98277 14.552C8.18677 14.228 8.28877 13.886 8.28877 13.526C8.28877 13.01 8.04277 12.59 7.55077 12.266C7.05877 11.942 6.28477 11.618 5.22877 11.294C4.38877 11.042 3.69877 10.79 3.15877 10.538C2.63077 10.286 2.19277 9.938 1.84477 9.494C1.50877 9.038 1.34077 8.45 1.34077 7.73C1.34077 7.022 1.51477 6.398 1.86277 5.858C2.22277 5.318 2.70277 4.904 3.30277 4.616C3.91477 4.328 4.58077 4.184 5.30077 4.184C6.29677 4.184 7.16077 4.43 7.89277 4.922C8.62477 5.402 9.18277 6.062 9.56677 6.902L8.14477 7.694C7.89277 7.094 7.52677 6.632 7.04677 6.308C6.56677 5.972 5.98477 5.804 5.30077 5.804C4.59277 5.804 4.02877 5.996 3.60877 6.38C3.18877 6.752 2.97877 7.202 2.97877 7.73C2.97877 8.114 3.08077 8.426 3.28477 8.666C3.50077 8.906 3.78877 9.11 4.14877 9.278C4.52077 9.434 5.06677 9.626 5.78677 9.854C6.69877 10.142 7.43077 10.424 7.98277 10.7C8.53477 10.964 8.99677 11.33 9.36877 11.798C9.74077 12.266 9.92677 12.866 9.92677 13.598C9.92677 14.33 9.74077 14.972 9.36877 15.524C8.99677 16.064 8.48077 16.484 7.82077 16.784C7.17277 17.072 6.42877 17.216 5.58877 17.216ZM14.008 14.192C14.008 14.744 14.11 15.128 14.314 15.344C14.53 15.548 14.872 15.65 15.34 15.65C15.484 15.65 15.784 15.626 16.24 15.578V17C15.724 17.06 15.292 17.09 14.944 17.09C14.092 17.09 13.462 16.886 13.054 16.478C12.658 16.07 12.46 15.338 12.46 14.282V9.422H10.462V8H12.46V5.552L14.008 4.994V8H16.204V9.422H14.008V14.192ZM25.2463 8H26.8123V17H25.2463V15.65C24.8263 16.142 24.3223 16.532 23.7343 16.82C23.1583 17.096 22.5403 17.234 21.8803 17.234C21.0043 17.234 20.2183 17.03 19.5223 16.622C18.8263 16.202 18.2863 15.632 17.9023 14.912C17.5183 14.192 17.3263 13.394 17.3263 12.518C17.3263 11.63 17.5183 10.832 17.9023 10.124C18.2863 9.404 18.8203 8.84 19.5043 8.432C20.2003 8.012 20.9923 7.802 21.8803 7.802C22.5403 7.802 23.1583 7.946 23.7343 8.234C24.3223 8.51 24.8263 8.894 25.2463 9.386V8ZM22.0423 15.74C22.6303 15.74 23.1703 15.602 23.6623 15.326C24.1543 15.038 24.5383 14.648 24.8143 14.156C25.1023 13.664 25.2463 13.112 25.2463 12.5C25.2463 11.9 25.1023 11.36 24.8143 10.88C24.5383 10.388 24.1543 10.004 23.6623 9.728C23.1703 9.452 22.6303 9.314 22.0423 9.314C21.4543 9.314 20.9203 9.452 20.4403 9.728C19.9603 10.004 19.5823 10.388 19.3063 10.88C19.0303 11.372 18.8923 11.918 18.8923 12.518C18.8923 13.13 19.0303 13.682 19.3063 14.174C19.5823 14.654 19.9603 15.038 20.4403 15.326C20.9203 15.602 21.4543 15.74 22.0423 15.74ZM33.7544 7.802C33.8984 7.802 34.0064 7.808 34.0784 7.82L33.9524 9.296C33.8084 9.272 33.6944 9.26 33.6104 9.26C32.8424 9.26 32.1944 9.494 31.6664 9.962C31.1504 10.43 30.8924 11.108 30.8924 11.996V17H29.3444V8H30.8924V9.548C31.0964 9.056 31.4444 8.642 31.9364 8.306C32.4404 7.97 33.0464 7.802 33.7544 7.802ZM38.8283 14.192C38.8283 14.744 38.9303 15.128 39.1343 15.344C39.3503 15.548 39.6923 15.65 40.1603 15.65C40.3043 15.65 40.6043 15.626 41.0603 15.578V17C40.5443 17.06 40.1123 17.09 39.7643 17.09C38.9123 17.09 38.2823 16.886 37.8743 16.478C37.4783 16.07 37.2803 15.338 37.2803 14.282V9.422H35.2823V8H37.2803V5.552L38.8283 4.994V8H41.0243V9.422H38.8283V14.192Z" fill="#757683"/>
</svg>
