<svg width="801" height="327" viewBox="0 0 801 327" fill="none" xmlns="http://www.w3.org/2000/svg">
<path d="M34.4773 171.112L40.7653 147.4H47.2453L37.9813 181H31.2133L24.3013 158.056L17.3893 181H10.6213L1.35731 147.4H7.83731L14.1253 171.112L21.0373 147.4H27.5653L34.4773 171.112ZM58.9536 156.376C61.2576 156.376 63.3216 156.952 65.1456 158.104C67.0016 159.224 68.4416 160.744 69.4656 162.664C70.4896 164.584 71.0016 166.712 71.0016 169.048C71.0016 169.816 70.9376 170.52 70.8096 171.16H52.2816C52.7616 172.856 53.6096 174.184 54.8256 175.144C56.0416 176.072 57.5936 176.536 59.4816 176.536C60.6336 176.536 61.7376 176.28 62.7936 175.768C63.8816 175.256 64.6976 174.6 65.2416 173.8L69.8016 176.488C68.6816 178.152 67.2256 179.432 65.4336 180.328C63.6736 181.192 61.6416 181.624 59.3376 181.624C56.7776 181.624 54.5056 181.08 52.5216 179.992C50.5376 178.904 49.0016 177.4 47.9136 175.48C46.8576 173.56 46.3296 171.4 46.3296 169C46.3296 166.632 46.8576 164.488 47.9136 162.568C49.0016 160.648 50.5056 159.144 52.4256 158.056C54.3456 156.936 56.5216 156.376 58.9536 156.376ZM65.4336 166.504C65.1776 164.968 64.4576 163.768 63.2736 162.904C62.1216 162.008 60.6656 161.56 58.9056 161.56C57.6896 161.56 56.5696 161.784 55.5456 162.232C54.5536 162.68 53.7536 163.288 53.1456 164.056C52.5376 164.824 52.2176 165.64 52.1856 166.504H65.4336ZM77.6728 155.272C76.7128 155.048 76.0728 154.728 75.7528 154.312C75.4648 153.864 75.3208 153.08 75.3208 151.96C75.3208 150.84 75.6088 149.992 76.1848 149.416C76.7928 148.808 77.6408 148.504 78.7288 148.504C79.7848 148.504 80.6168 148.808 81.2248 149.416C81.8648 150.024 82.1848 150.872 82.1848 151.96C82.1848 153.208 82.0408 154.232 81.7528 155.032C81.4648 155.8 80.9208 156.76 80.1208 157.912L77.6728 161.176L75.8008 159.592L77.6728 155.272ZM101.914 156.52L101.482 162.136C101.29 162.072 100.954 162.04 100.474 162.04C98.4899 162.04 96.8419 162.616 95.5299 163.768C94.2499 164.92 93.6099 166.488 93.6099 168.472V181H87.6579V157H93.6099V161.032C94.1539 159.752 95.0819 158.68 96.3939 157.816C97.7059 156.952 99.2899 156.52 101.146 156.52H101.914ZM115.813 156.376C118.117 156.376 120.181 156.952 122.005 158.104C123.861 159.224 125.301 160.744 126.325 162.664C127.349 164.584 127.861 166.712 127.861 169.048C127.861 169.816 127.797 170.52 127.669 171.16H109.141C109.621 172.856 110.469 174.184 111.685 175.144C112.901 176.072 114.453 176.536 116.341 176.536C117.493 176.536 118.597 176.28 119.653 175.768C120.741 175.256 121.557 174.6 122.101 173.8L126.661 176.488C125.541 178.152 124.085 179.432 122.293 180.328C120.533 181.192 118.501 181.624 116.197 181.624C113.637 181.624 111.365 181.08 109.381 179.992C107.397 178.904 105.861 177.4 104.773 175.48C103.717 173.56 103.189 171.4 103.189 169C103.189 166.632 103.717 164.488 104.773 162.568C105.861 160.648 107.365 159.144 109.285 158.056C111.205 156.936 113.381 156.376 115.813 156.376ZM122.293 166.504C122.037 164.968 121.317 163.768 120.133 162.904C118.981 162.008 117.525 161.56 115.765 161.56C114.549 161.56 113.429 161.784 112.405 162.232C111.413 162.68 110.613 163.288 110.005 164.056C109.397 164.824 109.077 165.64 109.045 166.504H122.293ZM173.884 181H167.212L164.716 174.232H151.42L148.924 181H142.204L154.684 147.4H161.404L173.884 181ZM158.092 156.376L153.628 168.28H162.508L158.092 156.376ZM184.028 173.8L190.316 157H196.604L187.676 181H180.38L171.452 157H177.74L184.028 173.8ZM217.333 157H223.285V181H217.333V178.648C216.213 179.608 214.981 180.36 213.637 180.904C212.325 181.416 210.933 181.672 209.461 181.672C207.029 181.672 204.901 181.128 203.077 180.04C201.253 178.952 199.845 177.448 198.853 175.528C197.893 173.608 197.413 171.448 197.413 169.048C197.413 166.648 197.893 164.488 198.853 162.568C199.845 160.648 201.253 159.144 203.077 158.056C204.901 156.936 207.029 156.376 209.461 156.376C210.933 156.376 212.325 156.648 213.637 157.192C214.981 157.704 216.213 158.44 217.333 159.4V157ZM210.229 175.96C211.541 175.96 212.725 175.672 213.781 175.096C214.869 174.488 215.717 173.656 216.325 172.6C216.965 171.544 217.285 170.344 217.285 169C217.285 166.984 216.597 165.336 215.221 164.056C213.877 162.776 212.213 162.136 210.229 162.136C208.213 162.136 206.549 162.792 205.237 164.104C203.957 165.384 203.317 167.032 203.317 169.048C203.317 171.064 203.957 172.728 205.237 174.04C206.549 175.32 208.213 175.96 210.229 175.96ZM232.48 153.016C231.36 153.016 230.48 152.712 229.84 152.104C229.2 151.496 228.88 150.664 228.88 149.608C228.88 148.52 229.2 147.672 229.84 147.064C230.48 146.456 231.36 146.152 232.48 146.152C233.6 146.152 234.48 146.456 235.12 147.064C235.76 147.672 236.08 148.52 236.08 149.608C236.08 150.632 235.744 151.464 235.072 152.104C234.432 152.712 233.568 153.016 232.48 153.016ZM229.456 181V157H235.408V181H229.456ZM247.313 174.232C247.313 174.744 247.441 175.112 247.697 175.336C247.953 175.56 248.353 175.672 248.897 175.672C249.313 175.672 249.809 175.624 250.385 175.528V181C249.201 181.192 248.097 181.288 247.073 181.288C245.217 181.288 243.793 180.808 242.801 179.848C241.841 178.856 241.361 177.112 241.361 174.616V147.4H247.313V174.232ZM272.786 157H278.738V181H272.786V178.648C271.666 179.608 270.434 180.36 269.09 180.904C267.778 181.416 266.386 181.672 264.914 181.672C262.482 181.672 260.354 181.128 258.53 180.04C256.706 178.952 255.298 177.448 254.306 175.528C253.346 173.608 252.866 171.448 252.866 169.048C252.866 166.648 253.346 164.488 254.306 162.568C255.298 160.648 256.706 159.144 258.53 158.056C260.354 156.936 262.482 156.376 264.914 156.376C266.386 156.376 267.778 156.648 269.09 157.192C270.434 157.704 271.666 158.44 272.786 159.4V157ZM265.682 175.96C266.994 175.96 268.178 175.672 269.234 175.096C270.322 174.488 271.17 173.656 271.778 172.6C272.418 171.544 272.738 170.344 272.738 169C272.738 166.984 272.05 165.336 270.674 164.056C269.33 162.776 267.666 162.136 265.682 162.136C263.666 162.136 262.002 162.792 260.69 164.104C259.41 165.384 258.77 167.032 258.77 169.048C258.77 171.064 259.41 172.728 260.69 174.04C262.002 175.32 263.666 175.96 265.682 175.96ZM299.165 156.376C301.597 156.376 303.725 156.936 305.549 158.056C307.373 159.144 308.765 160.648 309.725 162.568C310.717 164.488 311.213 166.648 311.213 169.048C311.213 171.448 310.717 173.608 309.725 175.528C308.765 177.448 307.373 178.952 305.549 180.04C303.725 181.128 301.597 181.672 299.165 181.672C297.597 181.672 296.093 181.368 294.653 180.76C293.213 180.152 291.933 179.304 290.813 178.216V181H284.861V147.4H290.813V159.832C291.933 158.744 293.213 157.896 294.653 157.288C296.125 156.68 297.629 156.376 299.165 156.376ZM298.397 175.96C300.413 175.96 302.061 175.32 303.341 174.04C304.653 172.728 305.309 171.064 305.309 169.048C305.309 167.032 304.653 165.384 303.341 164.104C302.061 162.792 300.413 162.136 298.397 162.136C296.413 162.136 294.733 162.776 293.357 164.056C292.013 165.336 291.341 166.984 291.341 169C291.341 170.344 291.645 171.544 292.253 172.6C292.893 173.656 293.741 174.488 294.797 175.096C295.885 175.672 297.085 175.96 298.397 175.96ZM321.376 174.232C321.376 174.744 321.504 175.112 321.76 175.336C322.016 175.56 322.416 175.672 322.96 175.672C323.376 175.672 323.872 175.624 324.448 175.528V181C323.264 181.192 322.16 181.288 321.136 181.288C319.28 181.288 317.856 180.808 316.864 179.848C315.904 178.856 315.424 177.112 315.424 174.616V147.4H321.376V174.232ZM339.079 156.376C341.383 156.376 343.447 156.952 345.271 158.104C347.127 159.224 348.567 160.744 349.591 162.664C350.615 164.584 351.127 166.712 351.127 169.048C351.127 169.816 351.063 170.52 350.935 171.16H332.407C332.887 172.856 333.735 174.184 334.951 175.144C336.167 176.072 337.719 176.536 339.607 176.536C340.759 176.536 341.863 176.28 342.919 175.768C344.007 175.256 344.823 174.6 345.367 173.8L349.927 176.488C348.807 178.152 347.351 179.432 345.559 180.328C343.799 181.192 341.767 181.624 339.463 181.624C336.903 181.624 334.631 181.08 332.647 179.992C330.663 178.904 329.127 177.4 328.039 175.48C326.983 173.56 326.455 171.4 326.455 169C326.455 166.632 326.983 164.488 328.039 162.568C329.127 160.648 330.631 159.144 332.551 158.056C334.471 156.936 336.647 156.376 339.079 156.376ZM345.559 166.504C345.303 164.968 344.583 163.768 343.399 162.904C342.247 162.008 340.791 161.56 339.031 161.56C337.815 161.56 336.695 161.784 335.671 162.232C334.679 162.68 333.879 163.288 333.271 164.056C332.663 164.824 332.343 165.64 332.311 166.504H345.559ZM381.55 152.44C380.75 152.344 380.03 152.296 379.39 152.296C378.27 152.296 377.454 152.504 376.942 152.92C376.43 153.336 376.174 154.104 376.174 155.224V157H381.502V162.328H376.174V181H370.222V162.328H366.238V157H370.222V154.84C370.222 151.8 370.846 149.704 372.094 148.552C373.342 147.368 375.23 146.776 377.758 146.776C378.75 146.776 380.014 146.856 381.55 147.016V152.44ZM395.375 181.672C393.103 181.672 390.991 181.112 389.039 179.992C387.119 178.84 385.583 177.304 384.431 175.384C383.311 173.432 382.751 171.32 382.751 169.048C382.751 166.776 383.311 164.68 384.431 162.76C385.583 160.808 387.119 159.272 389.039 158.152C390.991 157 393.103 156.424 395.375 156.424C397.647 156.424 399.743 157 401.663 158.152C403.615 159.272 405.151 160.808 406.271 162.76C407.423 164.68 407.999 166.776 407.999 169.048C407.999 171.32 407.423 173.432 406.271 175.384C405.151 177.304 403.615 178.84 401.663 179.992C399.743 181.112 397.647 181.672 395.375 181.672ZM395.327 175.72C396.543 175.72 397.663 175.432 398.687 174.856C399.711 174.248 400.527 173.432 401.135 172.408C401.743 171.384 402.047 170.264 402.047 169.048C402.047 167.832 401.743 166.712 401.135 165.688C400.527 164.664 399.711 163.848 398.687 163.24C397.663 162.632 396.543 162.328 395.327 162.328C394.111 162.328 392.991 162.632 391.967 163.24C390.943 163.848 390.127 164.664 389.519 165.688C388.943 166.712 388.655 167.832 388.655 169.048C388.655 170.264 388.943 171.384 389.519 172.408C390.127 173.432 390.943 174.248 391.967 174.856C392.991 175.432 394.111 175.72 395.327 175.72ZM426.055 156.52L425.623 162.136C425.431 162.072 425.095 162.04 424.615 162.04C422.631 162.04 420.983 162.616 419.671 163.768C418.391 164.92 417.751 166.488 417.751 168.472V181H411.799V157H417.751V161.032C418.295 159.752 419.223 158.68 420.535 157.816C421.847 156.952 423.431 156.52 425.287 156.52H426.055ZM462.809 147.4V153.352H448.985V161.416H462.281V167.368H448.985V181H442.697V147.4H462.809ZM482.023 156.52L481.591 162.136C481.399 162.072 481.063 162.04 480.583 162.04C478.599 162.04 476.951 162.616 475.639 163.768C474.359 164.92 473.719 166.488 473.719 168.472V181H467.767V157H473.719V161.032C474.263 159.752 475.191 158.68 476.503 157.816C477.815 156.952 479.399 156.52 481.255 156.52H482.023ZM495.922 156.376C498.226 156.376 500.29 156.952 502.114 158.104C503.97 159.224 505.41 160.744 506.434 162.664C507.458 164.584 507.97 166.712 507.97 169.048C507.97 169.816 507.906 170.52 507.778 171.16H489.25C489.73 172.856 490.578 174.184 491.794 175.144C493.01 176.072 494.562 176.536 496.45 176.536C497.602 176.536 498.706 176.28 499.762 175.768C500.85 175.256 501.666 174.6 502.21 173.8L506.77 176.488C505.65 178.152 504.194 179.432 502.402 180.328C500.642 181.192 498.61 181.624 496.306 181.624C493.746 181.624 491.474 181.08 489.49 179.992C487.506 178.904 485.97 177.4 484.882 175.48C483.826 173.56 483.298 171.4 483.298 169C483.298 166.632 483.826 164.488 484.882 162.568C485.97 160.648 487.474 159.144 489.394 158.056C491.314 156.936 493.49 156.376 495.922 156.376ZM502.402 166.504C502.146 164.968 501.426 163.768 500.242 162.904C499.09 162.008 497.634 161.56 495.874 161.56C494.658 161.56 493.538 161.784 492.514 162.232C491.522 162.68 490.722 163.288 490.114 164.056C489.506 164.824 489.186 165.64 489.154 166.504H502.402ZM523.016 156.376C525.32 156.376 527.384 156.952 529.208 158.104C531.064 159.224 532.504 160.744 533.528 162.664C534.552 164.584 535.064 166.712 535.064 169.048C535.064 169.816 535 170.52 534.872 171.16H516.344C516.824 172.856 517.672 174.184 518.888 175.144C520.104 176.072 521.656 176.536 523.544 176.536C524.696 176.536 525.8 176.28 526.856 175.768C527.944 175.256 528.76 174.6 529.304 173.8L533.864 176.488C532.744 178.152 531.288 179.432 529.496 180.328C527.736 181.192 525.704 181.624 523.4 181.624C520.84 181.624 518.568 181.08 516.584 179.992C514.6 178.904 513.064 177.4 511.976 175.48C510.92 173.56 510.392 171.4 510.392 169C510.392 166.632 510.92 164.488 511.976 162.568C513.064 160.648 514.568 159.144 516.488 158.056C518.408 156.936 520.584 156.376 523.016 156.376ZM529.496 166.504C529.24 164.968 528.52 163.768 527.336 162.904C526.184 162.008 524.728 161.56 522.968 161.56C521.752 161.56 520.632 161.784 519.608 162.232C518.616 162.68 517.816 163.288 517.208 164.056C516.6 164.824 516.28 165.64 516.248 166.504H529.496ZM544.782 174.232C544.782 174.744 544.91 175.112 545.166 175.336C545.422 175.56 545.822 175.672 546.366 175.672C546.782 175.672 547.278 175.624 547.854 175.528V181C546.67 181.192 545.566 181.288 544.542 181.288C542.686 181.288 541.262 180.808 540.27 179.848C539.31 178.856 538.83 177.112 538.83 174.616V147.4H544.782V174.232ZM570.255 157H576.207V181H570.255V178.648C569.135 179.608 567.903 180.36 566.559 180.904C565.247 181.416 563.855 181.672 562.383 181.672C559.951 181.672 557.823 181.128 555.999 180.04C554.175 178.952 552.767 177.448 551.775 175.528C550.815 173.608 550.335 171.448 550.335 169.048C550.335 166.648 550.815 164.488 551.775 162.568C552.767 160.648 554.175 159.144 555.999 158.056C557.823 156.936 559.951 156.376 562.383 156.376C563.855 156.376 565.247 156.648 566.559 157.192C567.903 157.704 569.135 158.44 570.255 159.4V157ZM563.151 175.96C564.463 175.96 565.647 175.672 566.703 175.096C567.791 174.488 568.639 173.656 569.247 172.6C569.887 171.544 570.207 170.344 570.207 169C570.207 166.984 569.519 165.336 568.143 164.056C566.799 162.776 565.135 162.136 563.151 162.136C561.135 162.136 559.471 162.792 558.159 164.104C556.879 165.384 556.239 167.032 556.239 169.048C556.239 171.064 556.879 172.728 558.159 174.04C559.471 175.32 561.135 175.96 563.151 175.96ZM594.522 156.376C595.93 156.376 597.354 156.68 598.794 157.288C600.266 157.864 601.514 158.92 602.538 160.456C603.594 161.992 604.122 164.056 604.122 166.648V181H598.17V166.648C598.17 164.856 597.658 163.576 596.634 162.808C595.642 162.008 594.474 161.608 593.13 161.608C591.786 161.608 590.634 162.088 589.674 163.048C588.746 163.976 588.282 165.48 588.282 167.56V181H582.33V157H588.282V159.016C589.146 158.216 590.106 157.576 591.162 157.096C592.218 156.616 593.338 156.376 594.522 156.376ZM630.413 176.344C629.229 177.976 627.741 179.272 625.949 180.232C624.157 181.192 622.221 181.672 620.141 181.672C617.869 181.672 615.757 181.112 613.805 179.992C611.885 178.84 610.349 177.304 609.197 175.384C608.077 173.432 607.517 171.32 607.517 169.048C607.517 166.776 608.077 164.68 609.197 162.76C610.349 160.808 611.885 159.272 613.805 158.152C615.757 157 617.869 156.424 620.141 156.424C622.189 156.424 624.109 156.904 625.901 157.864C627.693 158.792 629.181 160.056 630.365 161.656L625.469 164.968C623.965 163.208 622.189 162.328 620.141 162.328C618.925 162.328 617.805 162.632 616.781 163.24C615.757 163.848 614.941 164.664 614.333 165.688C613.725 166.712 613.421 167.832 613.421 169.048C613.421 170.264 613.725 171.384 614.333 172.408C614.941 173.432 615.757 174.248 616.781 174.856C617.805 175.432 618.925 175.72 620.141 175.72C622.189 175.72 623.965 174.84 625.469 173.08L630.413 176.344ZM644.938 156.376C647.242 156.376 649.306 156.952 651.13 158.104C652.986 159.224 654.426 160.744 655.45 162.664C656.474 164.584 656.986 166.712 656.986 169.048C656.986 169.816 656.922 170.52 656.794 171.16H638.266C638.746 172.856 639.594 174.184 640.81 175.144C642.026 176.072 643.578 176.536 645.466 176.536C646.618 176.536 647.722 176.28 648.778 175.768C649.866 175.256 650.682 174.6 651.226 173.8L655.786 176.488C654.666 178.152 653.21 179.432 651.418 180.328C649.658 181.192 647.626 181.624 645.322 181.624C642.762 181.624 640.49 181.08 638.506 179.992C636.522 178.904 634.986 177.4 633.898 175.48C632.842 173.56 632.314 171.4 632.314 169C632.314 166.632 632.842 164.488 633.898 162.568C634.986 160.648 636.49 159.144 638.41 158.056C640.33 156.936 642.506 156.376 644.938 156.376ZM651.418 166.504C651.162 164.968 650.442 163.768 649.258 162.904C648.106 162.008 646.65 161.56 644.89 161.56C643.674 161.56 642.554 161.784 641.53 162.232C640.538 162.68 639.738 163.288 639.13 164.056C638.522 164.824 638.202 165.64 638.17 166.504H651.418ZM704.977 171.112L711.265 147.4H717.745L708.481 181H701.713L694.801 158.056L687.889 181H681.121L671.857 147.4H678.337L684.625 171.112L691.537 147.4H698.065L704.977 171.112ZM729.5 181.672C727.228 181.672 725.116 181.112 723.164 179.992C721.244 178.84 719.708 177.304 718.556 175.384C717.436 173.432 716.876 171.32 716.876 169.048C716.876 166.776 717.436 164.68 718.556 162.76C719.708 160.808 721.244 159.272 723.164 158.152C725.116 157 727.228 156.424 729.5 156.424C731.772 156.424 733.868 157 735.788 158.152C737.74 159.272 739.276 160.808 740.396 162.76C741.548 164.68 742.124 166.776 742.124 169.048C742.124 171.32 741.548 173.432 740.396 175.384C739.276 177.304 737.74 178.84 735.788 179.992C733.868 181.112 731.772 181.672 729.5 181.672ZM729.452 175.72C730.668 175.72 731.788 175.432 732.812 174.856C733.836 174.248 734.652 173.432 735.26 172.408C735.868 171.384 736.172 170.264 736.172 169.048C736.172 167.832 735.868 166.712 735.26 165.688C734.652 164.664 733.836 163.848 732.812 163.24C731.788 162.632 730.668 162.328 729.452 162.328C728.236 162.328 727.116 162.632 726.092 163.24C725.068 163.848 724.252 164.664 723.644 165.688C723.068 166.712 722.78 167.832 722.78 169.048C722.78 170.264 723.068 171.384 723.644 172.408C724.252 173.432 725.068 174.248 726.092 174.856C727.116 175.432 728.236 175.72 729.452 175.72ZM760.18 156.52L759.748 162.136C759.556 162.072 759.22 162.04 758.74 162.04C756.756 162.04 755.108 162.616 753.796 163.768C752.516 164.92 751.876 166.488 751.876 168.472V181H745.924V157H751.876V161.032C752.42 159.752 753.348 158.68 754.66 157.816C755.972 156.952 757.556 156.52 759.412 156.52H760.18ZM787.774 181H780.334L773.614 172.024L770.11 175.864V181H764.158V147.4H770.11V167.128L779.134 157H787.438L777.646 167.656L787.774 181ZM791.201 178.312C791.201 177.288 791.473 176.504 792.017 175.96C792.593 175.384 793.393 175.096 794.417 175.096C795.441 175.096 796.225 175.384 796.769 175.96C797.313 176.504 797.585 177.288 797.585 178.312C797.585 179.336 797.313 180.136 796.769 180.712C796.225 181.288 795.441 181.576 794.417 181.576C793.393 181.576 792.593 181.288 792.017 180.712C791.473 180.136 791.201 179.336 791.201 178.312Z" fill="#1B1C23"/>
<path d="M53.6257 14.4V42.048H67.7857V48H47.3377V14.4H53.6257ZM81.6723 23.376C83.9763 23.376 86.0403 23.952 87.8643 25.104C89.7203 26.224 91.1603 27.744 92.1843 29.664C93.2083 31.584 93.7203 33.712 93.7203 36.048C93.7203 36.816 93.6563 37.52 93.5283 38.16H75.0003C75.4803 39.856 76.3283 41.184 77.5443 42.144C78.7603 43.072 80.3123 43.536 82.2003 43.536C83.3523 43.536 84.4563 43.28 85.5123 42.768C86.6003 42.256 87.4163 41.6 87.9603 40.8L92.5203 43.488C91.4003 45.152 89.9443 46.432 88.1523 47.328C86.3923 48.192 84.3603 48.624 82.0563 48.624C79.4963 48.624 77.2243 48.08 75.2403 46.992C73.2563 45.904 71.7203 44.4 70.6323 42.48C69.5763 40.56 69.0483 38.4 69.0483 36C69.0483 33.632 69.5763 31.488 70.6323 29.568C71.7203 27.648 73.2243 26.144 75.1443 25.056C77.0643 23.936 79.2403 23.376 81.6723 23.376ZM88.1523 33.504C87.8963 31.968 87.1763 30.768 85.9923 29.904C84.8403 29.008 83.3843 28.56 81.6243 28.56C80.4083 28.56 79.2883 28.784 78.2643 29.232C77.2723 29.68 76.4723 30.288 75.8643 31.056C75.2563 31.824 74.9363 32.64 74.9043 33.504H88.1523ZM105.556 39.792C105.556 40.88 105.812 41.632 106.324 42.048C106.836 42.464 107.652 42.672 108.772 42.672C109.444 42.672 110.18 42.624 110.98 42.528V48C109.476 48.16 108.228 48.24 107.236 48.24C104.676 48.24 102.756 47.664 101.476 46.512C100.228 45.328 99.6037 43.216 99.6037 40.176V29.328H95.0917V24H99.6037V18.096L105.556 16.08V24H110.884V29.328H105.556V39.792ZM155.254 14.496V14.4H161.494V48H155.254V25.824L145.942 41.424H144.406L135.094 25.824V48H128.806V14.4H135.094V14.496L135.238 14.4L145.174 31.152L155.11 14.4L155.254 14.496ZM179.313 23.376C181.617 23.376 183.681 23.952 185.505 25.104C187.361 26.224 188.801 27.744 189.825 29.664C190.849 31.584 191.361 33.712 191.361 36.048C191.361 36.816 191.297 37.52 191.169 38.16H172.641C173.121 39.856 173.969 41.184 175.185 42.144C176.401 43.072 177.953 43.536 179.841 43.536C180.993 43.536 182.097 43.28 183.153 42.768C184.241 42.256 185.057 41.6 185.601 40.8L190.161 43.488C189.041 45.152 187.585 46.432 185.793 47.328C184.033 48.192 182.001 48.624 179.697 48.624C177.137 48.624 174.865 48.08 172.881 46.992C170.897 45.904 169.361 44.4 168.273 42.48C167.217 40.56 166.689 38.4 166.689 36C166.689 33.632 167.217 31.488 168.273 29.568C169.361 27.648 170.865 26.144 172.785 25.056C174.705 23.936 176.881 23.376 179.313 23.376ZM185.793 33.504C185.537 31.968 184.817 30.768 183.633 29.904C182.481 29.008 181.025 28.56 179.265 28.56C178.049 28.56 176.929 28.784 175.905 29.232C174.913 29.68 174.113 30.288 173.505 31.056C172.897 31.824 172.577 32.64 172.545 33.504H185.793ZM232.008 48H224.568L217.848 39.024L214.344 42.864V48H208.392V14.4H214.344V34.128L223.368 24H231.672L221.88 34.656L232.008 48ZM247.772 23.376C249.18 23.376 250.604 23.68 252.044 24.288C253.516 24.864 254.764 25.92 255.788 27.456C256.844 28.992 257.372 31.056 257.372 33.648V48H251.42V33.648C251.42 31.856 250.908 30.576 249.884 29.808C248.892 29.008 247.724 28.608 246.38 28.608C245.036 28.608 243.884 29.088 242.924 30.048C241.996 30.976 241.532 32.48 241.532 34.56V48H235.58V24H241.532V26.016C242.396 25.216 243.356 24.576 244.412 24.096C245.468 23.616 246.588 23.376 247.772 23.376ZM274.329 48.672C272.057 48.672 269.945 48.112 267.993 46.992C266.073 45.84 264.537 44.304 263.385 42.384C262.265 40.432 261.705 38.32 261.705 36.048C261.705 33.776 262.265 31.68 263.385 29.76C264.537 27.808 266.073 26.272 267.993 25.152C269.945 24 272.057 23.424 274.329 23.424C276.601 23.424 278.697 24 280.617 25.152C282.569 26.272 284.105 27.808 285.225 29.76C286.377 31.68 286.953 33.776 286.953 36.048C286.953 38.32 286.377 40.432 285.225 42.384C284.105 44.304 282.569 45.84 280.617 46.992C278.697 48.112 276.601 48.672 274.329 48.672ZM274.281 42.72C275.497 42.72 276.617 42.432 277.641 41.856C278.665 41.248 279.481 40.432 280.089 39.408C280.697 38.384 281.001 37.264 281.001 36.048C281.001 34.832 280.697 33.712 280.089 32.688C279.481 31.664 278.665 30.848 277.641 30.24C276.617 29.632 275.497 29.328 274.281 29.328C273.065 29.328 271.945 29.632 270.921 30.24C269.897 30.848 269.081 31.664 268.473 32.688C267.897 33.712 267.609 34.832 267.609 36.048C267.609 37.264 267.897 38.384 268.473 39.408C269.081 40.432 269.897 41.248 270.921 41.856C271.945 42.432 273.065 42.72 274.281 42.72ZM313.043 38.544L317.507 24H323.747L315.971 48H310.067L305.555 33.744L301.043 48H295.235L287.651 24H293.843L298.163 38.448L302.387 24H308.723L313.043 38.544ZM342.949 20.016C341.829 20.016 340.949 19.712 340.309 19.104C339.669 18.496 339.349 17.664 339.349 16.608C339.349 15.52 339.669 14.672 340.309 14.064C340.949 13.456 341.829 13.152 342.949 13.152C344.069 13.152 344.949 13.456 345.589 14.064C346.229 14.672 346.549 15.52 346.549 16.608C346.549 17.632 346.213 18.464 345.541 19.104C344.901 19.712 344.037 20.016 342.949 20.016ZM339.925 48V24H345.877V48H339.925ZM365.222 19.44C364.422 19.344 363.702 19.296 363.062 19.296C361.942 19.296 361.126 19.504 360.614 19.92C360.102 20.336 359.846 21.104 359.846 22.224V24H365.174V29.328H359.846V48H353.894V29.328H349.91V24H353.894V21.84C353.894 18.8 354.518 16.704 355.766 15.552C357.014 14.368 358.902 13.776 361.43 13.776C362.422 13.776 363.686 13.856 365.222 14.016V19.44ZM392.995 28.752L401.107 14.4H408.211L396.115 36V48H389.827V35.904L377.731 14.4H384.835L392.995 28.752ZM418.047 48.672C415.775 48.672 413.663 48.112 411.711 46.992C409.791 45.84 408.255 44.304 407.103 42.384C405.983 40.432 405.423 38.32 405.423 36.048C405.423 33.776 405.983 31.68 407.103 29.76C408.255 27.808 409.791 26.272 411.711 25.152C413.663 24 415.775 23.424 418.047 23.424C420.319 23.424 422.415 24 424.335 25.152C426.287 26.272 427.823 27.808 428.943 29.76C430.095 31.68 430.671 33.776 430.671 36.048C430.671 38.32 430.095 40.432 428.943 42.384C427.823 44.304 426.287 45.84 424.335 46.992C422.415 48.112 420.319 48.672 418.047 48.672ZM417.999 42.72C419.215 42.72 420.335 42.432 421.359 41.856C422.383 41.248 423.199 40.432 423.807 39.408C424.415 38.384 424.719 37.264 424.719 36.048C424.719 34.832 424.415 33.712 423.807 32.688C423.199 31.664 422.383 30.848 421.359 30.24C420.335 29.632 419.215 29.328 417.999 29.328C416.783 29.328 415.663 29.632 414.639 30.24C413.615 30.848 412.799 31.664 412.191 32.688C411.615 33.712 411.327 34.832 411.327 36.048C411.327 37.264 411.615 38.384 412.191 39.408C412.799 40.432 413.615 41.248 414.639 41.856C415.663 42.432 416.783 42.72 417.999 42.72ZM449.59 24H455.542V48H449.59V45.984C448.726 46.784 447.766 47.424 446.71 47.904C445.654 48.384 444.534 48.624 443.35 48.624C441.942 48.624 440.502 48.336 439.03 47.76C437.59 47.152 436.342 46.08 435.286 44.544C434.262 43.008 433.75 40.944 433.75 38.352V24H439.702V38.352C439.702 40.144 440.198 41.44 441.19 42.24C442.214 43.008 443.398 43.392 444.742 43.392C446.086 43.392 447.222 42.928 448.15 42C449.11 41.04 449.59 39.52 449.59 37.44V24ZM504.993 38.112L511.281 14.4H517.761L508.497 48H501.729L494.817 25.056L487.905 48H481.137L471.873 14.4H478.353L484.641 38.112L491.553 14.4H498.081L504.993 38.112ZM537.99 24H543.942V48H537.99V45.648C536.87 46.608 535.638 47.36 534.294 47.904C532.982 48.416 531.59 48.672 530.118 48.672C527.686 48.672 525.558 48.128 523.734 47.04C521.91 45.952 520.502 44.448 519.51 42.528C518.55 40.608 518.07 38.448 518.07 36.048C518.07 33.648 518.55 31.488 519.51 29.568C520.502 27.648 521.91 26.144 523.734 25.056C525.558 23.936 527.686 23.376 530.118 23.376C531.59 23.376 532.982 23.648 534.294 24.192C535.638 24.704 536.87 25.44 537.99 26.4V24ZM530.886 42.96C532.198 42.96 533.382 42.672 534.438 42.096C535.526 41.488 536.374 40.656 536.982 39.6C537.622 38.544 537.942 37.344 537.942 36C537.942 33.984 537.254 32.336 535.878 31.056C534.534 29.776 532.87 29.136 530.886 29.136C528.87 29.136 527.206 29.792 525.894 31.104C524.614 32.384 523.974 34.032 523.974 36.048C523.974 38.064 524.614 39.728 525.894 41.04C527.206 42.32 528.87 42.96 530.886 42.96ZM562.256 23.376C563.664 23.376 565.088 23.68 566.528 24.288C568 24.864 569.248 25.92 570.272 27.456C571.328 28.992 571.856 31.056 571.856 33.648V48H565.904V33.648C565.904 31.856 565.392 30.576 564.368 29.808C563.376 29.008 562.208 28.608 560.864 28.608C559.52 28.608 558.368 29.088 557.408 30.048C556.48 30.976 556.016 32.48 556.016 34.56V48H550.064V24H556.016V26.016C556.88 25.216 557.84 24.576 558.896 24.096C559.952 23.616 561.072 23.376 562.256 23.376ZM584.478 39.792C584.478 40.88 584.734 41.632 585.246 42.048C585.758 42.464 586.574 42.672 587.694 42.672C588.366 42.672 589.102 42.624 589.902 42.528V48C588.398 48.16 587.15 48.24 586.158 48.24C583.598 48.24 581.678 47.664 580.398 46.512C579.15 45.328 578.526 43.216 578.526 40.176V29.328H574.014V24H578.526V18.096L584.478 16.08V24H589.806V29.328H584.478V39.792ZM615.696 39.792C615.696 40.88 615.952 41.632 616.464 42.048C616.976 42.464 617.792 42.672 618.912 42.672C619.584 42.672 620.32 42.624 621.12 42.528V48C619.616 48.16 618.368 48.24 617.376 48.24C614.816 48.24 612.896 47.664 611.616 46.512C610.368 45.328 609.744 43.216 609.744 40.176V29.328H605.232V24H609.744V18.096L615.696 16.08V24H621.024V29.328H615.696V39.792ZM636.391 48.672C634.119 48.672 632.007 48.112 630.055 46.992C628.135 45.84 626.599 44.304 625.447 42.384C624.327 40.432 623.767 38.32 623.767 36.048C623.767 33.776 624.327 31.68 625.447 29.76C626.599 27.808 628.135 26.272 630.055 25.152C632.007 24 634.119 23.424 636.391 23.424C638.663 23.424 640.759 24 642.679 25.152C644.631 26.272 646.167 27.808 647.287 29.76C648.439 31.68 649.015 33.776 649.015 36.048C649.015 38.32 648.439 40.432 647.287 42.384C646.167 44.304 644.631 45.84 642.679 46.992C640.759 48.112 638.663 48.672 636.391 48.672ZM636.343 42.72C637.559 42.72 638.679 42.432 639.703 41.856C640.727 41.248 641.543 40.432 642.151 39.408C642.759 38.384 643.063 37.264 643.063 36.048C643.063 34.832 642.759 33.712 642.151 32.688C641.543 31.664 640.727 30.848 639.703 30.24C638.679 29.632 637.559 29.328 636.343 29.328C635.127 29.328 634.007 29.632 632.983 30.24C631.959 30.848 631.143 31.664 630.535 32.688C629.959 33.712 629.671 34.832 629.671 36.048C629.671 37.264 629.959 38.384 630.535 39.408C631.143 40.432 631.959 41.248 632.983 41.856C634.007 42.432 635.127 42.72 636.343 42.72ZM688.496 14.4V20.352H679.232V48H672.992V20.352H663.776V14.4H688.496ZM706.036 24H711.988V48H706.036V45.648C704.916 46.608 703.684 47.36 702.34 47.904C701.028 48.416 699.636 48.672 698.164 48.672C695.732 48.672 693.604 48.128 691.78 47.04C689.956 45.952 688.548 44.448 687.556 42.528C686.596 40.608 686.116 38.448 686.116 36.048C686.116 33.648 686.596 31.488 687.556 29.568C688.548 27.648 689.956 26.144 691.78 25.056C693.604 23.936 695.732 23.376 698.164 23.376C699.636 23.376 701.028 23.648 702.34 24.192C703.684 24.704 704.916 25.44 706.036 26.4V24ZM698.932 42.96C700.244 42.96 701.428 42.672 702.484 42.096C703.572 41.488 704.42 40.656 705.028 39.6C705.668 38.544 705.988 37.344 705.988 36C705.988 33.984 705.3 32.336 703.924 31.056C702.58 29.776 700.916 29.136 698.932 29.136C696.916 29.136 695.252 29.792 693.94 31.104C692.66 32.384 692.02 34.032 692.02 36.048C692.02 38.064 692.66 39.728 693.94 41.04C695.252 42.32 696.916 42.96 698.932 42.96ZM723.36 41.232C723.36 41.744 723.488 42.112 723.744 42.336C724 42.56 724.4 42.672 724.944 42.672C725.36 42.672 725.856 42.624 726.432 42.528V48C725.248 48.192 724.144 48.288 723.12 48.288C721.264 48.288 719.84 47.808 718.848 46.848C717.888 45.856 717.408 44.112 717.408 41.616V14.4H723.36V41.232ZM754.571 48H747.131L740.411 39.024L736.907 42.864V48H730.955V14.4H736.907V34.128L745.931 24H754.235L744.443 34.656L754.571 48ZM218.025 112H211.353L208.857 105.232H195.561L193.065 112H186.345L198.825 78.4H205.545L218.025 112ZM202.233 87.376L197.769 99.28H206.649L202.233 87.376ZM235.774 87.376C238.206 87.376 240.334 87.936 242.158 89.056C243.982 90.144 245.374 91.648 246.334 93.568C247.326 95.488 247.822 97.648 247.822 100.048C247.822 102.448 247.326 104.608 246.334 106.528C245.374 108.448 243.982 109.952 242.158 111.04C240.334 112.128 238.206 112.672 235.774 112.672C234.206 112.672 232.702 112.368 231.262 111.76C229.822 111.152 228.542 110.304 227.422 109.216V112H221.47V78.4H227.422V90.832C228.542 89.744 229.822 88.896 231.262 88.288C232.734 87.68 234.238 87.376 235.774 87.376ZM235.006 106.96C237.022 106.96 238.67 106.32 239.95 105.04C241.262 103.728 241.918 102.064 241.918 100.048C241.918 98.032 241.262 96.384 239.95 95.104C238.67 93.792 237.022 93.136 235.006 93.136C233.022 93.136 231.342 93.776 229.966 95.056C228.622 96.336 227.95 97.984 227.95 100C227.95 101.344 228.254 102.544 228.862 103.6C229.502 104.656 230.35 105.488 231.406 106.096C232.494 106.672 233.694 106.96 235.006 106.96ZM263.313 112.672C261.041 112.672 258.929 112.112 256.977 110.992C255.057 109.84 253.521 108.304 252.369 106.384C251.249 104.432 250.689 102.32 250.689 100.048C250.689 97.776 251.249 95.68 252.369 93.76C253.521 91.808 255.057 90.272 256.977 89.152C258.929 88 261.041 87.424 263.313 87.424C265.585 87.424 267.681 88 269.601 89.152C271.553 90.272 273.089 91.808 274.209 93.76C275.361 95.68 275.937 97.776 275.937 100.048C275.937 102.32 275.361 104.432 274.209 106.384C273.089 108.304 271.553 109.84 269.601 110.992C267.681 112.112 265.585 112.672 263.313 112.672ZM263.265 106.72C264.481 106.72 265.601 106.432 266.625 105.856C267.649 105.248 268.465 104.432 269.073 103.408C269.681 102.384 269.985 101.264 269.985 100.048C269.985 98.832 269.681 97.712 269.073 96.688C268.465 95.664 267.649 94.848 266.625 94.24C265.601 93.632 264.481 93.328 263.265 93.328C262.049 93.328 260.929 93.632 259.905 94.24C258.881 94.848 258.065 95.664 257.457 96.688C256.881 97.712 256.593 98.832 256.593 100.048C256.593 101.264 256.881 102.384 257.457 103.408C258.065 104.432 258.881 105.248 259.905 105.856C260.929 106.432 262.049 106.72 263.265 106.72ZM294.856 88H300.808V112H294.856V109.984C293.992 110.784 293.032 111.424 291.976 111.904C290.92 112.384 289.8 112.624 288.616 112.624C287.208 112.624 285.768 112.336 284.296 111.76C282.856 111.152 281.608 110.08 280.552 108.544C279.528 107.008 279.016 104.944 279.016 102.352V88H284.968V102.352C284.968 104.144 285.464 105.44 286.456 106.24C287.48 107.008 288.664 107.392 290.008 107.392C291.352 107.392 292.488 106.928 293.416 106C294.376 105.04 294.856 103.52 294.856 101.44V88ZM314.103 103.792C314.103 104.88 314.359 105.632 314.871 106.048C315.383 106.464 316.199 106.672 317.319 106.672C317.991 106.672 318.727 106.624 319.527 106.528V112C318.023 112.16 316.775 112.24 315.783 112.24C313.223 112.24 311.303 111.664 310.023 110.512C308.775 109.328 308.151 107.216 308.151 104.176V93.328H303.639V88H308.151V82.096L314.103 80.08V88H319.431V93.328H314.103V103.792ZM349.401 92.752L357.513 78.4H364.617L352.521 100V112H346.233V99.904L334.137 78.4H341.241L349.401 92.752ZM374.454 112.672C372.182 112.672 370.07 112.112 368.118 110.992C366.198 109.84 364.662 108.304 363.51 106.384C362.39 104.432 361.83 102.32 361.83 100.048C361.83 97.776 362.39 95.68 363.51 93.76C364.662 91.808 366.198 90.272 368.118 89.152C370.07 88 372.182 87.424 374.454 87.424C376.726 87.424 378.822 88 380.742 89.152C382.694 90.272 384.23 91.808 385.35 93.76C386.502 95.68 387.078 97.776 387.078 100.048C387.078 102.32 386.502 104.432 385.35 106.384C384.23 108.304 382.694 109.84 380.742 110.992C378.822 112.112 376.726 112.672 374.454 112.672ZM374.406 106.72C375.622 106.72 376.742 106.432 377.766 105.856C378.79 105.248 379.606 104.432 380.214 103.408C380.822 102.384 381.126 101.264 381.126 100.048C381.126 98.832 380.822 97.712 380.214 96.688C379.606 95.664 378.79 94.848 377.766 94.24C376.742 93.632 375.622 93.328 374.406 93.328C373.19 93.328 372.07 93.632 371.046 94.24C370.022 94.848 369.206 95.664 368.598 96.688C368.022 97.712 367.734 98.832 367.734 100.048C367.734 101.264 368.022 102.384 368.598 103.408C369.206 104.432 370.022 105.248 371.046 105.856C372.07 106.432 373.19 106.72 374.406 106.72ZM405.997 88H411.949V112H405.997V109.984C405.133 110.784 404.173 111.424 403.117 111.904C402.061 112.384 400.941 112.624 399.757 112.624C398.349 112.624 396.909 112.336 395.437 111.76C393.997 111.152 392.749 110.08 391.693 108.544C390.669 107.008 390.157 104.944 390.157 102.352V88H396.109V102.352C396.109 104.144 396.605 105.44 397.597 106.24C398.621 107.008 399.805 107.392 401.149 107.392C402.493 107.392 403.629 106.928 404.557 106C405.517 105.04 405.997 103.52 405.997 101.44V88ZM432.367 87.52L431.935 93.136C431.743 93.072 431.407 93.04 430.927 93.04C428.943 93.04 427.295 93.616 425.983 94.768C424.703 95.92 424.063 97.488 424.063 99.472V112H418.111V88H424.063V92.032C424.607 90.752 425.535 89.68 426.847 88.816C428.159 87.952 429.743 87.52 431.599 87.52H432.367ZM461.25 78.4C463.234 78.4 465.074 78.896 466.77 79.888C468.466 80.848 469.794 82.176 470.754 83.872C471.746 85.568 472.242 87.408 472.242 89.392C472.242 91.376 471.746 93.216 470.754 94.912C469.794 96.576 468.466 97.904 466.77 98.896C465.074 99.888 463.234 100.384 461.25 100.384H455.298V112H449.01V78.4H461.25ZM461.25 94.384C462.626 94.384 463.794 93.904 464.754 92.944C465.746 91.952 466.242 90.768 466.242 89.392C466.242 88.016 465.746 86.832 464.754 85.84C463.794 84.848 462.626 84.352 461.25 84.352H455.298V94.384H461.25ZM490.773 87.52L490.341 93.136C490.149 93.072 489.813 93.04 489.333 93.04C487.349 93.04 485.701 93.616 484.389 94.768C483.109 95.92 482.469 97.488 482.469 99.472V112H476.517V88H482.469V92.032C483.013 90.752 483.941 89.68 485.253 88.816C486.565 87.952 488.149 87.52 490.005 87.52H490.773ZM504.532 112.672C502.26 112.672 500.148 112.112 498.196 110.992C496.276 109.84 494.74 108.304 493.588 106.384C492.468 104.432 491.908 102.32 491.908 100.048C491.908 97.776 492.468 95.68 493.588 93.76C494.74 91.808 496.276 90.272 498.196 89.152C500.148 88 502.26 87.424 504.532 87.424C506.804 87.424 508.9 88 510.82 89.152C512.772 90.272 514.308 91.808 515.428 93.76C516.58 95.68 517.156 97.776 517.156 100.048C517.156 102.32 516.58 104.432 515.428 106.384C514.308 108.304 512.772 109.84 510.82 110.992C508.9 112.112 506.804 112.672 504.532 112.672ZM504.484 106.72C505.7 106.72 506.82 106.432 507.844 105.856C508.868 105.248 509.684 104.432 510.292 103.408C510.9 102.384 511.204 101.264 511.204 100.048C511.204 98.832 510.9 97.712 510.292 96.688C509.684 95.664 508.868 94.848 507.844 94.24C506.82 93.632 505.7 93.328 504.484 93.328C503.268 93.328 502.148 93.632 501.124 94.24C500.1 94.848 499.284 95.664 498.676 96.688C498.1 97.712 497.812 98.832 497.812 100.048C497.812 101.264 498.1 102.384 498.676 103.408C499.284 104.432 500.1 105.248 501.124 105.856C502.148 106.432 503.268 106.72 504.484 106.72ZM524.519 84.592C523.431 84.592 522.551 84.288 521.879 83.68C521.239 83.04 520.919 82.192 520.919 81.136C520.919 80.08 521.239 79.248 521.879 78.64C522.519 78.032 523.399 77.728 524.519 77.728C525.639 77.728 526.519 78.032 527.159 78.64C527.799 79.248 528.119 80.08 528.119 81.136C528.119 82.192 527.799 83.04 527.159 83.68C526.519 84.288 525.639 84.592 524.519 84.592ZM521.543 88H527.495V113.008C527.495 115.024 527.031 116.752 526.103 118.192C525.207 119.632 523.943 120.704 522.311 121.408C520.679 122.112 518.807 122.384 516.695 122.224V116.512C516.951 116.544 517.303 116.56 517.751 116.56C519.063 116.56 520.023 116.272 520.631 115.696C521.239 115.152 521.543 114.256 521.543 113.008V88ZM543.954 87.376C546.258 87.376 548.322 87.952 550.146 89.104C552.002 90.224 553.442 91.744 554.466 93.664C555.49 95.584 556.002 97.712 556.002 100.048C556.002 100.816 555.938 101.52 555.81 102.16H537.282C537.762 103.856 538.61 105.184 539.826 106.144C541.042 107.072 542.594 107.536 544.482 107.536C545.634 107.536 546.738 107.28 547.794 106.768C548.882 106.256 549.698 105.6 550.242 104.8L554.802 107.488C553.682 109.152 552.226 110.432 550.434 111.328C548.674 112.192 546.642 112.624 544.338 112.624C541.778 112.624 539.506 112.08 537.522 110.992C535.538 109.904 534.002 108.4 532.914 106.48C531.858 104.56 531.33 102.4 531.33 100C531.33 97.632 531.858 95.488 532.914 93.568C534.002 91.648 535.506 90.144 537.426 89.056C539.346 87.936 541.522 87.376 543.954 87.376ZM550.434 97.504C550.178 95.968 549.458 94.768 548.274 93.904C547.122 93.008 545.666 92.56 543.906 92.56C542.69 92.56 541.57 92.784 540.546 93.232C539.554 93.68 538.754 94.288 538.146 95.056C537.538 95.824 537.218 96.64 537.186 97.504H550.434ZM581.319 107.344C580.135 108.976 578.647 110.272 576.855 111.232C575.063 112.192 573.127 112.672 571.047 112.672C568.775 112.672 566.663 112.112 564.711 110.992C562.791 109.84 561.255 108.304 560.103 106.384C558.983 104.432 558.423 102.32 558.423 100.048C558.423 97.776 558.983 95.68 560.103 93.76C561.255 91.808 562.791 90.272 564.711 89.152C566.663 88 568.775 87.424 571.047 87.424C573.095 87.424 575.015 87.904 576.807 88.864C578.599 89.792 580.087 91.056 581.271 92.656L576.375 95.968C574.871 94.208 573.095 93.328 571.047 93.328C569.831 93.328 568.711 93.632 567.687 94.24C566.663 94.848 565.847 95.664 565.239 96.688C564.631 97.712 564.327 98.832 564.327 100.048C564.327 101.264 564.631 102.384 565.239 103.408C565.847 104.432 566.663 105.248 567.687 105.856C568.711 106.432 569.831 106.72 571.047 106.72C573.095 106.72 574.871 105.84 576.375 104.08L581.319 107.344ZM593.243 103.792C593.243 104.88 593.499 105.632 594.011 106.048C594.523 106.464 595.339 106.672 596.459 106.672C597.131 106.672 597.867 106.624 598.667 106.528V112C597.163 112.16 595.915 112.24 594.923 112.24C592.363 112.24 590.443 111.664 589.163 110.512C587.915 109.328 587.291 107.216 587.291 104.176V93.328H582.779V88H587.291V82.096L593.243 80.08V88H598.571V93.328H593.243V103.792ZM603.686 109.312C603.686 108.288 603.958 107.504 604.502 106.96C605.078 106.384 605.878 106.096 606.902 106.096C607.926 106.096 608.71 106.384 609.254 106.96C609.798 107.504 610.07 108.288 610.07 109.312C610.07 110.336 609.798 111.136 609.254 111.712C608.71 112.288 607.926 112.576 606.902 112.576C605.878 112.576 605.078 112.288 604.502 111.712C603.958 111.136 603.686 110.336 603.686 109.312Z" fill="#1B1C23"/>
<path d="M688 311L708.352 290.647" stroke="#FF694B" stroke-width="6" stroke-linecap="square" stroke-linejoin="round"/>
<path d="M689.89 289L710.242 289L710.242 309.352" stroke="#FF694B" stroke-width="6" stroke-linecap="square" stroke-linejoin="round"/>
<path d="M98.9538 282.4V310.048H113.114V316H92.6658V282.4H98.9538ZM127 291.376C129.304 291.376 131.368 291.952 133.192 293.104C135.048 294.224 136.488 295.744 137.512 297.664C138.536 299.584 139.048 301.712 139.048 304.048C139.048 304.816 138.984 305.52 138.856 306.16H120.328C120.808 307.856 121.656 309.184 122.872 310.144C124.088 311.072 125.64 311.536 127.528 311.536C128.68 311.536 129.784 311.28 130.84 310.768C131.928 310.256 132.744 309.6 133.288 308.8L137.848 311.488C136.728 313.152 135.272 314.432 133.48 315.328C131.72 316.192 129.688 316.624 127.384 316.624C124.824 316.624 122.552 316.08 120.568 314.992C118.584 313.904 117.048 312.4 115.96 310.48C114.904 308.56 114.376 306.4 114.376 304C114.376 301.632 114.904 299.488 115.96 297.568C117.048 295.648 118.552 294.144 120.472 293.056C122.392 291.936 124.568 291.376 127 291.376ZM133.48 301.504C133.224 299.968 132.504 298.768 131.32 297.904C130.168 297.008 128.712 296.56 126.952 296.56C125.736 296.56 124.616 296.784 123.592 297.232C122.6 297.68 121.8 298.288 121.192 299.056C120.584 299.824 120.264 300.64 120.232 301.504H133.48ZM150.884 307.792C150.884 308.88 151.14 309.632 151.652 310.048C152.164 310.464 152.98 310.672 154.1 310.672C154.772 310.672 155.508 310.624 156.308 310.528V316C154.804 316.16 153.556 316.24 152.564 316.24C150.004 316.24 148.084 315.664 146.804 314.512C145.556 313.328 144.932 311.216 144.932 308.176V297.328H140.42V292H144.932V286.096L150.884 284.08V292H156.212V297.328H150.884V307.792ZM163.438 290.272C162.478 290.048 161.838 289.728 161.518 289.312C161.23 288.864 161.086 288.08 161.086 286.96C161.086 285.84 161.374 284.992 161.95 284.416C162.558 283.808 163.406 283.504 164.494 283.504C165.55 283.504 166.382 283.808 166.99 284.416C167.63 285.024 167.95 285.872 167.95 286.96C167.95 288.208 167.806 289.232 167.518 290.032C167.23 290.8 166.686 291.76 165.886 292.912L163.438 296.176L161.566 294.592L163.438 290.272ZM178.608 298.72C178.608 299.392 178.976 299.904 179.712 300.256C180.48 300.576 181.68 300.912 183.312 301.264C185.168 301.648 186.72 302.08 187.968 302.56C189.216 303.04 190.288 303.808 191.184 304.864C192.112 305.888 192.576 307.28 192.576 309.04C192.576 310.608 192.096 311.968 191.136 313.12C190.208 314.272 188.96 315.152 187.392 315.76C185.824 316.336 184.112 316.624 182.256 316.624C179.728 316.624 177.552 316.144 175.728 315.184C173.936 314.224 172.608 312.848 171.744 311.056L176.64 308.512C177.504 310.72 179.376 311.824 182.256 311.824C183.504 311.824 184.576 311.584 185.472 311.104C186.368 310.624 186.816 309.936 186.816 309.04C186.816 308.272 186.4 307.712 185.568 307.36C184.768 306.976 183.456 306.56 181.632 306.112C179.744 305.664 178.208 305.216 177.024 304.768C175.84 304.32 174.816 303.632 173.952 302.704C173.088 301.744 172.656 300.48 172.656 298.912C172.656 297.376 173.088 296.048 173.952 294.928C174.816 293.776 175.984 292.896 177.456 292.288C178.928 291.68 180.544 291.376 182.304 291.376C184.384 291.376 186.24 291.808 187.872 292.672C189.536 293.536 190.816 294.768 191.712 296.368L186.864 298.816C186.032 297.024 184.512 296.128 182.304 296.128C181.184 296.128 180.288 296.368 179.616 296.848C178.944 297.296 178.608 297.92 178.608 298.72ZM223.197 282.4C226.333 282.4 229.213 283.152 231.837 284.656C234.493 286.128 236.589 288.16 238.125 290.752C239.661 293.312 240.429 296.16 240.429 299.296C240.429 302.432 239.661 305.28 238.125 307.84C236.589 310.368 234.493 312.368 231.837 313.84C229.213 315.28 226.333 316 223.197 316H209.853V282.4H223.197ZM223.197 310.048C225.213 310.048 227.053 309.584 228.717 308.656C230.381 307.696 231.693 306.384 232.653 304.72C233.645 303.056 234.141 301.232 234.141 299.248C234.141 297.264 233.645 295.44 232.653 293.776C231.693 292.08 230.381 290.752 228.717 289.792C227.053 288.832 225.213 288.352 223.197 288.352H216.141V310.048H223.197ZM255.672 291.376C257.976 291.376 260.04 291.952 261.864 293.104C263.72 294.224 265.16 295.744 266.184 297.664C267.208 299.584 267.72 301.712 267.72 304.048C267.72 304.816 267.656 305.52 267.528 306.16H249C249.48 307.856 250.328 309.184 251.544 310.144C252.76 311.072 254.312 311.536 256.2 311.536C257.352 311.536 258.456 311.28 259.512 310.768C260.6 310.256 261.416 309.6 261.96 308.8L266.52 311.488C265.4 313.152 263.944 314.432 262.152 315.328C260.392 316.192 258.36 316.624 256.056 316.624C253.496 316.624 251.224 316.08 249.24 314.992C247.256 313.904 245.72 312.4 244.632 310.48C243.576 308.56 243.048 306.4 243.048 304C243.048 301.632 243.576 299.488 244.632 297.568C245.72 295.648 247.224 294.144 249.144 293.056C251.064 291.936 253.24 291.376 255.672 291.376ZM262.152 301.504C261.896 299.968 261.176 298.768 259.992 297.904C258.84 297.008 257.384 296.56 255.624 296.56C254.408 296.56 253.288 296.784 252.264 297.232C251.272 297.68 250.472 298.288 249.864 299.056C249.256 299.824 248.936 300.64 248.904 301.504H262.152ZM276.67 298.72C276.67 299.392 277.038 299.904 277.774 300.256C278.542 300.576 279.742 300.912 281.374 301.264C283.23 301.648 284.782 302.08 286.03 302.56C287.278 303.04 288.35 303.808 289.246 304.864C290.174 305.888 290.638 307.28 290.638 309.04C290.638 310.608 290.158 311.968 289.198 313.12C288.27 314.272 287.022 315.152 285.454 315.76C283.886 316.336 282.174 316.624 280.318 316.624C277.79 316.624 275.614 316.144 273.79 315.184C271.998 314.224 270.67 312.848 269.806 311.056L274.702 308.512C275.566 310.72 277.438 311.824 280.318 311.824C281.566 311.824 282.638 311.584 283.534 311.104C284.43 310.624 284.878 309.936 284.878 309.04C284.878 308.272 284.462 307.712 283.63 307.36C282.83 306.976 281.518 306.56 279.694 306.112C277.806 305.664 276.27 305.216 275.086 304.768C273.902 304.32 272.878 303.632 272.014 302.704C271.15 301.744 270.718 300.48 270.718 298.912C270.718 297.376 271.15 296.048 272.014 294.928C272.878 293.776 274.046 292.896 275.518 292.288C276.99 291.68 278.606 291.376 280.366 291.376C282.446 291.376 284.302 291.808 285.934 292.672C287.598 293.536 288.878 294.768 289.774 296.368L284.926 298.816C284.094 297.024 282.574 296.128 280.366 296.128C279.246 296.128 278.35 296.368 277.678 296.848C277.006 297.296 276.67 297.92 276.67 298.72ZM297.386 288.016C296.266 288.016 295.386 287.712 294.746 287.104C294.106 286.496 293.786 285.664 293.786 284.608C293.786 283.52 294.106 282.672 294.746 282.064C295.386 281.456 296.266 281.152 297.386 281.152C298.506 281.152 299.386 281.456 300.026 282.064C300.666 282.672 300.986 283.52 300.986 284.608C300.986 285.632 300.65 286.464 299.978 287.104C299.338 287.712 298.474 288.016 297.386 288.016ZM294.362 316V292H300.314V316H294.362ZM324.522 292H330.474V314.8C330.474 317.072 329.898 319.072 328.746 320.8C327.626 322.528 326.058 323.856 324.042 324.784C322.026 325.744 319.77 326.224 317.274 326.224C314.49 326.224 311.962 325.68 309.69 324.592C307.418 323.536 305.818 322.144 304.89 320.416L309.978 317.488C310.458 318.416 311.354 319.184 312.666 319.792C313.978 320.432 315.562 320.752 317.418 320.752C319.466 320.752 321.162 320.192 322.506 319.072C323.85 317.984 324.522 316.56 324.522 314.8V313.696C323.434 314.656 322.218 315.392 320.874 315.904C319.53 316.416 318.138 316.672 316.698 316.672C314.266 316.672 312.138 316.128 310.314 315.04C308.49 313.952 307.082 312.448 306.09 310.528C305.13 308.608 304.65 306.448 304.65 304.048C304.65 301.648 305.13 299.488 306.09 297.568C307.082 295.648 308.49 294.144 310.314 293.056C312.138 291.936 314.266 291.376 316.698 291.376C318.138 291.376 319.514 291.648 320.826 292.192C322.17 292.704 323.402 293.424 324.522 294.352V292ZM317.466 310.96C318.778 310.96 319.962 310.672 321.018 310.096C322.106 309.488 322.954 308.656 323.562 307.6C324.202 306.544 324.522 305.344 324.522 304C324.522 301.984 323.834 300.336 322.458 299.056C321.114 297.776 319.45 297.136 317.466 297.136C315.45 297.136 313.786 297.792 312.474 299.104C311.194 300.384 310.554 302.032 310.554 304.048C310.554 306.064 311.194 307.728 312.474 309.04C313.786 310.32 315.45 310.96 317.466 310.96ZM348.787 291.376C350.195 291.376 351.619 291.68 353.059 292.288C354.531 292.864 355.779 293.92 356.803 295.456C357.859 296.992 358.387 299.056 358.387 301.648V316H352.435V301.648C352.435 299.856 351.923 298.576 350.899 297.808C349.907 297.008 348.739 296.608 347.395 296.608C346.051 296.608 344.899 297.088 343.939 298.048C343.011 298.976 342.547 300.48 342.547 302.56V316H336.595V292H342.547V294.016C343.411 293.216 344.371 292.576 345.427 292.096C346.483 291.616 347.603 291.376 348.787 291.376ZM388.776 296.752L396.888 282.4H403.992L391.896 304V316H385.608V303.904L373.512 282.4H380.616L388.776 296.752ZM413.829 316.672C411.557 316.672 409.445 316.112 407.493 314.992C405.573 313.84 404.037 312.304 402.885 310.384C401.765 308.432 401.205 306.32 401.205 304.048C401.205 301.776 401.765 299.68 402.885 297.76C404.037 295.808 405.573 294.272 407.493 293.152C409.445 292 411.557 291.424 413.829 291.424C416.101 291.424 418.197 292 420.117 293.152C422.069 294.272 423.605 295.808 424.725 297.76C425.877 299.68 426.453 301.776 426.453 304.048C426.453 306.32 425.877 308.432 424.725 310.384C423.605 312.304 422.069 313.84 420.117 314.992C418.197 316.112 416.101 316.672 413.829 316.672ZM413.781 310.72C414.997 310.72 416.117 310.432 417.141 309.856C418.165 309.248 418.981 308.432 419.589 307.408C420.197 306.384 420.501 305.264 420.501 304.048C420.501 302.832 420.197 301.712 419.589 300.688C418.981 299.664 418.165 298.848 417.141 298.24C416.117 297.632 414.997 297.328 413.781 297.328C412.565 297.328 411.445 297.632 410.421 298.24C409.397 298.848 408.581 299.664 407.973 300.688C407.397 301.712 407.109 302.832 407.109 304.048C407.109 305.264 407.397 306.384 407.973 307.408C408.581 308.432 409.397 309.248 410.421 309.856C411.445 310.432 412.565 310.72 413.781 310.72ZM445.372 292H451.324V316H445.372V313.984C444.508 314.784 443.548 315.424 442.492 315.904C441.436 316.384 440.316 316.624 439.132 316.624C437.724 316.624 436.284 316.336 434.812 315.76C433.372 315.152 432.124 314.08 431.068 312.544C430.044 311.008 429.532 308.944 429.532 306.352V292H435.484V306.352C435.484 308.144 435.98 309.44 436.972 310.24C437.996 311.008 439.18 311.392 440.524 311.392C441.868 311.392 443.004 310.928 443.932 310C444.892 309.04 445.372 307.52 445.372 305.44V292ZM471.742 291.52L471.31 297.136C471.118 297.072 470.782 297.04 470.302 297.04C468.318 297.04 466.67 297.616 465.358 298.768C464.078 299.92 463.438 301.488 463.438 303.472V316H457.486V292H463.438V296.032C463.982 294.752 464.91 293.68 466.222 292.816C467.534 291.952 469.118 291.52 470.974 291.52H471.742ZM519.009 306.112L525.297 282.4H531.777L522.513 316H515.745L508.833 293.056L501.921 316H495.153L485.889 282.4H492.369L498.657 306.112L505.569 282.4H512.097L519.009 306.112ZM543.485 291.376C545.789 291.376 547.853 291.952 549.677 293.104C551.533 294.224 552.973 295.744 553.997 297.664C555.021 299.584 555.533 301.712 555.533 304.048C555.533 304.816 555.469 305.52 555.341 306.16H536.813C537.293 307.856 538.141 309.184 539.357 310.144C540.573 311.072 542.125 311.536 544.013 311.536C545.165 311.536 546.269 311.28 547.325 310.768C548.413 310.256 549.229 309.6 549.773 308.8L554.333 311.488C553.213 313.152 551.757 314.432 549.965 315.328C548.205 316.192 546.173 316.624 543.869 316.624C541.309 316.624 539.037 316.08 537.053 314.992C535.069 313.904 533.533 312.4 532.445 310.48C531.389 308.56 530.861 306.4 530.861 304C530.861 301.632 531.389 299.488 532.445 297.568C533.533 295.648 535.037 294.144 536.957 293.056C538.877 291.936 541.053 291.376 543.485 291.376ZM549.965 301.504C549.709 299.968 548.989 298.768 547.805 297.904C546.653 297.008 545.197 296.56 543.437 296.56C542.221 296.56 541.101 296.784 540.077 297.232C539.085 297.68 538.285 298.288 537.677 299.056C537.069 299.824 536.749 300.64 536.717 301.504H549.965ZM573.603 291.376C576.035 291.376 578.163 291.936 579.987 293.056C581.811 294.144 583.203 295.648 584.163 297.568C585.155 299.488 585.651 301.648 585.651 304.048C585.651 306.448 585.155 308.608 584.163 310.528C583.203 312.448 581.811 313.952 579.987 315.04C578.163 316.128 576.035 316.672 573.603 316.672C572.035 316.672 570.531 316.368 569.091 315.76C567.651 315.152 566.371 314.304 565.251 313.216V316H559.299V282.4H565.251V294.832C566.371 293.744 567.651 292.896 569.091 292.288C570.563 291.68 572.067 291.376 573.603 291.376ZM572.835 310.96C574.851 310.96 576.499 310.32 577.779 309.04C579.091 307.728 579.747 306.064 579.747 304.048C579.747 302.032 579.091 300.384 577.779 299.104C576.499 297.792 574.851 297.136 572.835 297.136C570.851 297.136 569.171 297.776 567.795 299.056C566.451 300.336 565.779 301.984 565.779 304C565.779 305.344 566.083 306.544 566.691 307.6C567.331 308.656 568.179 309.488 569.235 310.096C570.323 310.672 571.523 310.96 572.835 310.96ZM595.373 298.72C595.373 299.392 595.741 299.904 596.477 300.256C597.245 300.576 598.445 300.912 600.077 301.264C601.933 301.648 603.485 302.08 604.733 302.56C605.981 303.04 607.053 303.808 607.949 304.864C608.877 305.888 609.341 307.28 609.341 309.04C609.341 310.608 608.861 311.968 607.901 313.12C606.973 314.272 605.725 315.152 604.157 315.76C602.589 316.336 600.877 316.624 599.021 316.624C596.493 316.624 594.317 316.144 592.493 315.184C590.701 314.224 589.373 312.848 588.509 311.056L593.405 308.512C594.269 310.72 596.141 311.824 599.021 311.824C600.269 311.824 601.341 311.584 602.237 311.104C603.133 310.624 603.581 309.936 603.581 309.04C603.581 308.272 603.165 307.712 602.333 307.36C601.533 306.976 600.221 306.56 598.397 306.112C596.509 305.664 594.973 305.216 593.789 304.768C592.605 304.32 591.581 303.632 590.717 302.704C589.853 301.744 589.421 300.48 589.421 298.912C589.421 297.376 589.853 296.048 590.717 294.928C591.581 293.776 592.749 292.896 594.221 292.288C595.693 291.68 597.309 291.376 599.069 291.376C601.149 291.376 603.005 291.808 604.637 292.672C606.301 293.536 607.581 294.768 608.477 296.368L603.629 298.816C602.797 297.024 601.277 296.128 599.069 296.128C597.949 296.128 597.053 296.368 596.381 296.848C595.709 297.296 595.373 297.92 595.373 298.72ZM616.089 288.016C614.969 288.016 614.089 287.712 613.449 287.104C612.809 286.496 612.489 285.664 612.489 284.608C612.489 283.52 612.809 282.672 613.449 282.064C614.089 281.456 614.969 281.152 616.089 281.152C617.209 281.152 618.089 281.456 618.729 282.064C619.369 282.672 619.689 283.52 619.689 284.608C619.689 285.632 619.353 286.464 618.681 287.104C618.041 287.712 617.177 288.016 616.089 288.016ZM613.065 316V292H619.017V316H613.065ZM633.556 307.792C633.556 308.88 633.812 309.632 634.324 310.048C634.836 310.464 635.652 310.672 636.772 310.672C637.444 310.672 638.18 310.624 638.98 310.528V316C637.476 316.16 636.228 316.24 635.236 316.24C632.676 316.24 630.756 315.664 629.476 314.512C628.228 313.328 627.604 311.216 627.604 308.176V297.328H623.092V292H627.604V286.096L633.556 284.08V292H638.884V297.328H633.556V307.792ZM654.063 291.376C656.367 291.376 658.431 291.952 660.255 293.104C662.111 294.224 663.551 295.744 664.575 297.664C665.599 299.584 666.111 301.712 666.111 304.048C666.111 304.816 666.047 305.52 665.919 306.16H647.391C647.871 307.856 648.719 309.184 649.935 310.144C651.151 311.072 652.703 311.536 654.591 311.536C655.743 311.536 656.847 311.28 657.903 310.768C658.991 310.256 659.807 309.6 660.351 308.8L664.911 311.488C663.791 313.152 662.335 314.432 660.543 315.328C658.783 316.192 656.751 316.624 654.447 316.624C651.887 316.624 649.615 316.08 647.631 314.992C645.647 313.904 644.111 312.4 643.023 310.48C641.967 308.56 641.439 306.4 641.439 304C641.439 301.632 641.967 299.488 643.023 297.568C644.111 295.648 645.615 294.144 647.535 293.056C649.455 291.936 651.631 291.376 654.063 291.376ZM660.543 301.504C660.287 299.968 659.567 298.768 658.383 297.904C657.231 297.008 655.775 296.56 654.015 296.56C652.799 296.56 651.679 296.784 650.655 297.232C649.663 297.68 648.863 298.288 648.255 299.056C647.647 299.824 647.327 300.64 647.295 301.504H660.543Z" fill="#FF694B"/>
</svg>
