<svg width="271" height="24" viewBox="0 0 271 24" fill="none" xmlns="http://www.w3.org/2000/svg">
<path d="M4 4H20C21.1 4 22 4.9 22 6V18C22 19.1 21.1 20 20 20H4C2.9 20 2 19.1 2 18V6C2 4.9 2.9 4 4 4Z" stroke="#757683" stroke-width="2" stroke-linecap="round" stroke-linejoin="round"/>
<path d="M22 6L12 13L2 6" stroke="#757683" stroke-width="2" stroke-linecap="round" stroke-linejoin="round"/>
<path d="M36.034 6.948C35.734 6.948 35.494 6.864 35.314 6.696C35.134 6.528 35.044 6.294 35.044 5.994C35.044 5.706 35.134 5.478 35.314 5.31C35.494 5.13 35.734 5.04 36.034 5.04C36.334 5.04 36.574 5.13 36.754 5.31C36.934 5.478 37.024 5.706 37.024 5.994C37.024 6.294 36.934 6.528 36.754 6.696C36.586 6.864 36.346 6.948 36.034 6.948ZM35.26 18V9H36.808V18H35.26ZM43.4627 8.784C43.9907 8.784 44.5307 8.898 45.0827 9.126C45.6347 9.342 46.1087 9.738 46.5047 10.314C46.9007 10.878 47.0987 11.646 47.0987 12.618V18H45.5507V12.618C45.5507 11.742 45.3107 11.118 44.8307 10.746C44.3507 10.362 43.7867 10.17 43.1387 10.17C42.5147 10.17 41.9687 10.392 41.5007 10.836C41.0327 11.268 40.7987 11.982 40.7987 12.978V18H39.2507V9H40.7987V10.062C41.1227 9.678 41.5127 9.372 41.9687 9.144C42.4247 8.904 42.9227 8.784 43.4627 8.784ZM52.285 16.218L55.129 9H56.785L53.257 18H51.331L47.785 9H49.441L52.285 16.218ZM61.8125 8.784C62.6885 8.784 63.4685 9 64.1525 9.432C64.8365 9.852 65.3645 10.428 65.7365 11.16C66.1205 11.88 66.3125 12.666 66.3125 13.518C66.3125 13.614 66.3065 13.722 66.2945 13.842C66.2825 13.95 66.2705 14.04 66.2585 14.112H58.6805C58.8005 14.916 59.1485 15.576 59.7245 16.092C60.3125 16.596 61.0565 16.848 61.9565 16.848C62.5085 16.848 63.0305 16.722 63.5225 16.47C64.0265 16.218 64.3985 15.906 64.6385 15.534L65.8625 16.254C65.4665 16.878 64.9265 17.364 64.2425 17.712C63.5705 18.048 62.8025 18.216 61.9385 18.216C60.9905 18.216 60.1505 18.012 59.4185 17.604C58.6865 17.196 58.1165 16.638 57.7085 15.93C57.3005 15.21 57.0965 14.4 57.0965 13.5C57.0965 12.612 57.2945 11.814 57.6905 11.106C58.0985 10.386 58.6565 9.822 59.3645 9.414C60.0845 8.994 60.9005 8.784 61.8125 8.784ZM64.8365 12.852C64.7165 12.012 64.3925 11.352 63.8645 10.872C63.3365 10.392 62.6525 10.152 61.8125 10.152C61.2245 10.152 60.6905 10.278 60.2105 10.53C59.7305 10.782 59.3525 11.118 59.0765 11.538C58.8005 11.946 58.6565 12.384 58.6445 12.852H64.8365ZM72.0974 8.784C72.6254 8.784 73.1654 8.898 73.7174 9.126C74.2694 9.342 74.7434 9.738 75.1394 10.314C75.5354 10.878 75.7334 11.646 75.7334 12.618V18H74.1854V12.618C74.1854 11.742 73.9454 11.118 73.4654 10.746C72.9854 10.362 72.4214 10.17 71.7734 10.17C71.1494 10.17 70.6034 10.392 70.1354 10.836C69.6674 11.268 69.4334 11.982 69.4334 12.978V18H67.8854V9H69.4334V10.062C69.7574 9.678 70.1474 9.372 70.6034 9.144C71.0594 8.904 71.5574 8.784 72.0974 8.784ZM80.1291 15.192C80.1291 15.744 80.2311 16.128 80.4351 16.344C80.6511 16.548 80.9931 16.65 81.4611 16.65C81.6051 16.65 81.9051 16.626 82.3611 16.578V18C81.8451 18.06 81.4131 18.09 81.0651 18.09C80.2131 18.09 79.5831 17.886 79.1751 17.478C78.7791 17.07 78.5811 16.338 78.5811 15.282V10.422H76.5831V9H78.5811V6.552L80.1291 5.994V9H82.3251V10.422H80.1291V15.192ZM84.9715 6.948C84.6715 6.948 84.4315 6.864 84.2515 6.696C84.0715 6.528 83.9815 6.294 83.9815 5.994C83.9815 5.706 84.0715 5.478 84.2515 5.31C84.4315 5.13 84.6715 5.04 84.9715 5.04C85.2715 5.04 85.5115 5.13 85.6915 5.31C85.8715 5.478 85.9615 5.706 85.9615 5.994C85.9615 6.294 85.8715 6.528 85.6915 6.696C85.5235 6.864 85.2835 6.948 84.9715 6.948ZM84.1975 18V9H85.7455V18H84.1975ZM91.5722 16.218L94.4162 9H96.0722L92.5442 18H90.6182L87.0722 9H88.7282L91.5722 16.218ZM101.1 8.784C101.976 8.784 102.756 9 103.44 9.432C104.124 9.852 104.652 10.428 105.024 11.16C105.408 11.88 105.6 12.666 105.6 13.518C105.6 13.614 105.594 13.722 105.582 13.842C105.57 13.95 105.558 14.04 105.546 14.112H97.9676C98.0876 14.916 98.4356 15.576 99.0116 16.092C99.5996 16.596 100.344 16.848 101.244 16.848C101.796 16.848 102.318 16.722 102.81 16.47C103.314 16.218 103.686 15.906 103.926 15.534L105.15 16.254C104.754 16.878 104.214 17.364 103.53 17.712C102.858 18.048 102.09 18.216 101.226 18.216C100.278 18.216 99.4376 18.012 98.7056 17.604C97.9736 17.196 97.4036 16.638 96.9956 15.93C96.5876 15.21 96.3836 14.4 96.3836 13.5C96.3836 12.612 96.5816 11.814 96.9776 11.106C97.3856 10.386 97.9436 9.822 98.6516 9.414C99.3716 8.994 100.188 8.784 101.1 8.784ZM104.124 12.852C104.004 12.012 103.68 11.352 103.152 10.872C102.624 10.392 101.94 10.152 101.1 10.152C100.512 10.152 99.9776 10.278 99.4976 10.53C99.0176 10.782 98.6396 11.118 98.3636 11.538C98.0876 11.946 97.9436 12.384 97.9316 12.852H104.124ZM108.415 11.466C108.415 11.814 108.577 12.066 108.901 12.222C109.237 12.378 109.771 12.546 110.503 12.726C111.211 12.894 111.787 13.062 112.231 13.23C112.687 13.398 113.071 13.662 113.383 14.022C113.707 14.382 113.869 14.868 113.869 15.48C113.869 16.308 113.527 16.974 112.843 17.478C112.159 17.97 111.301 18.216 110.269 18.216C109.345 18.216 108.565 18.036 107.929 17.676C107.293 17.316 106.831 16.812 106.543 16.164L107.821 15.498C108.013 15.978 108.319 16.338 108.739 16.578C109.159 16.806 109.669 16.92 110.269 16.92C110.833 16.92 111.319 16.794 111.727 16.542C112.147 16.29 112.357 15.942 112.357 15.498C112.357 15.222 112.255 14.994 112.051 14.814C111.859 14.634 111.613 14.496 111.313 14.4C111.025 14.304 110.611 14.184 110.071 14.04C109.387 13.872 108.829 13.71 108.397 13.554C107.977 13.386 107.611 13.14 107.299 12.816C106.999 12.492 106.849 12.054 106.849 11.502C106.849 10.974 106.999 10.506 107.299 10.098C107.599 9.678 108.007 9.354 108.523 9.126C109.039 8.898 109.615 8.784 110.251 8.784C111.007 8.784 111.673 8.946 112.249 9.27C112.837 9.594 113.287 10.044 113.599 10.62L112.321 11.268C112.141 10.884 111.877 10.59 111.529 10.386C111.181 10.17 110.755 10.062 110.251 10.062C109.687 10.062 109.237 10.194 108.901 10.458C108.577 10.71 108.415 11.046 108.415 11.466ZM123.157 18H121.609V12.654C121.609 11.778 121.363 11.154 120.871 10.782C120.391 10.398 119.833 10.206 119.197 10.206C118.705 10.206 118.243 10.35 117.811 10.638C117.391 10.926 117.103 11.388 116.947 12.024V18H115.399V5.4H116.947V9.972C117.259 9.624 117.637 9.348 118.081 9.144C118.525 8.928 118.999 8.82 119.503 8.82C120.031 8.82 120.571 8.934 121.123 9.162C121.675 9.378 122.149 9.768 122.545 10.332C122.953 10.896 123.157 11.658 123.157 12.618V18ZM132.535 9H134.101V18H132.535V16.65C132.115 17.142 131.611 17.532 131.023 17.82C130.447 18.096 129.829 18.234 129.169 18.234C128.293 18.234 127.507 18.03 126.811 17.622C126.115 17.202 125.575 16.632 125.191 15.912C124.807 15.192 124.615 14.394 124.615 13.518C124.615 12.63 124.807 11.832 125.191 11.124C125.575 10.404 126.109 9.84 126.793 9.432C127.489 9.012 128.281 8.802 129.169 8.802C129.829 8.802 130.447 8.946 131.023 9.234C131.611 9.51 132.115 9.894 132.535 10.386V9ZM129.331 16.74C129.919 16.74 130.459 16.602 130.951 16.326C131.443 16.038 131.827 15.648 132.103 15.156C132.391 14.664 132.535 14.112 132.535 13.5C132.535 12.9 132.391 12.36 132.103 11.88C131.827 11.388 131.443 11.004 130.951 10.728C130.459 10.452 129.919 10.314 129.331 10.314C128.743 10.314 128.209 10.452 127.729 10.728C127.249 11.004 126.871 11.388 126.595 11.88C126.319 12.372 126.181 12.918 126.181 13.518C126.181 14.13 126.319 14.682 126.595 15.174C126.871 15.654 127.249 16.038 127.729 16.326C128.209 16.602 128.743 16.74 129.331 16.74ZM146.947 8.784C147.475 8.784 148.015 8.898 148.567 9.126C149.119 9.342 149.593 9.738 149.989 10.314C150.397 10.878 150.601 11.646 150.601 12.618V18H149.035V12.618C149.035 11.742 148.795 11.118 148.315 10.746C147.835 10.362 147.277 10.17 146.641 10.17C146.125 10.17 145.651 10.32 145.219 10.62C144.799 10.92 144.517 11.412 144.373 12.096C144.385 12.204 144.391 12.378 144.391 12.618V18H142.843V12.618C142.843 11.742 142.597 11.118 142.105 10.746C141.625 10.362 141.067 10.17 140.431 10.17C139.939 10.17 139.477 10.314 139.045 10.602C138.625 10.89 138.337 11.352 138.181 11.988V18H136.633V9H138.181V9.936C138.493 9.588 138.871 9.312 139.315 9.108C139.759 8.892 140.233 8.784 140.737 8.784C141.325 8.784 141.919 8.922 142.519 9.198C143.131 9.474 143.605 9.93 143.941 10.566C144.229 10.062 144.637 9.642 145.165 9.306C145.705 8.958 146.299 8.784 146.947 8.784ZM153.684 6.948C153.384 6.948 153.144 6.864 152.964 6.696C152.784 6.528 152.694 6.294 152.694 5.994C152.694 5.706 152.784 5.478 152.964 5.31C153.144 5.13 153.384 5.04 153.684 5.04C153.984 5.04 154.224 5.13 154.404 5.31C154.584 5.478 154.674 5.706 154.674 5.994C154.674 6.294 154.584 6.528 154.404 6.696C154.236 6.864 153.996 6.948 153.684 6.948ZM152.91 18V9H154.458V18H152.91ZM167.215 8.784C167.743 8.784 168.283 8.898 168.835 9.126C169.387 9.342 169.861 9.738 170.257 10.314C170.665 10.878 170.869 11.646 170.869 12.618V18H169.303V12.618C169.303 11.742 169.063 11.118 168.583 10.746C168.103 10.362 167.545 10.17 166.909 10.17C166.393 10.17 165.919 10.32 165.487 10.62C165.067 10.92 164.785 11.412 164.641 12.096C164.653 12.204 164.659 12.378 164.659 12.618V18H163.111V12.618C163.111 11.742 162.865 11.118 162.373 10.746C161.893 10.362 161.335 10.17 160.699 10.17C160.207 10.17 159.745 10.314 159.313 10.602C158.893 10.89 158.605 11.352 158.449 11.988V18H156.901V9H158.449V9.936C158.761 9.588 159.139 9.312 159.583 9.108C160.027 8.892 160.501 8.784 161.005 8.784C161.593 8.784 162.187 8.922 162.787 9.198C163.399 9.474 163.873 9.93 164.209 10.566C164.497 10.062 164.905 9.642 165.433 9.306C165.973 8.958 166.567 8.784 167.215 8.784ZM185.364 9.846C185.52 10.338 185.598 10.824 185.598 11.304C185.598 11.424 185.586 11.604 185.562 11.844L185.364 14.238C185.328 14.682 185.196 15.102 184.968 15.498C184.752 15.882 184.476 16.188 184.14 16.416C183.804 16.644 183.45 16.758 183.078 16.758C182.802 16.758 182.532 16.704 182.268 16.596C182.016 16.476 181.806 16.314 181.638 16.11C181.554 16.026 181.482 15.924 181.422 15.804C180.942 16.14 180.432 16.308 179.892 16.308H178.83C178.446 16.308 178.074 16.23 177.714 16.074C177.354 15.918 177.042 15.696 176.778 15.408C176.514 15.132 176.316 14.808 176.184 14.436C176.064 14.052 176.028 13.662 176.076 13.266L176.13 12.528C176.178 12 176.352 11.514 176.652 11.07C176.952 10.626 177.336 10.272 177.804 10.008C178.272 9.744 178.77 9.612 179.298 9.612H180.36C180.852 9.612 181.302 9.75 181.71 10.026L181.728 9.846H182.88L182.7 11.952L182.682 12.168L182.538 13.878C182.538 13.926 182.526 14.01 182.502 14.13L182.466 14.562C182.466 14.754 182.526 14.928 182.646 15.084C182.766 15.24 182.91 15.318 183.078 15.318C183.33 15.318 183.54 15.204 183.708 14.976C183.888 14.736 183.99 14.448 184.014 14.112L184.23 11.718C184.242 11.634 184.248 11.508 184.248 11.34C184.248 10.452 183.984 9.726 183.456 9.162C183.144 8.814 182.766 8.556 182.322 8.388C181.878 8.22 181.422 8.136 180.954 8.136L178.992 8.118C178.44 8.118 177.912 8.214 177.408 8.406C176.916 8.586 176.472 8.85 176.076 9.198C175.68 9.546 175.368 9.96 175.14 10.44C174.912 10.908 174.774 11.418 174.726 11.97L174.51 14.238C174.474 14.742 174.528 15.216 174.672 15.66C174.816 16.104 175.044 16.494 175.356 16.83C175.668 17.178 176.052 17.448 176.508 17.64C176.976 17.82 177.474 17.91 178.002 17.91H180.81V19.26H178.002C177.27 19.26 176.592 19.128 175.968 18.864C175.344 18.6 174.804 18.222 174.348 17.73C173.964 17.31 173.67 16.83 173.466 16.29C173.262 15.75 173.16 15.186 173.16 14.598C173.16 14.394 173.166 14.238 173.178 14.13L173.376 11.862C173.46 10.902 173.76 10.032 174.276 9.252C174.792 8.472 175.458 7.866 176.274 7.434C177.102 6.99 178.008 6.768 178.992 6.768H180.846C181.578 6.78 182.25 6.912 182.862 7.164C183.486 7.416 184.014 7.776 184.446 8.244C184.878 8.688 185.184 9.222 185.364 9.846ZM180 14.958C180.312 14.958 180.594 14.838 180.846 14.598C181.11 14.358 181.254 14.076 181.278 13.752L181.44 12.042C181.464 11.73 181.38 11.472 181.188 11.268C180.984 11.064 180.738 10.962 180.45 10.962H179.406C178.938 10.962 178.524 11.13 178.164 11.466C177.804 11.802 177.606 12.198 177.57 12.654L177.516 13.392C177.456 13.812 177.576 14.178 177.876 14.49C178.152 14.802 178.506 14.958 178.938 14.958H180ZM195.642 9H197.19V17.568C197.19 18.42 196.98 19.164 196.56 19.8C196.152 20.448 195.588 20.946 194.868 21.294C194.148 21.642 193.338 21.816 192.438 21.816C191.394 21.816 190.47 21.618 189.666 21.222C188.862 20.838 188.292 20.316 187.956 19.656L189.288 18.882C189.492 19.302 189.864 19.656 190.404 19.944C190.956 20.232 191.64 20.376 192.456 20.376C193.38 20.376 194.142 20.118 194.742 19.602C195.342 19.086 195.642 18.408 195.642 17.568V16.668C195.222 17.16 194.718 17.544 194.13 17.82C193.542 18.096 192.924 18.234 192.276 18.234C191.4 18.234 190.614 18.03 189.918 17.622C189.234 17.202 188.7 16.632 188.316 15.912C187.932 15.192 187.74 14.394 187.74 13.518C187.74 12.63 187.932 11.832 188.316 11.124C188.7 10.404 189.234 9.84 189.918 9.432C190.602 9.012 191.388 8.802 192.276 8.802C192.924 8.802 193.542 8.94 194.13 9.216C194.718 9.492 195.222 9.876 195.642 10.368V9ZM192.438 16.74C193.026 16.74 193.566 16.602 194.058 16.326C194.55 16.038 194.934 15.648 195.21 15.156C195.498 14.664 195.642 14.112 195.642 13.5C195.642 12.9 195.498 12.36 195.21 11.88C194.934 11.388 194.55 11.004 194.058 10.728C193.566 10.452 193.026 10.314 192.438 10.314C191.85 10.314 191.316 10.452 190.836 10.728C190.356 11.004 189.978 11.388 189.702 11.88C189.426 12.372 189.288 12.918 189.288 13.518C189.288 14.13 189.426 14.682 189.702 15.174C189.978 15.654 190.356 16.038 190.836 16.326C191.316 16.602 191.85 16.74 192.438 16.74ZM210.053 8.784C210.581 8.784 211.121 8.898 211.673 9.126C212.225 9.342 212.699 9.738 213.095 10.314C213.503 10.878 213.707 11.646 213.707 12.618V18H212.141V12.618C212.141 11.742 211.901 11.118 211.421 10.746C210.941 10.362 210.383 10.17 209.747 10.17C209.231 10.17 208.757 10.32 208.325 10.62C207.905 10.92 207.623 11.412 207.479 12.096C207.491 12.204 207.497 12.378 207.497 12.618V18H205.949V12.618C205.949 11.742 205.703 11.118 205.211 10.746C204.731 10.362 204.173 10.17 203.537 10.17C203.045 10.17 202.583 10.314 202.151 10.602C201.731 10.89 201.443 11.352 201.287 11.988V18H199.739V9H201.287V9.936C201.599 9.588 201.977 9.312 202.421 9.108C202.865 8.892 203.339 8.784 203.843 8.784C204.431 8.784 205.025 8.922 205.625 9.198C206.237 9.474 206.711 9.93 207.047 10.566C207.335 10.062 207.743 9.642 208.271 9.306C208.811 8.958 209.405 8.784 210.053 8.784ZM222.992 9H224.558V18H222.992V16.65C222.572 17.142 222.068 17.532 221.48 17.82C220.904 18.096 220.286 18.234 219.626 18.234C218.75 18.234 217.964 18.03 217.268 17.622C216.572 17.202 216.032 16.632 215.648 15.912C215.264 15.192 215.072 14.394 215.072 13.518C215.072 12.63 215.264 11.832 215.648 11.124C216.032 10.404 216.566 9.84 217.25 9.432C217.946 9.012 218.738 8.802 219.626 8.802C220.286 8.802 220.904 8.946 221.48 9.234C222.068 9.51 222.572 9.894 222.992 10.386V9ZM219.788 16.74C220.376 16.74 220.916 16.602 221.408 16.326C221.9 16.038 222.284 15.648 222.56 15.156C222.848 14.664 222.992 14.112 222.992 13.5C222.992 12.9 222.848 12.36 222.56 11.88C222.284 11.388 221.9 11.004 221.408 10.728C220.916 10.452 220.376 10.314 219.788 10.314C219.2 10.314 218.666 10.452 218.186 10.728C217.706 11.004 217.328 11.388 217.052 11.88C216.776 12.372 216.638 12.918 216.638 13.518C216.638 14.13 216.776 14.682 217.052 15.174C217.328 15.654 217.706 16.038 218.186 16.326C218.666 16.602 219.2 16.74 219.788 16.74ZM227.847 6.948C227.547 6.948 227.307 6.864 227.127 6.696C226.947 6.528 226.857 6.294 226.857 5.994C226.857 5.706 226.947 5.478 227.127 5.31C227.307 5.13 227.547 5.04 227.847 5.04C228.147 5.04 228.387 5.13 228.567 5.31C228.747 5.478 228.837 5.706 228.837 5.994C228.837 6.294 228.747 6.528 228.567 6.696C228.399 6.864 228.159 6.948 227.847 6.948ZM227.073 18V9H228.621V18H227.073ZM231.009 17.298C231.009 17.01 231.087 16.788 231.243 16.632C231.411 16.464 231.633 16.38 231.909 16.38C232.197 16.38 232.419 16.464 232.575 16.632C232.731 16.788 232.809 17.01 232.809 17.298C232.809 17.574 232.731 17.796 232.575 17.964C232.419 18.12 232.197 18.198 231.909 18.198C231.633 18.198 231.411 18.12 231.243 17.964C231.087 17.796 231.009 17.574 231.009 17.298ZM243.291 16.254C242.859 16.854 242.307 17.334 241.635 17.694C240.975 18.042 240.255 18.216 239.475 18.216C238.623 18.216 237.837 18.006 237.117 17.586C236.397 17.166 235.821 16.596 235.389 15.876C234.969 15.144 234.759 14.352 234.759 13.5C234.759 12.648 234.969 11.862 235.389 11.142C235.821 10.422 236.397 9.852 237.117 9.432C237.837 9.012 238.623 8.802 239.475 8.802C240.243 8.802 240.957 8.976 241.617 9.324C242.277 9.672 242.829 10.14 243.273 10.728L241.995 11.592C241.683 11.196 241.311 10.89 240.879 10.674C240.447 10.458 239.979 10.35 239.475 10.35C238.899 10.35 238.371 10.494 237.891 10.782C237.411 11.058 237.027 11.436 236.739 11.916C236.463 12.396 236.325 12.924 236.325 13.5C236.325 14.076 236.463 14.61 236.739 15.102C237.027 15.582 237.411 15.966 237.891 16.254C238.371 16.53 238.899 16.668 239.475 16.668C239.979 16.668 240.447 16.56 240.879 16.344C241.323 16.116 241.695 15.804 241.995 15.408L243.291 16.254ZM248.826 18.216C247.974 18.216 247.188 18.006 246.468 17.586C245.748 17.166 245.172 16.596 244.74 15.876C244.32 15.144 244.11 14.352 244.11 13.5C244.11 12.648 244.32 11.862 244.74 11.142C245.172 10.422 245.748 9.852 246.468 9.432C247.188 9.012 247.974 8.802 248.826 8.802C249.678 8.802 250.464 9.012 251.184 9.432C251.904 9.852 252.474 10.422 252.894 11.142C253.326 11.862 253.542 12.648 253.542 13.5C253.542 14.352 253.326 15.144 252.894 15.876C252.474 16.596 251.904 17.166 251.184 17.586C250.464 18.006 249.678 18.216 248.826 18.216ZM248.826 16.668C249.402 16.668 249.93 16.53 250.41 16.254C250.89 15.966 251.268 15.582 251.544 15.102C251.832 14.61 251.976 14.076 251.976 13.5C251.976 12.924 251.832 12.396 251.544 11.916C251.268 11.436 250.89 11.058 250.41 10.782C249.93 10.494 249.402 10.35 248.826 10.35C248.25 10.35 247.716 10.494 247.224 10.782C246.744 11.058 246.36 11.436 246.072 11.916C245.796 12.396 245.658 12.924 245.658 13.5C245.658 14.076 245.796 14.61 246.072 15.102C246.36 15.582 246.744 15.966 247.224 16.254C247.716 16.53 248.25 16.668 248.826 16.668ZM265.389 8.784C265.917 8.784 266.457 8.898 267.009 9.126C267.561 9.342 268.035 9.738 268.431 10.314C268.839 10.878 269.043 11.646 269.043 12.618V18H267.477V12.618C267.477 11.742 267.237 11.118 266.757 10.746C266.277 10.362 265.719 10.17 265.083 10.17C264.567 10.17 264.093 10.32 263.661 10.62C263.241 10.92 262.959 11.412 262.815 12.096C262.827 12.204 262.833 12.378 262.833 12.618V18H261.285V12.618C261.285 11.742 261.039 11.118 260.547 10.746C260.067 10.362 259.509 10.17 258.873 10.17C258.381 10.17 257.919 10.314 257.487 10.602C257.067 10.89 256.779 11.352 256.623 11.988V18H255.075V9H256.623V9.936C256.935 9.588 257.313 9.312 257.757 9.108C258.201 8.892 258.675 8.784 259.179 8.784C259.767 8.784 260.361 8.922 260.961 9.198C261.573 9.474 262.047 9.93 262.383 10.566C262.671 10.062 263.079 9.642 263.607 9.306C264.147 8.958 264.741 8.784 265.389 8.784Z" fill="#757683"/>
</svg>
