<svg width="335" height="116" viewBox="0 0 335 116" fill="none" xmlns="http://www.w3.org/2000/svg">
<path d="M70.376 46.8C71.4213 46.8 72.3813 47.0507 73.256 47.552C74.1307 48.0427 74.824 48.72 75.336 49.584C75.848 50.4373 76.104 51.3867 76.104 52.432C76.104 53.4773 75.848 54.4267 75.336 55.28C74.824 56.1227 74.1307 56.7893 73.256 57.28C72.3813 57.76 71.4213 58 70.376 58H66.264V46.8H70.376ZM70.376 56.624C71.1653 56.624 71.8853 56.4427 72.536 56.08C73.1867 55.7067 73.6987 55.2 74.072 54.56C74.456 53.9093 74.648 53.1947 74.648 52.416C74.648 51.6373 74.456 50.9227 74.072 50.272C73.6987 49.6213 73.1813 49.1093 72.52 48.736C71.8693 48.3627 71.1547 48.176 70.376 48.176H67.72V56.624H70.376ZM81.191 58.192C80.4337 58.192 79.735 58.0053 79.095 57.632C78.455 57.2587 77.943 56.752 77.559 56.112C77.1857 55.4613 76.999 54.7573 76.999 54C76.999 53.2427 77.1857 52.544 77.559 51.904C77.943 51.264 78.455 50.7573 79.095 50.384C79.735 50.0107 80.4337 49.824 81.191 49.824C81.9483 49.824 82.647 50.0107 83.287 50.384C83.927 50.7573 84.4337 51.264 84.807 51.904C85.191 52.544 85.383 53.2427 85.383 54C85.383 54.7573 85.191 55.4613 84.807 56.112C84.4337 56.752 83.927 57.2587 83.287 57.632C82.647 58.0053 81.9483 58.192 81.191 58.192ZM81.191 56.816C81.703 56.816 82.1723 56.6933 82.599 56.448C83.0257 56.192 83.3617 55.8507 83.607 55.424C83.863 54.9867 83.991 54.512 83.991 54C83.991 53.488 83.863 53.0187 83.607 52.592C83.3617 52.1653 83.0257 51.8293 82.599 51.584C82.1723 51.328 81.703 51.2 81.191 51.2C80.679 51.2 80.2043 51.328 79.767 51.584C79.3403 51.8293 78.999 52.1653 78.743 52.592C78.4977 53.0187 78.375 53.488 78.375 54C78.375 54.512 78.4977 54.9867 78.743 55.424C78.999 55.8507 79.3403 56.192 79.767 56.448C80.2043 56.6933 80.679 56.816 81.191 56.816ZM90.5675 49.808C91.0368 49.808 91.5168 49.9093 92.0075 50.112C92.4982 50.304 92.9195 50.656 93.2715 51.168C93.6235 51.6693 93.7995 52.352 93.7995 53.216V58H92.4235V53.216C92.4235 52.4373 92.2102 51.8827 91.7835 51.552C91.3568 51.2107 90.8555 51.04 90.2795 51.04C89.7248 51.04 89.2395 51.2373 88.8235 51.632C88.4075 52.016 88.1995 52.6507 88.1995 53.536V58H86.8235V50H88.1995V50.944C88.4875 50.6027 88.8342 50.3307 89.2395 50.128C89.6448 49.9147 90.0875 49.808 90.5675 49.808ZM99.2535 49.808C100.032 49.808 100.726 50 101.334 50.384C101.942 50.7573 102.411 51.2693 102.742 51.92C103.083 52.56 103.253 53.2587 103.253 54.016C103.253 54.1013 103.248 54.1973 103.238 54.304C103.227 54.4 103.216 54.48 103.206 54.544H96.4695C96.5762 55.2587 96.8855 55.8453 97.3975 56.304C97.9202 56.752 98.5815 56.976 99.3815 56.976C99.8722 56.976 100.336 56.864 100.774 56.64C101.222 56.416 101.552 56.1387 101.766 55.808L102.854 56.448C102.502 57.0027 102.022 57.4347 101.414 57.744C100.816 58.0427 100.134 58.192 99.3655 58.192C98.5228 58.192 97.7762 58.0107 97.1255 57.648C96.4748 57.2853 95.9682 56.7893 95.6055 56.16C95.2428 55.52 95.0615 54.8 95.0615 54C95.0615 53.2107 95.2375 52.5013 95.5895 51.872C95.9522 51.232 96.4482 50.7307 97.0775 50.368C97.7175 49.9947 98.4428 49.808 99.2535 49.808ZM101.942 53.424C101.835 52.6773 101.547 52.0907 101.078 51.664C100.608 51.2373 100 51.024 99.2535 51.024C98.7308 51.024 98.2562 51.136 97.8295 51.36C97.4028 51.584 97.0668 51.8827 96.8215 52.256C96.5762 52.6187 96.4482 53.008 96.4375 53.424H101.942ZM111.724 56.448C111.34 56.9813 110.849 57.408 110.252 57.728C109.665 58.0373 109.025 58.192 108.332 58.192C107.574 58.192 106.876 58.0053 106.236 57.632C105.596 57.2587 105.084 56.752 104.7 56.112C104.326 55.4613 104.14 54.7573 104.14 54C104.14 53.2427 104.326 52.544 104.7 51.904C105.084 51.264 105.596 50.7573 106.236 50.384C106.876 50.0107 107.574 49.824 108.332 49.824C109.014 49.824 109.649 49.9787 110.236 50.288C110.822 50.5973 111.313 51.0133 111.708 51.536L110.572 52.304C110.294 51.952 109.964 51.68 109.58 51.488C109.196 51.296 108.78 51.2 108.332 51.2C107.82 51.2 107.35 51.328 106.924 51.584C106.497 51.8293 106.156 52.1653 105.9 52.592C105.654 53.0187 105.532 53.488 105.532 54C105.532 54.512 105.654 54.9867 105.9 55.424C106.156 55.8507 106.497 56.192 106.924 56.448C107.35 56.6933 107.82 56.816 108.332 56.816C108.78 56.816 109.196 56.72 109.58 56.528C109.974 56.3253 110.305 56.048 110.572 55.696L111.724 56.448ZM126.57 49.808C127.039 49.808 127.519 49.9093 128.01 50.112C128.5 50.304 128.922 50.656 129.274 51.168C129.636 51.6693 129.818 52.352 129.818 53.216V58H128.426V53.216C128.426 52.4373 128.212 51.8827 127.786 51.552C127.359 51.2107 126.863 51.04 126.298 51.04C125.839 51.04 125.418 51.1733 125.034 51.44C124.66 51.7067 124.41 52.144 124.282 52.752C124.292 52.848 124.298 53.0027 124.298 53.216V58H122.922V53.216C122.922 52.4373 122.703 51.8827 122.266 51.552C121.839 51.2107 121.343 51.04 120.778 51.04C120.34 51.04 119.93 51.168 119.546 51.424C119.172 51.68 118.916 52.0907 118.778 52.656V58H117.402V50H118.778V50.832C119.055 50.5227 119.391 50.2773 119.786 50.096C120.18 49.904 120.602 49.808 121.05 49.808C121.572 49.808 122.1 49.9307 122.634 50.176C123.178 50.4213 123.599 50.8267 123.898 51.392C124.154 50.944 124.516 50.5707 124.986 50.272C125.466 49.9627 125.994 49.808 126.57 49.808ZM135.254 49.808C136.032 49.808 136.726 50 137.334 50.384C137.942 50.7573 138.411 51.2693 138.742 51.92C139.083 52.56 139.253 53.2587 139.253 54.016C139.253 54.1013 139.248 54.1973 139.238 54.304C139.227 54.4 139.216 54.48 139.206 54.544H132.47C132.576 55.2587 132.886 55.8453 133.398 56.304C133.92 56.752 134.582 56.976 135.382 56.976C135.872 56.976 136.336 56.864 136.774 56.64C137.222 56.416 137.552 56.1387 137.766 55.808L138.854 56.448C138.502 57.0027 138.022 57.4347 137.414 57.744C136.816 58.0427 136.134 58.192 135.366 58.192C134.523 58.192 133.776 58.0107 133.126 57.648C132.475 57.2853 131.968 56.7893 131.606 56.16C131.243 55.52 131.062 54.8 131.062 54C131.062 53.2107 131.238 52.5013 131.59 51.872C131.952 51.232 132.448 50.7307 133.078 50.368C133.718 49.9947 134.443 49.808 135.254 49.808ZM137.942 53.424C137.835 52.6773 137.547 52.0907 137.078 51.664C136.608 51.2373 136 51.024 135.254 51.024C134.731 51.024 134.256 51.136 133.83 51.36C133.403 51.584 133.067 51.8827 132.822 52.256C132.576 52.6187 132.448 53.008 132.438 53.424H137.942ZM142.894 55.504C142.894 55.9947 142.985 56.336 143.166 56.528C143.358 56.7093 143.662 56.8 144.078 56.8C144.206 56.8 144.473 56.7787 144.878 56.736V58C144.42 58.0533 144.036 58.08 143.726 58.08C142.969 58.08 142.409 57.8987 142.046 57.536C141.694 57.1733 141.518 56.5227 141.518 55.584V51.264H139.742V50H141.518V47.824L142.894 47.328V50H144.846V51.264H142.894V55.504ZM151.84 50H153.216V58H151.84V57.056C151.552 57.3973 151.205 57.6747 150.8 57.888C150.394 58.0907 149.952 58.192 149.472 58.192C149.002 58.192 148.522 58.096 148.032 57.904C147.541 57.7013 147.12 57.3493 146.768 56.848C146.416 56.336 146.24 55.648 146.24 54.784V50H147.616V54.784C147.616 55.5627 147.829 56.1227 148.256 56.464C148.693 56.7947 149.194 56.96 149.76 56.96C150.314 56.96 150.8 56.768 151.216 56.384C151.632 55.9893 151.84 55.3493 151.84 54.464V50ZM156.287 52.192C156.287 52.5013 156.431 52.7253 156.719 52.864C157.018 53.0027 157.492 53.152 158.143 53.312C158.772 53.4613 159.284 53.6107 159.679 53.76C160.084 53.9093 160.426 54.144 160.703 54.464C160.991 54.784 161.135 55.216 161.135 55.76C161.135 56.496 160.831 57.088 160.223 57.536C159.615 57.9733 158.852 58.192 157.935 58.192C157.114 58.192 156.42 58.032 155.855 57.712C155.29 57.392 154.879 56.944 154.623 56.368L155.759 55.776C155.93 56.2027 156.202 56.5227 156.575 56.736C156.948 56.9387 157.402 57.04 157.935 57.04C158.436 57.04 158.868 56.928 159.231 56.704C159.604 56.48 159.791 56.1707 159.791 55.776C159.791 55.5307 159.7 55.328 159.519 55.168C159.348 55.008 159.13 54.8853 158.863 54.8C158.607 54.7147 158.239 54.608 157.759 54.48C157.151 54.3307 156.655 54.1867 156.271 54.048C155.898 53.8987 155.572 53.68 155.295 53.392C155.028 53.104 154.895 52.7147 154.895 52.224C154.895 51.7547 155.028 51.3387 155.295 50.976C155.562 50.6027 155.924 50.3147 156.383 50.112C156.842 49.9093 157.354 49.808 157.919 49.808C158.591 49.808 159.183 49.952 159.695 50.24C160.218 50.528 160.618 50.928 160.895 51.44L159.759 52.016C159.599 51.6747 159.364 51.4133 159.055 51.232C158.746 51.04 158.367 50.944 157.919 50.944C157.418 50.944 157.018 51.0613 156.719 51.296C156.431 51.52 156.287 51.8187 156.287 52.192ZM166.254 49.808C167.032 49.808 167.726 50 168.334 50.384C168.942 50.7573 169.411 51.2693 169.742 51.92C170.083 52.56 170.253 53.2587 170.253 54.016C170.253 54.1013 170.248 54.1973 170.238 54.304C170.227 54.4 170.216 54.48 170.206 54.544H163.47C163.576 55.2587 163.886 55.8453 164.398 56.304C164.92 56.752 165.582 56.976 166.382 56.976C166.872 56.976 167.336 56.864 167.774 56.64C168.222 56.416 168.552 56.1387 168.766 55.808L169.854 56.448C169.502 57.0027 169.022 57.4347 168.414 57.744C167.816 58.0427 167.134 58.192 166.366 58.192C165.523 58.192 164.776 58.0107 164.126 57.648C163.475 57.2853 162.968 56.7893 162.606 56.16C162.243 55.52 162.062 54.8 162.062 54C162.062 53.2107 162.238 52.5013 162.59 51.872C162.952 51.232 163.448 50.7307 164.078 50.368C164.718 49.9947 165.443 49.808 166.254 49.808ZM168.942 53.424C168.835 52.6773 168.547 52.0907 168.078 51.664C167.608 51.2373 167 51.024 166.254 51.024C165.731 51.024 165.256 51.136 164.83 51.36C164.403 51.584 164.067 51.8827 163.822 52.256C163.576 52.6187 163.448 53.008 163.438 53.424H168.942ZM172.492 58.128C172.225 58.0853 172.039 58 171.932 57.872C171.836 57.744 171.788 57.5307 171.788 57.232C171.788 56.9333 171.868 56.704 172.028 56.544C172.199 56.384 172.423 56.304 172.7 56.304C172.988 56.304 173.217 56.3947 173.388 56.576C173.559 56.7467 173.644 56.976 173.644 57.264C173.633 57.5947 173.585 57.8773 173.5 58.112C173.415 58.3467 173.255 58.6507 173.02 59.024L172.396 59.968L171.868 59.536L172.492 58.128ZM182.863 56.416L185.391 50H186.863L183.727 58H182.015L178.863 50H180.335L182.863 56.416ZM193.496 50H194.872V58H193.496V57.056C193.208 57.3973 192.861 57.6747 192.456 57.888C192.051 58.0907 191.608 58.192 191.128 58.192C190.659 58.192 190.179 58.096 189.688 57.904C189.197 57.7013 188.776 57.3493 188.424 56.848C188.072 56.336 187.896 55.648 187.896 54.784V50H189.272V54.784C189.272 55.5627 189.485 56.1227 189.912 56.464C190.349 56.7947 190.851 56.96 191.416 56.96C191.971 56.96 192.456 56.768 192.872 56.384C193.288 55.9893 193.496 55.3493 193.496 54.464V50ZM198.528 56.304C198.528 56.4853 198.565 56.6133 198.64 56.688C198.725 56.752 198.853 56.784 199.024 56.784C199.12 56.784 199.21 56.7787 199.296 56.768C199.381 56.7573 199.461 56.7467 199.536 56.736V58C199.194 58.0533 198.906 58.08 198.672 58.08C198.192 58.08 197.818 57.9573 197.552 57.712C197.285 57.456 197.152 57.0133 197.152 56.384V46.8H198.528V56.304ZM205.52 49.808C206.298 49.808 206.992 49.9947 207.6 50.368C208.218 50.7307 208.698 51.232 209.04 51.872C209.381 52.512 209.552 53.2213 209.552 54C209.552 54.7893 209.381 55.504 209.04 56.144C208.698 56.7733 208.224 57.2747 207.616 57.648C207.008 58.0107 206.309 58.192 205.52 58.192C204.944 58.192 204.394 58.0693 203.872 57.824C203.349 57.5787 202.901 57.2373 202.528 56.8V61.2H201.152V50H202.528V51.2C202.901 50.7627 203.349 50.4213 203.872 50.176C204.394 49.9307 204.944 49.808 205.52 49.808ZM205.376 56.848C205.898 56.848 206.373 56.7253 206.8 56.48C207.226 56.2347 207.562 55.8933 207.808 55.456C208.053 55.0187 208.176 54.5333 208.176 54C208.176 53.456 208.053 52.9707 207.808 52.544C207.562 52.1067 207.226 51.7653 206.8 51.52C206.373 51.264 205.898 51.136 205.376 51.136C204.853 51.136 204.373 51.264 203.936 51.52C203.498 51.7653 203.152 52.1067 202.896 52.544C202.65 52.9813 202.528 53.472 202.528 54.016C202.528 54.5493 202.65 55.0347 202.896 55.472C203.152 55.8987 203.498 56.2347 203.936 56.48C204.373 56.7253 204.853 56.848 205.376 56.848ZM216.574 50H217.95V58H216.574V57.056C216.286 57.3973 215.939 57.6747 215.534 57.888C215.129 58.0907 214.686 58.192 214.206 58.192C213.737 58.192 213.257 58.096 212.766 57.904C212.275 57.7013 211.854 57.3493 211.502 56.848C211.15 56.336 210.974 55.648 210.974 54.784V50H212.35V54.784C212.35 55.5627 212.563 56.1227 212.99 56.464C213.427 56.7947 213.929 56.96 214.494 56.96C215.049 56.96 215.534 56.768 215.95 56.384C216.366 55.9893 216.574 55.3493 216.574 54.464V50ZM222.16 55.504C222.16 55.9947 222.251 56.336 222.432 56.528C222.624 56.7093 222.928 56.8 223.344 56.8C223.472 56.8 223.739 56.7787 224.144 56.736V58C223.685 58.0533 223.301 58.08 222.992 58.08C222.235 58.08 221.675 57.8987 221.312 57.536C220.96 57.1733 220.784 56.5227 220.784 55.584V51.264H219.008V50H220.784V47.824L222.16 47.328V50H224.112V51.264H222.16V55.504ZM232.15 50H233.542V58H232.15V56.8C231.776 57.2373 231.328 57.584 230.806 57.84C230.294 58.0853 229.744 58.208 229.158 58.208C228.379 58.208 227.68 58.0267 227.062 57.664C226.443 57.2907 225.963 56.784 225.622 56.144C225.28 55.504 225.11 54.7947 225.11 54.016C225.11 53.2267 225.28 52.5173 225.622 51.888C225.963 51.248 226.438 50.7467 227.046 50.384C227.664 50.0107 228.368 49.824 229.158 49.824C229.744 49.824 230.294 49.952 230.806 50.208C231.328 50.4533 231.776 50.7947 232.15 51.232V50ZM229.302 56.88C229.824 56.88 230.304 56.7573 230.742 56.512C231.179 56.256 231.52 55.9093 231.766 55.472C232.022 55.0347 232.15 54.544 232.15 54C232.15 53.4667 232.022 52.9867 231.766 52.56C231.52 52.1227 231.179 51.7813 230.742 51.536C230.304 51.2907 229.824 51.168 229.302 51.168C228.779 51.168 228.304 51.2907 227.878 51.536C227.451 51.7813 227.115 52.1227 226.87 52.56C226.624 52.9973 226.502 53.4827 226.502 54.016C226.502 54.56 226.624 55.0507 226.87 55.488C227.115 55.9147 227.451 56.256 227.878 56.512C228.304 56.7573 228.779 56.88 229.302 56.88ZM237.894 55.504C237.894 55.9947 237.985 56.336 238.166 56.528C238.358 56.7093 238.662 56.8 239.078 56.8C239.206 56.8 239.473 56.7787 239.878 56.736V58C239.42 58.0533 239.036 58.08 238.726 58.08C237.969 58.08 237.409 57.8987 237.046 57.536C236.694 57.1733 236.518 56.5227 236.518 55.584V51.264H234.742V50H236.518V47.824L237.894 47.328V50H239.846V51.264H237.894V55.504ZM244.879 49.808C245.657 49.808 246.351 50 246.959 50.384C247.567 50.7573 248.036 51.2693 248.367 51.92C248.708 52.56 248.878 53.2587 248.878 54.016C248.878 54.1013 248.873 54.1973 248.863 54.304C248.852 54.4 248.841 54.48 248.831 54.544H242.095C242.201 55.2587 242.511 55.8453 243.023 56.304C243.545 56.752 244.207 56.976 245.007 56.976C245.497 56.976 245.961 56.864 246.399 56.64C246.847 56.416 247.177 56.1387 247.391 55.808L248.479 56.448C248.127 57.0027 247.647 57.4347 247.039 57.744C246.441 58.0427 245.759 58.192 244.991 58.192C244.148 58.192 243.401 58.0107 242.751 57.648C242.1 57.2853 241.593 56.7893 241.231 56.16C240.868 55.52 240.687 54.8 240.687 54C240.687 53.2107 240.863 52.5013 241.215 51.872C241.577 51.232 242.073 50.7307 242.703 50.368C243.343 49.9947 244.068 49.808 244.879 49.808ZM247.567 53.424C247.46 52.6773 247.172 52.0907 246.703 51.664C246.233 51.2373 245.625 51.024 244.879 51.024C244.356 51.024 243.881 51.136 243.455 51.36C243.028 51.584 242.692 51.8827 242.447 52.256C242.201 52.6187 242.073 53.008 242.062 53.424H247.567ZM261.29 50H262.682V58H261.29V56.8C260.917 57.2373 260.469 57.584 259.946 57.84C259.434 58.0853 258.885 58.208 258.298 58.208C257.519 58.208 256.821 58.0267 256.202 57.664C255.583 57.2907 255.103 56.784 254.762 56.144C254.421 55.504 254.25 54.7947 254.25 54.016C254.25 53.2267 254.421 52.5173 254.762 51.888C255.103 51.248 255.578 50.7467 256.186 50.384C256.805 50.0107 257.509 49.824 258.298 49.824C258.885 49.824 259.434 49.952 259.946 50.208C260.469 50.4533 260.917 50.7947 261.29 51.232V50ZM258.442 56.88C258.965 56.88 259.445 56.7573 259.882 56.512C260.319 56.256 260.661 55.9093 260.906 55.472C261.162 55.0347 261.29 54.544 261.29 54C261.29 53.4667 261.162 52.9867 260.906 52.56C260.661 52.1227 260.319 51.7813 259.882 51.536C259.445 51.2907 258.965 51.168 258.442 51.168C257.919 51.168 257.445 51.2907 257.018 51.536C256.591 51.7813 256.255 52.1227 256.01 52.56C255.765 52.9973 255.642 53.4827 255.642 54.016C255.642 54.56 255.765 55.0507 256.01 55.488C256.255 55.9147 256.591 56.256 257.018 56.512C257.445 56.7573 257.919 56.88 258.442 56.88ZM267.035 55.504C267.035 55.9947 267.126 56.336 267.307 56.528C267.499 56.7093 267.803 56.8 268.219 56.8C268.347 56.8 268.614 56.7787 269.019 56.736V58C268.56 58.0533 268.176 58.08 267.867 58.08C267.11 58.08 266.55 57.8987 266.187 57.536C265.835 57.1733 265.659 56.5227 265.659 55.584V51.264H263.883V50H265.659V47.824L267.035 47.328V50H268.987V51.264H267.035V55.504ZM276.099 52.192C276.099 52.5013 276.243 52.7253 276.531 52.864C276.83 53.0027 277.305 53.152 277.955 53.312C278.585 53.4613 279.097 53.6107 279.491 53.76C279.897 53.9093 280.238 54.144 280.515 54.464C280.803 54.784 280.947 55.216 280.947 55.76C280.947 56.496 280.643 57.088 280.035 57.536C279.427 57.9733 278.665 58.192 277.747 58.192C276.926 58.192 276.233 58.032 275.667 57.712C275.102 57.392 274.691 56.944 274.435 56.368L275.571 55.776C275.742 56.2027 276.014 56.5227 276.387 56.736C276.761 56.9387 277.214 57.04 277.747 57.04C278.249 57.04 278.681 56.928 279.043 56.704C279.417 56.48 279.603 56.1707 279.603 55.776C279.603 55.5307 279.513 55.328 279.331 55.168C279.161 55.008 278.942 54.8853 278.675 54.8C278.419 54.7147 278.051 54.608 277.571 54.48C276.963 54.3307 276.467 54.1867 276.083 54.048C275.71 53.8987 275.385 53.68 275.107 53.392C274.841 53.104 274.707 52.7147 274.707 52.224C274.707 51.7547 274.841 51.3387 275.107 50.976C275.374 50.6027 275.737 50.3147 276.195 50.112C276.654 49.9093 277.166 49.808 277.731 49.808C278.403 49.808 278.995 49.952 279.507 50.24C280.03 50.528 280.43 50.928 280.707 51.44L279.571 52.016C279.411 51.6747 279.177 51.4133 278.867 51.232C278.558 51.04 278.179 50.944 277.731 50.944C277.23 50.944 276.83 51.0613 276.531 51.296C276.243 51.52 276.099 51.8187 276.099 52.192ZM288.962 50H290.354V58H288.962V56.8C288.589 57.2373 288.141 57.584 287.618 57.84C287.106 58.0853 286.557 58.208 285.97 58.208C285.191 58.208 284.493 58.0267 283.874 57.664C283.255 57.2907 282.775 56.784 282.434 56.144C282.093 55.504 281.922 54.7947 281.922 54.016C281.922 53.2267 282.093 52.5173 282.434 51.888C282.775 51.248 283.25 50.7467 283.858 50.384C284.477 50.0107 285.181 49.824 285.97 49.824C286.557 49.824 287.106 49.952 287.618 50.208C288.141 50.4533 288.589 50.7947 288.962 51.232V50ZM286.114 56.88C286.637 56.88 287.117 56.7573 287.554 56.512C287.991 56.256 288.333 55.9093 288.578 55.472C288.834 55.0347 288.962 54.544 288.962 54C288.962 53.4667 288.834 52.9867 288.578 52.56C288.333 52.1227 287.991 51.7813 287.554 51.536C287.117 51.2907 286.637 51.168 286.114 51.168C285.591 51.168 285.117 51.2907 284.69 51.536C284.263 51.7813 283.927 52.1227 283.682 52.56C283.437 52.9973 283.314 53.4827 283.314 54.016C283.314 54.56 283.437 55.0507 283.682 55.488C283.927 55.9147 284.263 56.256 284.69 56.512C285.117 56.7573 285.591 56.88 286.114 56.88ZM296.973 49.808C297.751 49.808 298.445 49.9947 299.053 50.368C299.671 50.7307 300.151 51.232 300.493 51.872C300.834 52.512 301.005 53.2213 301.005 54C301.005 54.7893 300.834 55.504 300.493 56.144C300.151 56.7733 299.677 57.2747 299.069 57.648C298.461 58.0107 297.762 58.192 296.973 58.192C296.397 58.192 295.847 58.0693 295.325 57.824C294.802 57.5787 294.354 57.2373 293.981 56.8V61.2H292.605V50H293.981V51.2C294.354 50.7627 294.802 50.4213 295.325 50.176C295.847 49.9307 296.397 49.808 296.973 49.808ZM296.829 56.848C297.351 56.848 297.826 56.7253 298.253 56.48C298.679 56.2347 299.015 55.8933 299.261 55.456C299.506 55.0187 299.629 54.5333 299.629 54C299.629 53.456 299.506 52.9707 299.261 52.544C299.015 52.1067 298.679 51.7653 298.253 51.52C297.826 51.264 297.351 51.136 296.829 51.136C296.306 51.136 295.826 51.264 295.389 51.52C294.951 51.7653 294.605 52.1067 294.349 52.544C294.103 52.9813 293.981 53.472 293.981 54.016C293.981 54.5493 294.103 55.0347 294.349 55.472C294.605 55.8987 294.951 56.2347 295.389 56.48C295.826 56.7253 296.306 56.848 296.829 56.848ZM303.324 48.176C303.057 48.176 302.844 48.1013 302.684 47.952C302.524 47.8027 302.444 47.5947 302.444 47.328C302.444 47.072 302.524 46.8693 302.684 46.72C302.844 46.56 303.057 46.48 303.324 46.48C303.59 46.48 303.804 46.56 303.964 46.72C304.124 46.8693 304.204 47.072 304.204 47.328C304.204 47.5947 304.124 47.8027 303.964 47.952C303.814 48.1013 303.601 48.176 303.324 48.176ZM302.636 58V50H304.012V58H302.636ZM309.55 49.808C310.329 49.808 311.022 50 311.63 50.384C312.238 50.7573 312.708 51.2693 313.038 51.92C313.38 52.56 313.55 53.2587 313.55 54.016C313.55 54.1013 313.545 54.1973 313.534 54.304C313.524 54.4 313.513 54.48 313.502 54.544H306.766C306.873 55.2587 307.182 55.8453 307.694 56.304C308.217 56.752 308.878 56.976 309.678 56.976C310.169 56.976 310.633 56.864 311.07 56.64C311.518 56.416 311.849 56.1387 312.062 55.808L313.15 56.448C312.798 57.0027 312.318 57.4347 311.71 57.744C311.113 58.0427 310.43 58.192 309.662 58.192C308.82 58.192 308.073 58.0107 307.422 57.648C306.772 57.2853 306.265 56.7893 305.902 56.16C305.54 55.52 305.358 54.8 305.358 54C305.358 53.2107 305.534 52.5013 305.886 51.872C306.249 51.232 306.745 50.7307 307.374 50.368C308.014 49.9947 308.74 49.808 309.55 49.808ZM312.238 53.424C312.132 52.6773 311.844 52.0907 311.374 51.664C310.905 51.2373 310.297 51.024 309.55 51.024C309.028 51.024 308.553 51.136 308.126 51.36C307.7 51.584 307.364 51.8827 307.118 52.256C306.873 52.6187 306.745 53.008 306.734 53.424H312.238ZM318.693 49.808C319.162 49.808 319.642 49.9093 320.133 50.112C320.623 50.304 321.045 50.656 321.397 51.168C321.749 51.6693 321.925 52.352 321.925 53.216V58H320.549V53.216C320.549 52.4373 320.335 51.8827 319.909 51.552C319.482 51.2107 318.981 51.04 318.405 51.04C317.85 51.04 317.365 51.2373 316.949 51.632C316.533 52.016 316.325 52.6507 316.325 53.536V58H314.949V50H316.325V50.944C316.613 50.6027 316.959 50.3307 317.365 50.128C317.77 49.9147 318.213 49.808 318.693 49.808ZM324.803 52.192C324.803 52.5013 324.947 52.7253 325.235 52.864C325.533 53.0027 326.008 53.152 326.659 53.312C327.288 53.4613 327.8 53.6107 328.195 53.76C328.6 53.9093 328.941 54.144 329.219 54.464C329.507 54.784 329.651 55.216 329.651 55.76C329.651 56.496 329.347 57.088 328.739 57.536C328.131 57.9733 327.368 58.192 326.451 58.192C325.629 58.192 324.936 58.032 324.371 57.712C323.805 57.392 323.395 56.944 323.139 56.368L324.275 55.776C324.445 56.2027 324.717 56.5227 325.091 56.736C325.464 56.9387 325.917 57.04 326.451 57.04C326.952 57.04 327.384 56.928 327.747 56.704C328.12 56.48 328.307 56.1707 328.307 55.776C328.307 55.5307 328.216 55.328 328.035 55.168C327.864 55.008 327.645 54.8853 327.379 54.8C327.123 54.7147 326.755 54.608 326.275 54.48C325.667 54.3307 325.171 54.1867 324.787 54.048C324.413 53.8987 324.088 53.68 323.811 53.392C323.544 53.104 323.411 52.7147 323.411 52.224C323.411 51.7547 323.544 51.3387 323.811 50.976C324.077 50.6027 324.44 50.3147 324.899 50.112C325.357 49.9093 325.869 49.808 326.435 49.808C327.107 49.808 327.699 49.952 328.211 50.24C328.733 50.528 329.133 50.928 329.411 51.44L328.275 52.016C328.115 51.6747 327.88 51.4133 327.571 51.232C327.261 51.04 326.883 50.944 326.435 50.944C325.933 50.944 325.533 51.0613 325.235 51.296C324.947 51.52 324.803 51.8187 324.803 52.192ZM67.24 78.192C67.24 78.5013 67.384 78.7253 67.672 78.864C67.9707 79.0027 68.4453 79.152 69.096 79.312C69.7253 79.4613 70.2373 79.6107 70.632 79.76C71.0373 79.9093 71.3787 80.144 71.656 80.464C71.944 80.784 72.088 81.216 72.088 81.76C72.088 82.496 71.784 83.088 71.176 83.536C70.568 83.9733 69.8053 84.192 68.888 84.192C68.0667 84.192 67.3733 84.032 66.808 83.712C66.2427 83.392 65.832 82.944 65.576 82.368L66.712 81.776C66.8827 82.2027 67.1547 82.5227 67.528 82.736C67.9013 82.9387 68.3547 83.04 68.888 83.04C69.3893 83.04 69.8213 82.928 70.184 82.704C70.5573 82.48 70.744 82.1707 70.744 81.776C70.744 81.5307 70.6533 81.328 70.472 81.168C70.3013 81.008 70.0827 80.8853 69.816 80.8C69.56 80.7147 69.192 80.608 68.712 80.48C68.104 80.3307 67.608 80.1867 67.224 80.048C66.8507 79.8987 66.5253 79.68 66.248 79.392C65.9813 79.104 65.848 78.7147 65.848 78.224C65.848 77.7547 65.9813 77.3387 66.248 76.976C66.5147 76.6027 66.8773 76.3147 67.336 76.112C67.7947 75.9093 68.3067 75.808 68.872 75.808C69.544 75.808 70.136 75.952 70.648 76.24C71.1707 76.528 71.5707 76.928 71.848 77.44L70.712 78.016C70.552 77.6747 70.3173 77.4133 70.008 77.232C69.6987 77.04 69.32 76.944 68.872 76.944C68.3707 76.944 67.9707 77.0613 67.672 77.296C67.384 77.52 67.24 77.8187 67.24 78.192ZM74.1986 74.176C73.932 74.176 73.7186 74.1013 73.5586 73.952C73.3986 73.8027 73.3186 73.5947 73.3186 73.328C73.3186 73.072 73.3986 72.8693 73.5586 72.72C73.7186 72.56 73.932 72.48 74.1986 72.48C74.4653 72.48 74.6786 72.56 74.8386 72.72C74.9986 72.8693 75.0786 73.072 75.0786 73.328C75.0786 73.5947 74.9986 73.8027 74.8386 73.952C74.6893 74.1013 74.476 74.176 74.1986 74.176ZM73.5106 84V76H74.8866V84H73.5106ZM79.4724 81.504C79.4724 81.9947 79.563 82.336 79.7444 82.528C79.9364 82.7093 80.2404 82.8 80.6564 82.8C80.7844 82.8 81.051 82.7787 81.4564 82.736V84C80.9977 84.0533 80.6137 84.08 80.3044 84.08C79.547 84.08 78.987 83.8987 78.6244 83.536C78.2724 83.1733 78.0964 82.5227 78.0964 81.584V77.264H76.3204V76H78.0964V73.824L79.4724 73.328V76H81.4244V77.264H79.4724V81.504ZM94.0089 76H95.4009V84H94.0089V82.8C93.6355 83.2373 93.1875 83.584 92.6649 83.84C92.1529 84.0853 91.6035 84.208 91.0169 84.208C90.2382 84.208 89.5395 84.0267 88.9209 83.664C88.3022 83.2907 87.8222 82.784 87.4809 82.144C87.1395 81.504 86.9689 80.7947 86.9689 80.016C86.9689 79.2267 87.1395 78.5173 87.4809 77.888C87.8222 77.248 88.2969 76.7467 88.9049 76.384C89.5235 76.0107 90.2275 75.824 91.0169 75.824C91.6035 75.824 92.1529 75.952 92.6649 76.208C93.1875 76.4533 93.6355 76.7947 94.0089 77.232V76ZM91.1609 82.88C91.6835 82.88 92.1635 82.7573 92.6009 82.512C93.0382 82.256 93.3795 81.9093 93.6249 81.472C93.8809 81.0347 94.0089 80.544 94.0089 80C94.0089 79.4667 93.8809 78.9867 93.6249 78.56C93.3795 78.1227 93.0382 77.7813 92.6009 77.536C92.1635 77.2907 91.6835 77.168 91.1609 77.168C90.6382 77.168 90.1635 77.2907 89.7369 77.536C89.3102 77.7813 88.9742 78.1227 88.7289 78.56C88.4835 78.9973 88.3609 79.4827 88.3609 80.016C88.3609 80.56 88.4835 81.0507 88.7289 81.488C88.9742 81.9147 89.3102 82.256 89.7369 82.512C90.1635 82.7573 90.6382 82.88 91.1609 82.88ZM106.82 75.808C107.289 75.808 107.769 75.9093 108.26 76.112C108.75 76.304 109.172 76.656 109.524 77.168C109.886 77.6693 110.068 78.352 110.068 79.216V84H108.676V79.216C108.676 78.4373 108.462 77.8827 108.036 77.552C107.609 77.2107 107.113 77.04 106.548 77.04C106.089 77.04 105.668 77.1733 105.284 77.44C104.91 77.7067 104.66 78.144 104.532 78.752C104.542 78.848 104.548 79.0027 104.548 79.216V84H103.172V79.216C103.172 78.4373 102.953 77.8827 102.516 77.552C102.089 77.2107 101.593 77.04 101.028 77.04C100.59 77.04 100.18 77.168 99.7956 77.424C99.4223 77.68 99.1663 78.0907 99.0276 78.656V84H97.6516V76H99.0276V76.832C99.305 76.5227 99.641 76.2773 100.036 76.096C100.43 75.904 100.852 75.808 101.3 75.808C101.822 75.808 102.35 75.9307 102.884 76.176C103.428 76.4213 103.849 76.8267 104.148 77.392C104.404 76.944 104.766 76.5707 105.236 76.272C105.716 75.9627 106.244 75.808 106.82 75.808ZM115.504 75.808C116.282 75.808 116.976 76 117.584 76.384C118.192 76.7573 118.661 77.2693 118.992 77.92C119.333 78.56 119.503 79.2587 119.503 80.016C119.503 80.1013 119.498 80.1973 119.488 80.304C119.477 80.4 119.466 80.48 119.456 80.544H112.72C112.826 81.2587 113.136 81.8453 113.648 82.304C114.17 82.752 114.832 82.976 115.632 82.976C116.122 82.976 116.586 82.864 117.024 82.64C117.472 82.416 117.802 82.1387 118.016 81.808L119.104 82.448C118.752 83.0027 118.272 83.4347 117.664 83.744C117.066 84.0427 116.384 84.192 115.616 84.192C114.773 84.192 114.026 84.0107 113.376 83.648C112.725 83.2853 112.218 82.7893 111.856 82.16C111.493 81.52 111.312 80.8 111.312 80C111.312 79.2107 111.488 78.5013 111.84 77.872C112.202 77.232 112.698 76.7307 113.328 76.368C113.968 75.9947 114.693 75.808 115.504 75.808ZM118.192 79.424C118.085 78.6773 117.797 78.0907 117.328 77.664C116.858 77.2373 116.25 77.024 115.504 77.024C114.981 77.024 114.506 77.136 114.08 77.36C113.653 77.584 113.317 77.8827 113.072 78.256C112.826 78.6187 112.698 79.008 112.688 79.424H118.192ZM123.144 81.504C123.144 81.9947 123.235 82.336 123.416 82.528C123.608 82.7093 123.912 82.8 124.328 82.8C124.456 82.8 124.723 82.7787 125.128 82.736V84C124.67 84.0533 124.286 84.08 123.976 84.08C123.219 84.08 122.659 83.8987 122.296 83.536C121.944 83.1733 121.768 82.5227 121.768 81.584V77.264H119.992V76H121.768V73.824L123.144 73.328V76H125.096V77.264H123.144V81.504ZM127.508 84.128C127.241 84.0853 127.054 84 126.948 83.872C126.852 83.744 126.804 83.5307 126.804 83.232C126.804 82.9333 126.884 82.704 127.044 82.544C127.214 82.384 127.438 82.304 127.716 82.304C128.004 82.304 128.233 82.3947 128.404 82.576C128.574 82.7467 128.66 82.976 128.66 83.264C128.649 83.5947 128.601 83.8773 128.516 84.112C128.43 84.3467 128.27 84.6507 128.036 85.024L127.412 85.968L126.884 85.536L127.508 84.128ZM141.446 76H142.838V84H141.446V82.8C141.073 83.2373 140.625 83.584 140.102 83.84C139.59 84.0853 139.041 84.208 138.454 84.208C137.676 84.208 136.977 84.0267 136.358 83.664C135.74 83.2907 135.26 82.784 134.918 82.144C134.577 81.504 134.406 80.7947 134.406 80.016C134.406 79.2267 134.577 78.5173 134.918 77.888C135.26 77.248 135.734 76.7467 136.342 76.384C136.961 76.0107 137.665 75.824 138.454 75.824C139.041 75.824 139.59 75.952 140.102 76.208C140.625 76.4533 141.073 76.7947 141.446 77.232V76ZM138.598 82.88C139.121 82.88 139.601 82.7573 140.038 82.512C140.476 82.256 140.817 81.9093 141.062 81.472C141.318 81.0347 141.446 80.544 141.446 80C141.446 79.4667 141.318 78.9867 141.062 78.56C140.817 78.1227 140.476 77.7813 140.038 77.536C139.601 77.2907 139.121 77.168 138.598 77.168C138.076 77.168 137.601 77.2907 137.174 77.536C136.748 77.7813 136.412 78.1227 136.166 78.56C135.921 78.9973 135.798 79.4827 135.798 80.016C135.798 80.56 135.921 81.0507 136.166 81.488C136.412 81.9147 136.748 82.256 137.174 82.512C137.601 82.7573 138.076 82.88 138.598 82.88ZM150.137 76H151.513V84H150.137V83.056C149.849 83.3973 149.502 83.6747 149.097 83.888C148.691 84.0907 148.249 84.192 147.769 84.192C147.299 84.192 146.819 84.096 146.329 83.904C145.838 83.7013 145.417 83.3493 145.065 82.848C144.713 82.336 144.537 81.648 144.537 80.784V76H145.913V80.784C145.913 81.5627 146.126 82.1227 146.553 82.464C146.99 82.7947 147.491 82.96 148.057 82.96C148.611 82.96 149.097 82.768 149.513 82.384C149.929 81.9893 150.137 81.3493 150.137 80.464V76ZM160.552 82.448C160.168 82.9813 159.677 83.408 159.08 83.728C158.493 84.0373 157.853 84.192 157.16 84.192C156.402 84.192 155.704 84.0053 155.064 83.632C154.424 83.2587 153.912 82.752 153.528 82.112C153.154 81.4613 152.968 80.7573 152.968 80C152.968 79.2427 153.154 78.544 153.528 77.904C153.912 77.264 154.424 76.7573 155.064 76.384C155.704 76.0107 156.402 75.824 157.16 75.824C157.842 75.824 158.477 75.9787 159.064 76.288C159.65 76.5973 160.141 77.0133 160.536 77.536L159.4 78.304C159.122 77.952 158.792 77.68 158.408 77.488C158.024 77.296 157.608 77.2 157.16 77.2C156.648 77.2 156.178 77.328 155.752 77.584C155.325 77.8293 154.984 78.1653 154.728 78.592C154.482 79.0187 154.36 79.488 154.36 80C154.36 80.512 154.482 80.9867 154.728 81.424C154.984 81.8507 155.325 82.192 155.752 82.448C156.178 82.6933 156.648 82.816 157.16 82.816C157.608 82.816 158.024 82.72 158.408 82.528C158.802 82.3253 159.133 82.048 159.4 81.696L160.552 82.448ZM164.254 81.504C164.254 81.9947 164.344 82.336 164.526 82.528C164.718 82.7093 165.022 82.8 165.438 82.8C165.566 82.8 165.832 82.7787 166.238 82.736V84C165.779 84.0533 165.395 84.08 165.086 84.08C164.328 84.08 163.768 83.8987 163.406 83.536C163.054 83.1733 162.878 82.5227 162.878 81.584V77.264H161.102V76H162.878V73.824L164.254 73.328V76H166.206V77.264H164.254V81.504ZM171.347 84.192C170.59 84.192 169.891 84.0053 169.251 83.632C168.611 83.2587 168.099 82.752 167.715 82.112C167.342 81.4613 167.155 80.7573 167.155 80C167.155 79.2427 167.342 78.544 167.715 77.904C168.099 77.264 168.611 76.7573 169.251 76.384C169.891 76.0107 170.59 75.824 171.347 75.824C172.105 75.824 172.803 76.0107 173.443 76.384C174.083 76.7573 174.59 77.264 174.963 77.904C175.347 78.544 175.539 79.2427 175.539 80C175.539 80.7573 175.347 81.4613 174.963 82.112C174.59 82.752 174.083 83.2587 173.443 83.632C172.803 84.0053 172.105 84.192 171.347 84.192ZM171.347 82.816C171.859 82.816 172.329 82.6933 172.755 82.448C173.182 82.192 173.518 81.8507 173.763 81.424C174.019 80.9867 174.147 80.512 174.147 80C174.147 79.488 174.019 79.0187 173.763 78.592C173.518 78.1653 173.182 77.8293 172.755 77.584C172.329 77.328 171.859 77.2 171.347 77.2C170.835 77.2 170.361 77.328 169.923 77.584C169.497 77.8293 169.155 78.1653 168.899 78.592C168.654 79.0187 168.531 79.488 168.531 80C168.531 80.512 168.654 80.9867 168.899 81.424C169.155 81.8507 169.497 82.192 169.923 82.448C170.361 82.6933 170.835 82.816 171.347 82.816ZM180.9 75.824C181.028 75.824 181.124 75.8293 181.188 75.84L181.076 77.152C180.948 77.1307 180.846 77.12 180.772 77.12C180.089 77.12 179.513 77.328 179.044 77.744C178.585 78.16 178.356 78.7627 178.356 79.552V84H176.98V76H178.356V77.376C178.537 76.9387 178.846 76.5707 179.284 76.272C179.732 75.9733 180.27 75.824 180.9 75.824ZM187.464 74.176C187.198 74.176 186.984 74.1013 186.824 73.952C186.664 73.8027 186.584 73.5947 186.584 73.328C186.584 73.072 186.664 72.8693 186.824 72.72C186.984 72.56 187.198 72.48 187.464 72.48C187.731 72.48 187.944 72.56 188.104 72.72C188.264 72.8693 188.344 73.072 188.344 73.328C188.344 73.5947 188.264 73.8027 188.104 73.952C187.955 74.1013 187.742 74.176 187.464 74.176ZM186.776 84V76H188.152V84H186.776ZM196.9 76H198.292V84H196.9V82.8C196.526 83.2373 196.078 83.584 195.556 83.84C195.044 84.0853 194.494 84.208 193.908 84.208C193.129 84.208 192.43 84.0267 191.812 83.664C191.193 83.2907 190.713 82.784 190.372 82.144C190.03 81.504 189.86 80.7947 189.86 80.016C189.86 79.2267 190.03 78.5173 190.372 77.888C190.713 77.248 191.188 76.7467 191.796 76.384C192.414 76.0107 193.118 75.824 193.908 75.824C194.494 75.824 195.044 75.952 195.556 76.208C196.078 76.4533 196.526 76.7947 196.9 77.232V76ZM194.052 82.88C194.574 82.88 195.054 82.7573 195.492 82.512C195.929 82.256 196.27 81.9093 196.516 81.472C196.772 81.0347 196.9 80.544 196.9 80C196.9 79.4667 196.772 78.9867 196.516 78.56C196.27 78.1227 195.929 77.7813 195.492 77.536C195.054 77.2907 194.574 77.168 194.052 77.168C193.529 77.168 193.054 77.2907 192.628 77.536C192.201 77.7813 191.865 78.1227 191.62 78.56C191.374 78.9973 191.252 79.4827 191.252 80.016C191.252 80.56 191.374 81.0507 191.62 81.488C191.865 81.9147 192.201 82.256 192.628 82.512C193.054 82.7573 193.529 82.88 194.052 82.88ZM207.192 82.448C206.808 82.9813 206.318 83.408 205.72 83.728C205.134 84.0373 204.494 84.192 203.8 84.192C203.043 84.192 202.344 84.0053 201.704 83.632C201.064 83.2587 200.552 82.752 200.168 82.112C199.795 81.4613 199.608 80.7573 199.608 80C199.608 79.2427 199.795 78.544 200.168 77.904C200.552 77.264 201.064 76.7573 201.704 76.384C202.344 76.0107 203.043 75.824 203.8 75.824C204.483 75.824 205.118 75.9787 205.704 76.288C206.291 76.5973 206.782 77.0133 207.176 77.536L206.04 78.304C205.763 77.952 205.432 77.68 205.048 77.488C204.664 77.296 204.248 77.2 203.8 77.2C203.288 77.2 202.819 77.328 202.392 77.584C201.966 77.8293 201.624 78.1653 201.368 78.592C201.123 79.0187 201 79.488 201 80C201 80.512 201.123 80.9867 201.368 81.424C201.624 81.8507 201.966 82.192 202.392 82.448C202.819 82.6933 203.288 82.816 203.8 82.816C204.248 82.816 204.664 82.72 205.048 82.528C205.443 82.3253 205.774 82.048 206.04 81.696L207.192 82.448ZM213.855 76H215.231V84H213.855V83.056C213.567 83.3973 213.221 83.6747 212.815 83.888C212.41 84.0907 211.967 84.192 211.487 84.192C211.018 84.192 210.538 84.096 210.047 83.904C209.557 83.7013 209.135 83.3493 208.783 82.848C208.431 82.336 208.255 81.648 208.255 80.784V76H209.631V80.784C209.631 81.5627 209.845 82.1227 210.271 82.464C210.709 82.7947 211.21 82.96 211.775 82.96C212.33 82.96 212.815 82.768 213.231 82.384C213.647 81.9893 213.855 81.3493 213.855 80.464V76ZM218.887 82.304C218.887 82.4853 218.924 82.6133 218.999 82.688C219.084 82.752 219.212 82.784 219.383 82.784C219.479 82.784 219.57 82.7787 219.655 82.768C219.74 82.7573 219.82 82.7467 219.895 82.736V84C219.554 84.0533 219.266 84.08 219.031 84.08C218.551 84.08 218.178 83.9573 217.911 83.712C217.644 83.456 217.511 83.0133 217.511 82.384V72.8H218.887V82.304ZM222.183 74.176C221.916 74.176 221.703 74.1013 221.543 73.952C221.383 73.8027 221.303 73.5947 221.303 73.328C221.303 73.072 221.383 72.8693 221.543 72.72C221.703 72.56 221.916 72.48 222.183 72.48C222.45 72.48 222.663 72.56 222.823 72.72C222.983 72.8693 223.063 73.072 223.063 73.328C223.063 73.5947 222.983 73.8027 222.823 73.952C222.674 74.1013 222.46 74.176 222.183 74.176ZM221.495 84V76H222.871V84H221.495ZM225.896 78.192C225.896 78.5013 226.04 78.7253 226.328 78.864C226.627 79.0027 227.102 79.152 227.752 79.312C228.382 79.4613 228.894 79.6107 229.288 79.76C229.694 79.9093 230.035 80.144 230.312 80.464C230.6 80.784 230.744 81.216 230.744 81.76C230.744 82.496 230.44 83.088 229.832 83.536C229.224 83.9733 228.462 84.192 227.544 84.192C226.723 84.192 226.03 84.032 225.464 83.712C224.899 83.392 224.488 82.944 224.232 82.368L225.368 81.776C225.539 82.2027 225.811 82.5227 226.184 82.736C226.558 82.9387 227.011 83.04 227.544 83.04C228.046 83.04 228.478 82.928 228.84 82.704C229.214 82.48 229.4 82.1707 229.4 81.776C229.4 81.5307 229.31 81.328 229.128 81.168C228.958 81.008 228.739 80.8853 228.472 80.8C228.216 80.7147 227.848 80.608 227.368 80.48C226.76 80.3307 226.264 80.1867 225.88 80.048C225.507 79.8987 225.182 79.68 224.904 79.392C224.638 79.104 224.504 78.7147 224.504 78.224C224.504 77.7547 224.638 77.3387 224.904 76.976C225.171 76.6027 225.534 76.3147 225.992 76.112C226.451 75.9093 226.963 75.808 227.528 75.808C228.2 75.808 228.792 75.952 229.304 76.24C229.827 76.528 230.227 76.928 230.504 77.44L229.368 78.016C229.208 77.6747 228.974 77.4133 228.664 77.232C228.355 77.04 227.976 76.944 227.528 76.944C227.027 76.944 226.627 77.0613 226.328 77.296C226.04 77.52 225.896 77.8187 225.896 78.192ZM237.996 82.304C237.996 82.4853 238.034 82.6133 238.108 82.688C238.194 82.752 238.322 82.784 238.492 82.784C238.588 82.784 238.679 82.7787 238.764 82.768C238.85 82.7573 238.93 82.7467 239.004 82.736V84C238.663 84.0533 238.375 84.08 238.14 84.08C237.66 84.08 237.287 83.9573 237.02 83.712C236.754 83.456 236.62 83.0133 236.62 82.384V72.8H237.996V82.304ZM243.722 84.192C242.965 84.192 242.266 84.0053 241.626 83.632C240.986 83.2587 240.474 82.752 240.09 82.112C239.717 81.4613 239.53 80.7573 239.53 80C239.53 79.2427 239.717 78.544 240.09 77.904C240.474 77.264 240.986 76.7573 241.626 76.384C242.266 76.0107 242.965 75.824 243.722 75.824C244.48 75.824 245.178 76.0107 245.818 76.384C246.458 76.7573 246.965 77.264 247.338 77.904C247.722 78.544 247.914 79.2427 247.914 80C247.914 80.7573 247.722 81.4613 247.338 82.112C246.965 82.752 246.458 83.2587 245.818 83.632C245.178 84.0053 244.48 84.192 243.722 84.192ZM243.722 82.816C244.234 82.816 244.704 82.6933 245.13 82.448C245.557 82.192 245.893 81.8507 246.138 81.424C246.394 80.9867 246.522 80.512 246.522 80C246.522 79.488 246.394 79.0187 246.138 78.592C245.893 78.1653 245.557 77.8293 245.13 77.584C244.704 77.328 244.234 77.2 243.722 77.2C243.21 77.2 242.736 77.328 242.298 77.584C241.872 77.8293 241.53 78.1653 241.274 78.592C241.029 79.0187 240.906 79.488 240.906 80C240.906 80.512 241.029 80.9867 241.274 81.424C241.53 81.8507 241.872 82.192 242.298 82.448C242.736 82.6933 243.21 82.816 243.722 82.816ZM253.275 75.824C253.403 75.824 253.499 75.8293 253.563 75.84L253.451 77.152C253.323 77.1307 253.221 77.12 253.147 77.12C252.464 77.12 251.888 77.328 251.419 77.744C250.96 78.16 250.731 78.7627 250.731 79.552V84H249.355V76H250.731V77.376C250.912 76.9387 251.221 76.5707 251.659 76.272C252.107 75.9733 252.645 75.824 253.275 75.824ZM258.191 75.808C258.97 75.808 259.663 76 260.271 76.384C260.879 76.7573 261.348 77.2693 261.679 77.92C262.02 78.56 262.191 79.2587 262.191 80.016C262.191 80.1013 262.186 80.1973 262.175 80.304C262.164 80.4 262.154 80.48 262.143 80.544H255.407C255.514 81.2587 255.823 81.8453 256.335 82.304C256.858 82.752 257.519 82.976 258.319 82.976C258.81 82.976 259.274 82.864 259.711 82.64C260.159 82.416 260.49 82.1387 260.703 81.808L261.791 82.448C261.439 83.0027 260.959 83.4347 260.351 83.744C259.754 84.0427 259.071 84.192 258.303 84.192C257.46 84.192 256.714 84.0107 256.063 83.648C255.412 83.2853 254.906 82.7893 254.543 82.16C254.18 81.52 253.999 80.8 253.999 80C253.999 79.2107 254.175 78.5013 254.527 77.872C254.89 77.232 255.386 76.7307 256.015 76.368C256.655 75.9947 257.38 75.808 258.191 75.808ZM260.879 79.424C260.772 78.6773 260.484 78.0907 260.015 77.664C259.546 77.2373 258.938 77.024 258.191 77.024C257.668 77.024 257.194 77.136 256.767 77.36C256.34 77.584 256.004 77.8827 255.759 78.256C255.514 78.6187 255.386 79.008 255.375 79.424H260.879ZM272.757 75.808C273.226 75.808 273.706 75.9093 274.197 76.112C274.688 76.304 275.109 76.656 275.461 77.168C275.824 77.6693 276.005 78.352 276.005 79.216V84H274.613V79.216C274.613 78.4373 274.4 77.8827 273.973 77.552C273.546 77.2107 273.05 77.04 272.485 77.04C272.026 77.04 271.605 77.1733 271.221 77.44C270.848 77.7067 270.597 78.144 270.469 78.752C270.48 78.848 270.485 79.0027 270.485 79.216V84H269.109V79.216C269.109 78.4373 268.89 77.8827 268.453 77.552C268.026 77.2107 267.53 77.04 266.965 77.04C266.528 77.04 266.117 77.168 265.733 77.424C265.36 77.68 265.104 78.0907 264.965 78.656V84H263.589V76H264.965V76.832C265.242 76.5227 265.578 76.2773 265.973 76.096C266.368 75.904 266.789 75.808 267.237 75.808C267.76 75.808 268.288 75.9307 268.821 76.176C269.365 76.4213 269.786 76.8267 270.085 77.392C270.341 76.944 270.704 76.5707 271.173 76.272C271.653 75.9627 272.181 75.808 272.757 75.808ZM278.026 83.376C278.026 83.12 278.095 82.9227 278.234 82.784C278.383 82.6347 278.58 82.56 278.826 82.56C279.082 82.56 279.279 82.6347 279.418 82.784C279.556 82.9227 279.626 83.12 279.626 83.376C279.626 83.6213 279.556 83.8187 279.418 83.968C279.279 84.1067 279.082 84.176 278.826 84.176C278.58 84.176 278.383 84.1067 278.234 83.968C278.095 83.8187 278.026 83.6213 278.026 83.376ZM286.123 84V72.8H287.579V84H286.123ZM293.599 75.808C294.068 75.808 294.548 75.9093 295.039 76.112C295.529 76.304 295.951 76.656 296.303 77.168C296.655 77.6693 296.831 78.352 296.831 79.216V84H295.455V79.216C295.455 78.4373 295.241 77.8827 294.815 77.552C294.388 77.2107 293.887 77.04 293.311 77.04C292.756 77.04 292.271 77.2373 291.855 77.632C291.439 78.016 291.231 78.6507 291.231 79.536V84H289.855V76H291.231V76.944C291.519 76.6027 291.865 76.3307 292.271 76.128C292.676 75.9147 293.119 75.808 293.599 75.808ZM305.394 81.504C305.394 81.9947 305.485 82.336 305.666 82.528C305.858 82.7093 306.162 82.8 306.578 82.8C306.706 82.8 306.973 82.7787 307.378 82.736V84C306.92 84.0533 306.536 84.08 306.226 84.08C305.469 84.08 304.909 83.8987 304.546 83.536C304.194 83.1733 304.018 82.5227 304.018 81.584V77.264H302.242V76H304.018V73.824L305.394 73.328V76H307.346V77.264H305.394V81.504ZM315.813 84H314.437V79.248C314.437 78.4693 314.219 77.9147 313.781 77.584C313.355 77.2427 312.859 77.072 312.293 77.072C311.856 77.072 311.445 77.2 311.061 77.456C310.688 77.712 310.432 78.1227 310.293 78.688V84H308.917V72.8H310.293V76.864C310.571 76.5547 310.907 76.3093 311.301 76.128C311.696 75.936 312.117 75.84 312.565 75.84C313.035 75.84 313.515 75.9413 314.005 76.144C314.496 76.336 314.917 76.6827 315.269 77.184C315.632 77.6853 315.813 78.3627 315.813 79.216V84ZM321.175 75.808C321.954 75.808 322.647 76 323.255 76.384C323.863 76.7573 324.333 77.2693 324.663 77.92C325.005 78.56 325.175 79.2587 325.175 80.016C325.175 80.1013 325.17 80.1973 325.159 80.304C325.149 80.4 325.138 80.48 325.127 80.544H318.391C318.498 81.2587 318.807 81.8453 319.319 82.304C319.842 82.752 320.503 82.976 321.303 82.976C321.794 82.976 322.258 82.864 322.695 82.64C323.143 82.416 323.474 82.1387 323.687 81.808L324.775 82.448C324.423 83.0027 323.943 83.4347 323.335 83.744C322.738 84.0427 322.055 84.192 321.287 84.192C320.445 84.192 319.698 84.0107 319.047 83.648C318.397 83.2853 317.89 82.7893 317.527 82.16C317.165 81.52 316.983 80.8 316.983 80C316.983 79.2107 317.159 78.5013 317.511 77.872C317.874 77.232 318.37 76.7307 318.999 76.368C319.639 75.9947 320.365 75.808 321.175 75.808ZM323.863 79.424C323.757 78.6773 323.469 78.0907 322.999 77.664C322.53 77.2373 321.922 77.024 321.175 77.024C320.653 77.024 320.178 77.136 319.751 77.36C319.325 77.584 318.989 77.8827 318.743 78.256C318.498 78.6187 318.37 79.008 318.359 79.424H323.863ZM73.032 110H71.656V105.248C71.656 104.469 71.4373 103.915 71 103.584C70.5733 103.243 70.0773 103.072 69.512 103.072C69.0747 103.072 68.664 103.2 68.28 103.456C67.9067 103.712 67.6507 104.123 67.512 104.688V110H66.136V98.8H67.512V102.864C67.7893 102.555 68.1253 102.309 68.52 102.128C68.9147 101.936 69.336 101.84 69.784 101.84C70.2533 101.84 70.7333 101.941 71.224 102.144C71.7147 102.336 72.136 102.683 72.488 103.184C72.8507 103.685 73.032 104.363 73.032 105.216V110ZM78.3941 101.808C79.1728 101.808 79.8661 102 80.4741 102.384C81.0821 102.757 81.5515 103.269 81.8821 103.92C82.2235 104.56 82.3941 105.259 82.3941 106.016C82.3941 106.101 82.3888 106.197 82.3781 106.304C82.3675 106.4 82.3568 106.48 82.3461 106.544H75.6101C75.7168 107.259 76.0261 107.845 76.5381 108.304C77.0608 108.752 77.7221 108.976 78.5221 108.976C79.0128 108.976 79.4768 108.864 79.9141 108.64C80.3621 108.416 80.6928 108.139 80.9061 107.808L81.9941 108.448C81.6421 109.003 81.1621 109.435 80.5541 109.744C79.9568 110.043 79.2741 110.192 78.5061 110.192C77.6635 110.192 76.9168 110.011 76.2661 109.648C75.6155 109.285 75.1088 108.789 74.7461 108.16C74.3835 107.52 74.2021 106.8 74.2021 106C74.2021 105.211 74.3781 104.501 74.7301 103.872C75.0928 103.232 75.5888 102.731 76.2181 102.368C76.8581 101.995 77.5835 101.808 78.3941 101.808ZM81.0821 105.424C80.9755 104.677 80.6875 104.091 80.2181 103.664C79.7488 103.237 79.1408 103.024 78.3941 103.024C77.8715 103.024 77.3968 103.136 76.9701 103.36C76.5435 103.584 76.2075 103.883 75.9621 104.256C75.7168 104.619 75.5888 105.008 75.5781 105.424H81.0821ZM87.5363 101.808C88.0056 101.808 88.4856 101.909 88.9763 102.112C89.4669 102.304 89.8883 102.656 90.2403 103.168C90.5923 103.669 90.7683 104.352 90.7683 105.216V110H89.3923V105.216C89.3923 104.437 89.1789 103.883 88.7523 103.552C88.3256 103.211 87.8243 103.04 87.2483 103.04C86.6936 103.04 86.2083 103.237 85.7923 103.632C85.3763 104.016 85.1683 104.651 85.1683 105.536V110H83.7923V102H85.1683V102.944C85.4563 102.603 85.8029 102.331 86.2083 102.128C86.6136 101.915 87.0563 101.808 87.5363 101.808ZM99.1183 98.8H100.494V110H99.1183V108.8C98.7449 109.237 98.2969 109.584 97.7743 109.84C97.2623 110.085 96.7129 110.208 96.1263 110.208C95.3476 110.208 94.6489 110.027 94.0303 109.664C93.4116 109.291 92.9316 108.784 92.5903 108.144C92.2489 107.504 92.0783 106.795 92.0783 106.016C92.0783 105.227 92.2489 104.517 92.5903 103.888C92.9316 103.248 93.4063 102.747 94.0143 102.384C94.6329 102.011 95.3369 101.824 96.1263 101.824C96.7129 101.824 97.2623 101.952 97.7743 102.208C98.2969 102.453 98.7449 102.795 99.1183 103.232V98.8ZM96.2703 108.88C96.7929 108.88 97.2729 108.757 97.7103 108.512C98.1476 108.256 98.4889 107.909 98.7343 107.472C98.9903 107.035 99.1183 106.544 99.1183 106C99.1183 105.467 98.9903 104.987 98.7343 104.56C98.4889 104.123 98.1476 103.781 97.7103 103.536C97.2729 103.291 96.7929 103.168 96.2703 103.168C95.7476 103.168 95.2729 103.291 94.8463 103.536C94.4196 103.781 94.0836 104.123 93.8383 104.56C93.5929 104.997 93.4703 105.483 93.4703 106.016C93.4703 106.56 93.5929 107.051 93.8383 107.488C94.0836 107.915 94.4196 108.256 94.8463 108.512C95.2729 108.757 95.7476 108.88 96.2703 108.88ZM106.681 101.824C106.809 101.824 106.905 101.829 106.969 101.84L106.857 103.152C106.729 103.131 106.628 103.12 106.553 103.12C105.87 103.12 105.294 103.328 104.825 103.744C104.366 104.16 104.137 104.763 104.137 105.552V110H102.761V102H104.137V103.376C104.318 102.939 104.628 102.571 105.065 102.272C105.513 101.973 106.052 101.824 106.681 101.824ZM111.597 101.808C112.376 101.808 113.069 102 113.677 102.384C114.285 102.757 114.755 103.269 115.085 103.92C115.427 104.56 115.597 105.259 115.597 106.016C115.597 106.101 115.592 106.197 115.581 106.304C115.571 106.4 115.56 106.48 115.549 106.544H108.813C108.92 107.259 109.229 107.845 109.741 108.304C110.264 108.752 110.925 108.976 111.725 108.976C112.216 108.976 112.68 108.864 113.117 108.64C113.565 108.416 113.896 108.139 114.109 107.808L115.197 108.448C114.845 109.003 114.365 109.435 113.757 109.744C113.16 110.043 112.477 110.192 111.709 110.192C110.867 110.192 110.12 110.011 109.469 109.648C108.819 109.285 108.312 108.789 107.949 108.16C107.587 107.52 107.405 106.8 107.405 106C107.405 105.211 107.581 104.501 107.933 103.872C108.296 103.232 108.792 102.731 109.421 102.368C110.061 101.995 110.787 101.808 111.597 101.808ZM114.285 105.424C114.179 104.677 113.891 104.091 113.421 103.664C112.952 103.237 112.344 103.024 111.597 103.024C111.075 103.024 110.6 103.136 110.173 103.36C109.747 103.584 109.411 103.883 109.165 104.256C108.92 104.619 108.792 105.008 108.781 105.424H114.285ZM120.915 101.824C121.043 101.824 121.139 101.829 121.203 101.84L121.091 103.152C120.963 103.131 120.862 103.12 120.787 103.12C120.105 103.12 119.529 103.328 119.059 103.744C118.601 104.16 118.371 104.763 118.371 105.552V110H116.995V102H118.371V103.376C118.553 102.939 118.862 102.571 119.299 102.272C119.747 101.973 120.286 101.824 120.915 101.824ZM123.417 100.176C123.151 100.176 122.937 100.101 122.777 99.952C122.617 99.8027 122.537 99.5947 122.537 99.328C122.537 99.072 122.617 98.8693 122.777 98.72C122.937 98.56 123.151 98.48 123.417 98.48C123.684 98.48 123.897 98.56 124.057 98.72C124.217 98.8693 124.297 99.072 124.297 99.328C124.297 99.5947 124.217 99.8027 124.057 99.952C123.908 100.101 123.695 100.176 123.417 100.176ZM122.729 110V102H124.105V110H122.729ZM128.691 107.504C128.691 107.995 128.782 108.336 128.963 108.528C129.155 108.709 129.459 108.8 129.875 108.8C130.003 108.8 130.27 108.779 130.675 108.736V110C130.216 110.053 129.832 110.08 129.523 110.08C128.766 110.08 128.206 109.899 127.843 109.536C127.491 109.173 127.315 108.523 127.315 107.584V103.264H125.539V102H127.315V99.824L128.691 99.328V102H130.643V103.264H128.691V107.504ZM140.396 101.808C140.865 101.808 141.345 101.909 141.836 102.112C142.326 102.304 142.748 102.656 143.1 103.168C143.452 103.669 143.628 104.352 143.628 105.216V110H142.252V105.216C142.252 104.437 142.038 103.883 141.612 103.552C141.185 103.211 140.684 103.04 140.108 103.04C139.553 103.04 139.068 103.237 138.652 103.632C138.236 104.016 138.028 104.651 138.028 105.536V110H136.652V102H138.028V102.944C138.316 102.603 138.662 102.331 139.068 102.128C139.473 101.915 139.916 101.808 140.396 101.808ZM146.074 100.176C145.807 100.176 145.594 100.101 145.434 99.952C145.274 99.8027 145.194 99.5947 145.194 99.328C145.194 99.072 145.274 98.8693 145.434 98.72C145.594 98.56 145.807 98.48 146.074 98.48C146.34 98.48 146.554 98.56 146.714 98.72C146.874 98.8693 146.954 99.072 146.954 99.328C146.954 99.5947 146.874 99.8027 146.714 99.952C146.564 100.101 146.351 100.176 146.074 100.176ZM145.386 110V102H146.762V110H145.386ZM149.787 104.192C149.787 104.501 149.931 104.725 150.219 104.864C150.518 105.003 150.992 105.152 151.643 105.312C152.272 105.461 152.784 105.611 153.179 105.76C153.584 105.909 153.926 106.144 154.203 106.464C154.491 106.784 154.635 107.216 154.635 107.76C154.635 108.496 154.331 109.088 153.723 109.536C153.115 109.973 152.352 110.192 151.435 110.192C150.614 110.192 149.92 110.032 149.355 109.712C148.79 109.392 148.379 108.944 148.123 108.368L149.259 107.776C149.43 108.203 149.702 108.523 150.075 108.736C150.448 108.939 150.902 109.04 151.435 109.04C151.936 109.04 152.368 108.928 152.731 108.704C153.104 108.48 153.291 108.171 153.291 107.776C153.291 107.531 153.2 107.328 153.019 107.168C152.848 107.008 152.63 106.885 152.363 106.8C152.107 106.715 151.739 106.608 151.259 106.48C150.651 106.331 150.155 106.187 149.771 106.048C149.398 105.899 149.072 105.68 148.795 105.392C148.528 105.104 148.395 104.715 148.395 104.224C148.395 103.755 148.528 103.339 148.795 102.976C149.062 102.603 149.424 102.315 149.883 102.112C150.342 101.909 150.854 101.808 151.419 101.808C152.091 101.808 152.683 101.952 153.195 102.24C153.718 102.528 154.118 102.928 154.395 103.44L153.259 104.016C153.099 103.675 152.864 103.413 152.555 103.232C152.246 103.04 151.867 102.944 151.419 102.944C150.918 102.944 150.518 103.061 150.219 103.296C149.931 103.52 149.787 103.819 149.787 104.192ZM156.746 100.176C156.479 100.176 156.266 100.101 156.106 99.952C155.946 99.8027 155.866 99.5947 155.866 99.328C155.866 99.072 155.946 98.8693 156.106 98.72C156.266 98.56 156.479 98.48 156.746 98.48C157.012 98.48 157.226 98.56 157.386 98.72C157.546 98.8693 157.626 99.072 157.626 99.328C157.626 99.5947 157.546 99.8027 157.386 99.952C157.236 100.101 157.023 100.176 156.746 100.176ZM156.058 110V102H157.434V110H156.058ZM159.557 109.376C159.557 109.12 159.626 108.923 159.765 108.784C159.914 108.635 160.111 108.56 160.357 108.56C160.613 108.56 160.81 108.635 160.949 108.784C161.087 108.923 161.157 109.12 161.157 109.376C161.157 109.621 161.087 109.819 160.949 109.968C160.81 110.107 160.613 110.176 160.357 110.176C160.111 110.176 159.914 110.107 159.765 109.968C159.626 109.819 159.557 109.621 159.557 109.376Z" fill="#757683"/>
<path d="M73.376 5.2C74.944 5.2 76.384 5.576 77.696 6.328C79.024 7.064 80.072 8.08 80.84 9.376C81.608 10.656 81.992 12.08 81.992 13.648C81.992 15.216 81.608 16.64 80.84 17.92C80.072 19.184 79.024 20.184 77.696 20.92C76.384 21.64 74.944 22 73.376 22H66.704V5.2H73.376ZM73.376 19.024C74.384 19.024 75.304 18.792 76.136 18.328C76.968 17.848 77.624 17.192 78.104 16.36C78.6 15.528 78.848 14.616 78.848 13.624C78.848 12.632 78.6 11.72 78.104 10.888C77.624 10.04 76.968 9.376 76.136 8.896C75.304 8.416 74.384 8.176 73.376 8.176H69.848V19.024H73.376ZM89.6135 9.688C90.7655 9.688 91.7975 9.976 92.7095 10.552C93.6375 11.112 94.3575 11.872 94.8695 12.832C95.3815 13.792 95.6375 14.856 95.6375 16.024C95.6375 16.408 95.6055 16.76 95.5415 17.08H86.2775C86.5175 17.928 86.9415 18.592 87.5495 19.072C88.1575 19.536 88.9335 19.768 89.8775 19.768C90.4535 19.768 91.0055 19.64 91.5335 19.384C92.0775 19.128 92.4855 18.8 92.7575 18.4L95.0375 19.744C94.4775 20.576 93.7495 21.216 92.8535 21.664C91.9735 22.096 90.9575 22.312 89.8055 22.312C88.5255 22.312 87.3895 22.04 86.3975 21.496C85.4055 20.952 84.6375 20.2 84.0935 19.24C83.5655 18.28 83.3015 17.2 83.3015 16C83.3015 14.816 83.5655 13.744 84.0935 12.784C84.6375 11.824 85.3895 11.072 86.3495 10.528C87.3095 9.968 88.3975 9.688 89.6135 9.688ZM92.8535 14.752C92.7255 13.984 92.3655 13.384 91.7735 12.952C91.1975 12.504 90.4695 12.28 89.5895 12.28C88.9815 12.28 88.4215 12.392 87.9095 12.616C87.4135 12.84 87.0135 13.144 86.7095 13.528C86.4055 13.912 86.2455 14.32 86.2295 14.752H92.8535ZM100.112 13.36C100.112 13.696 100.296 13.952 100.664 14.128C101.048 14.288 101.648 14.456 102.464 14.632C103.392 14.824 104.168 15.04 104.792 15.28C105.416 15.52 105.952 15.904 106.4 16.432C106.864 16.944 107.096 17.64 107.096 18.52C107.096 19.304 106.856 19.984 106.376 20.56C105.912 21.136 105.288 21.576 104.504 21.88C103.72 22.168 102.864 22.312 101.936 22.312C100.672 22.312 99.5844 22.072 98.6724 21.592C97.7764 21.112 97.1124 20.424 96.6804 19.528L99.1284 18.256C99.5604 19.36 100.496 19.912 101.936 19.912C102.56 19.912 103.096 19.792 103.544 19.552C103.992 19.312 104.216 18.968 104.216 18.52C104.216 18.136 104.008 17.856 103.592 17.68C103.192 17.488 102.536 17.28 101.624 17.056C100.68 16.832 99.9124 16.608 99.3204 16.384C98.7284 16.16 98.2164 15.816 97.7844 15.352C97.3524 14.872 97.1364 14.24 97.1364 13.456C97.1364 12.688 97.3524 12.024 97.7844 11.464C98.2164 10.888 98.8004 10.448 99.5364 10.144C100.272 9.84 101.08 9.688 101.96 9.688C103 9.688 103.928 9.904 104.744 10.336C105.576 10.768 106.216 11.384 106.664 12.184L104.24 13.408C103.824 12.512 103.064 12.064 101.96 12.064C101.4 12.064 100.952 12.184 100.616 12.424C100.28 12.648 100.112 12.96 100.112 13.36ZM110.47 8.008C109.91 8.008 109.47 7.856 109.15 7.552C108.83 7.248 108.67 6.832 108.67 6.304C108.67 5.76 108.83 5.336 109.15 5.032C109.47 4.728 109.91 4.576 110.47 4.576C111.03 4.576 111.47 4.728 111.79 5.032C112.11 5.336 112.27 5.76 112.27 6.304C112.27 6.816 112.102 7.232 111.766 7.552C111.446 7.856 111.014 8.008 110.47 8.008ZM108.958 22V10H111.934V22H108.958ZM124.038 10H127.014V21.4C127.014 22.536 126.726 23.536 126.15 24.4C125.59 25.264 124.806 25.928 123.798 26.392C122.79 26.872 121.662 27.112 120.414 27.112C119.022 27.112 117.758 26.84 116.622 26.296C115.486 25.768 114.686 25.072 114.222 24.208L116.766 22.744C117.006 23.208 117.454 23.592 118.11 23.896C118.766 24.216 119.558 24.376 120.486 24.376C121.51 24.376 122.358 24.096 123.03 23.536C123.702 22.992 124.038 22.28 124.038 21.4V20.848C123.494 21.328 122.886 21.696 122.214 21.952C121.542 22.208 120.846 22.336 120.126 22.336C118.91 22.336 117.846 22.064 116.934 21.52C116.022 20.976 115.318 20.224 114.822 19.264C114.342 18.304 114.102 17.224 114.102 16.024C114.102 14.824 114.342 13.744 114.822 12.784C115.318 11.824 116.022 11.072 116.934 10.528C117.846 9.968 118.91 9.688 120.126 9.688C120.846 9.688 121.534 9.824 122.19 10.096C122.862 10.352 123.478 10.712 124.038 11.176V10ZM120.51 19.48C121.166 19.48 121.758 19.336 122.286 19.048C122.83 18.744 123.254 18.328 123.558 17.8C123.878 17.272 124.038 16.672 124.038 16C124.038 14.992 123.694 14.168 123.006 13.528C122.334 12.888 121.502 12.568 120.51 12.568C119.502 12.568 118.67 12.896 118.014 13.552C117.374 14.192 117.054 15.016 117.054 16.024C117.054 17.032 117.374 17.864 118.014 18.52C118.67 19.16 119.502 19.48 120.51 19.48ZM136.171 9.688C136.875 9.688 137.587 9.84 138.307 10.144C139.043 10.432 139.667 10.96 140.179 11.728C140.707 12.496 140.971 13.528 140.971 14.824V22H137.995V14.824C137.995 13.928 137.739 13.288 137.227 12.904C136.731 12.504 136.147 12.304 135.475 12.304C134.803 12.304 134.227 12.544 133.747 13.024C133.283 13.488 133.051 14.24 133.051 15.28V22H130.075V10H133.051V11.008C133.483 10.608 133.963 10.288 134.491 10.048C135.019 9.808 135.579 9.688 136.171 9.688ZM156.166 12.376L160.222 5.2H163.774L157.726 16V22H154.582V15.952L148.534 5.2H152.086L156.166 12.376ZM168.692 22.336C167.556 22.336 166.5 22.056 165.524 21.496C164.564 20.92 163.796 20.152 163.22 19.192C162.66 18.216 162.38 17.16 162.38 16.024C162.38 14.888 162.66 13.84 163.22 12.88C163.796 11.904 164.564 11.136 165.524 10.576C166.5 10 167.556 9.712 168.692 9.712C169.828 9.712 170.876 10 171.836 10.576C172.812 11.136 173.58 11.904 174.14 12.88C174.716 13.84 175.004 14.888 175.004 16.024C175.004 17.16 174.716 18.216 174.14 19.192C173.58 20.152 172.812 20.92 171.836 21.496C170.876 22.056 169.828 22.336 168.692 22.336ZM168.668 19.36C169.276 19.36 169.836 19.216 170.348 18.928C170.86 18.624 171.268 18.216 171.572 17.704C171.876 17.192 172.028 16.632 172.028 16.024C172.028 15.416 171.876 14.856 171.572 14.344C171.268 13.832 170.86 13.424 170.348 13.12C169.836 12.816 169.276 12.664 168.668 12.664C168.06 12.664 167.5 12.816 166.988 13.12C166.476 13.424 166.068 13.832 165.764 14.344C165.476 14.856 165.332 15.416 165.332 16.024C165.332 16.632 165.476 17.192 165.764 17.704C166.068 18.216 166.476 18.624 166.988 18.928C167.5 19.216 168.06 19.36 168.668 19.36ZM184.463 10H187.439V22H184.463V20.992C184.031 21.392 183.551 21.712 183.023 21.952C182.495 22.192 181.935 22.312 181.343 22.312C180.639 22.312 179.919 22.168 179.183 21.88C178.463 21.576 177.839 21.04 177.311 20.272C176.799 19.504 176.543 18.472 176.543 17.176V10H179.519V17.176C179.519 18.072 179.767 18.72 180.263 19.12C180.775 19.504 181.367 19.696 182.039 19.696C182.711 19.696 183.279 19.464 183.743 19C184.223 18.52 184.463 17.76 184.463 16.72V10ZM212.164 17.056L215.308 5.2H218.548L213.916 22H210.532L207.076 10.528L203.62 22H200.236L195.604 5.2H198.844L201.988 17.056L205.444 5.2H208.708L212.164 17.056ZM221.611 8.008C221.051 8.008 220.611 7.856 220.291 7.552C219.971 7.248 219.811 6.832 219.811 6.304C219.811 5.76 219.971 5.336 220.291 5.032C220.611 4.728 221.051 4.576 221.611 4.576C222.171 4.576 222.611 4.728 222.931 5.032C223.251 5.336 223.411 5.76 223.411 6.304C223.411 6.816 223.243 7.232 222.907 7.552C222.587 7.856 222.155 8.008 221.611 8.008ZM220.099 22V10H223.075V22H220.099ZM229.028 18.616C229.028 18.872 229.092 19.056 229.22 19.168C229.348 19.28 229.548 19.336 229.82 19.336C230.028 19.336 230.276 19.312 230.564 19.264V22C229.972 22.096 229.42 22.144 228.908 22.144C227.98 22.144 227.268 21.904 226.772 21.424C226.292 20.928 226.052 20.056 226.052 18.808V5.2H229.028V18.616ZM235.426 18.616C235.426 18.872 235.49 19.056 235.618 19.168C235.746 19.28 235.946 19.336 236.218 19.336C236.426 19.336 236.674 19.312 236.962 19.264V22C236.37 22.096 235.818 22.144 235.306 22.144C234.378 22.144 233.666 21.904 233.17 21.424C232.69 20.928 232.45 20.056 232.45 18.808V5.2H235.426V18.616ZM248.7 5.2V19.024H255.78V22H245.556V5.2H248.7ZM262.981 22.336C261.845 22.336 260.789 22.056 259.813 21.496C258.853 20.92 258.085 20.152 257.509 19.192C256.949 18.216 256.669 17.16 256.669 16.024C256.669 14.888 256.949 13.84 257.509 12.88C258.085 11.904 258.853 11.136 259.813 10.576C260.789 10 261.845 9.712 262.981 9.712C264.117 9.712 265.165 10 266.125 10.576C267.101 11.136 267.869 11.904 268.429 12.88C269.005 13.84 269.293 14.888 269.293 16.024C269.293 17.16 269.005 18.216 268.429 19.192C267.869 20.152 267.101 20.92 266.125 21.496C265.165 22.056 264.117 22.336 262.981 22.336ZM262.957 19.36C263.565 19.36 264.125 19.216 264.637 18.928C265.149 18.624 265.557 18.216 265.861 17.704C266.165 17.192 266.317 16.632 266.317 16.024C266.317 15.416 266.165 14.856 265.861 14.344C265.557 13.832 265.149 13.424 264.637 13.12C264.125 12.816 263.565 12.664 262.957 12.664C262.349 12.664 261.789 12.816 261.277 13.12C260.765 13.424 260.357 13.832 260.053 14.344C259.765 14.856 259.621 15.416 259.621 16.024C259.621 16.632 259.765 17.192 260.053 17.704C260.357 18.216 260.765 18.624 261.277 18.928C261.789 19.216 262.349 19.36 262.957 19.36ZM275.83 18.4L278.974 10H282.118L277.654 22H274.006L269.542 10H272.686L275.83 18.4ZM288.715 9.688C289.867 9.688 290.899 9.976 291.811 10.552C292.739 11.112 293.459 11.872 293.971 12.832C294.483 13.792 294.739 14.856 294.739 16.024C294.739 16.408 294.707 16.76 294.643 17.08H285.379C285.619 17.928 286.043 18.592 286.651 19.072C287.259 19.536 288.035 19.768 288.979 19.768C289.555 19.768 290.107 19.64 290.635 19.384C291.179 19.128 291.587 18.8 291.859 18.4L294.139 19.744C293.579 20.576 292.851 21.216 291.955 21.664C291.075 22.096 290.059 22.312 288.907 22.312C287.627 22.312 286.491 22.04 285.499 21.496C284.507 20.952 283.739 20.2 283.195 19.24C282.667 18.28 282.403 17.2 282.403 16C282.403 14.816 282.667 13.744 283.195 12.784C283.739 11.824 284.491 11.072 285.451 10.528C286.411 9.968 287.499 9.688 288.715 9.688ZM291.955 14.752C291.827 13.984 291.467 13.384 290.875 12.952C290.299 12.504 289.571 12.28 288.691 12.28C288.083 12.28 287.523 12.392 287.011 12.616C286.515 12.84 286.115 13.144 285.811 13.528C285.507 13.912 285.347 14.32 285.331 14.752H291.955Z" fill="#1B1C23"/>
<rect y="5" width="40" height="40" fill="#FF694B"/>
<path d="M21.0913 17V29.28H25.1513V31H14.8513V29.28H19.2713V18.9L16.5913 20.18L15.7113 18.74L19.2713 17H21.0913Z" fill="white"/>
</svg>
